Sansita-Black.ufo
<glyph name="exclam" format="1">
  <advance width="256"/>
  <unicode hex="0021"/>
  <outline>
    <contour>
      <point x="78" y="682"/>
      <point x="35" y="669"/>
      <point x="13" y="644" type="curve"/>
      <point x="52" y="278" type="line" smooth="yes"/>
      <point x="59" y="209"/>
      <point x="67" y="169"/>
      <point x="137" y="169" type="curve" smooth="yes"/>
      <point x="159" y="169"/>
      <point x="178" y="172"/>
      <point x="192" y="183" type="curve"/>
      <point x="214" y="420" type="line" smooth="yes"/>
      <point x="219" y="465"/>
      <point x="225" y="528"/>
      <point x="225" y="559" type="curve" smooth="yes"/>
      <point x="225" y="634"/>
      <point x="191" y="682"/>
      <point x="114" y="682" type="curve" smooth="yes"/>
    </contour>
    <component base="period"/>
  </outline>
</glyph>
<glyph name="quotedbl" format="1">
  <advance width="421"/>
  <unicode hex="0022"/>
  <outline>
    <contour>
      <point x="113" y="445" type="line"/>
      <point x="154" y="490"/>
      <point x="180" y="575"/>
      <point x="180" y="628" type="curve" smooth="yes"/>
      <point x="180" y="706"/>
      <point x="137" y="741"/>
      <point x="58" y="741" type="curve" smooth="yes"/>
      <point x="41" y="741"/>
      <point x="15" y="738"/>
      <point x="-5" y="735" type="curve"/>
      <point x="19" y="649"/>
      <point x="25" y="516"/>
      <point x="1" y="445" type="curve"/>
    </contour>
    <contour>
      <point x="340" y="445" type="line"/>
      <point x="381" y="490"/>
      <point x="407" y="575"/>
      <point x="407" y="628" type="curve" smooth="yes"/>
      <point x="407" y="706"/>
      <point x="364" y="741"/>
      <point x="285" y="741" type="curve" smooth="yes"/>
      <point x="268" y="741"/>
      <point x="242" y="738"/>
      <point x="222" y="735" type="curve"/>
      <point x="246" y="649"/>
      <point x="252" y="516"/>
      <point x="228" y="445" type="curve"/>
    </contour>
  </outline>
</glyph>
<glyph name="numbersign" format="1">
  <advance width="642"/>
  <unicode hex="0023"/>
  <outline>
    <contour>
      <point x="398" y="658"/>
      <point x="373" y="624"/>
      <point x="373" y="582" type="curve" smooth="yes"/>
      <point x="373" y="497" type="line"/>
      <point x="284" y="497" type="line"/>
      <point x="284" y="645" type="line"/>
      <point x="270" y="651"/>
      <point x="248" y="658"/>
      <point x="230" y="658" type="curve" smooth="yes"/>
      <point x="171" y="658"/>
      <point x="146" y="624"/>
      <point x="146" y="582" type="curve" smooth="yes"/>
      <point x="146" y="497" type="line"/>
      <point x="116" y="497" type="line" smooth="yes"/>
      <point x="76" y="497"/>
      <point x="46" y="471"/>
      <point x="46" y="409" type="curve" smooth="yes"/>
      <point x="46" y="392"/>
      <point x="52" y="373"/>
      <point x="59" y="361" type="curve"/>
      <point x="146" y="361" type="line"/>
      <point x="146" y="270" type="line"/>
      <point x="116" y="270" type="line" smooth="yes"/>
      <point x="76" y="270"/>
      <point x="46" y="243"/>
      <point x="46" y="182" type="curve" smooth="yes"/>
      <point x="46" y="165"/>
      <point x="52" y="146"/>
      <point x="59" y="133" type="curve"/>
      <point x="146" y="133" type="line"/>
      <point x="146" y="13" type="line"/>
      <point x="160" y="8"/>
      <point x="181" y="0"/>
      <point x="200" y="0" type="curve" smooth="yes"/>
      <point x="259" y="0"/>
      <point x="284" y="34"/>
      <point x="284" y="77" type="curve" smooth="yes"/>
      <point x="284" y="133" type="line"/>
      <point x="373" y="133" type="line"/>
      <point x="373" y="13" type="line"/>
      <point x="387" y="8"/>
      <point x="408" y="0"/>
      <point x="427" y="0" type="curve" smooth="yes"/>
      <point x="486" y="0"/>
      <point x="511" y="34"/>
      <point x="511" y="77" type="curve" smooth="yes"/>
      <point x="511" y="133" type="line"/>
      <point x="525" y="133" type="line" smooth="yes"/>
      <point x="566" y="133"/>
      <point x="595" y="160"/>
      <point x="595" y="221" type="curve" smooth="yes"/>
      <point x="595" y="239"/>
      <point x="590" y="257"/>
      <point x="583" y="270" type="curve"/>
      <point x="511" y="270" type="line"/>
      <point x="511" y="361" type="line"/>
      <point x="525" y="361" type="line" smooth="yes"/>
      <point x="566" y="361"/>
      <point x="595" y="387"/>
      <point x="595" y="448" type="curve" smooth="yes"/>
      <point x="595" y="466"/>
      <point x="590" y="485"/>
      <point x="583" y="497" type="curve"/>
      <point x="511" y="497" type="line"/>
      <point x="511" y="645" type="line"/>
      <point x="497" y="651"/>
      <point x="475" y="658"/>
      <point x="457" y="658" type="curve" smooth="yes"/>
    </contour>
    <contour>
      <point x="373" y="270" type="line"/>
      <point x="284" y="270" type="line"/>
      <point x="284" y="361" type="line"/>
      <point x="373" y="361" type="line"/>
    </contour>
  </outline>
</glyph>
<glyph name="dollar" format="1">
  <advance width="642"/>
  <unicode hex="0024"/>
  <outline>
    <contour>
      <point x="173" y="659"/>
      <point x="40" y="573"/>
      <point x="40" y="440" type="curve" smooth="yes"/>
      <point x="40" y="217"/>
      <point x="373" y="290"/>
      <point x="373" y="124" type="curve" smooth="yes"/>
      <point x="373" y="80"/>
      <point x="347" y="56"/>
      <point x="302" y="56" type="curve" smooth="yes"/>
      <point x="237" y="56"/>
      <point x="226" y="112"/>
      <point x="226" y="178" type="curve" smooth="yes"/>
      <point x="226" y="201"/>
      <point x="228" y="212"/>
      <point x="231" y="235" type="curve"/>
      <point x="214" y="236"/>
      <point x="193" y="237"/>
      <point x="179" y="237" type="curve" smooth="yes"/>
      <point x="100" y="237"/>
      <point x="30" y="193"/>
      <point x="30" y="107" type="curve" smooth="yes"/>
      <point x="30" y="10"/>
      <point x="157" y="-22"/>
      <point x="289" y="-22" type="curve" smooth="yes"/>
      <point x="483" y="-22"/>
      <point x="602" y="52"/>
      <point x="602" y="205" type="curve" smooth="yes"/>
      <point x="602" y="413"/>
      <point x="269" y="360"/>
      <point x="269" y="521" type="curve" smooth="yes"/>
      <point x="269" y="556"/>
      <point x="290" y="582"/>
      <point x="326" y="582" type="curve" smooth="yes"/>
      <point x="371" y="582"/>
      <point x="386" y="547"/>
      <point x="386" y="503" type="curve" smooth="yes"/>
      <point x="386" y="477"/>
      <point x="385" y="456"/>
      <point x="381" y="430" type="curve"/>
      <point x="399" y="429"/>
      <point x="419" y="428"/>
      <point x="433" y="428" type="curve" smooth="yes"/>
      <point x="513" y="428"/>
      <point x="583" y="457"/>
      <point x="583" y="543" type="curve" smooth="yes"/>
      <point x="583" y="627"/>
      <point x="455" y="659"/>
      <point x="343" y="659" type="curve" smooth="yes"/>
    </contour>
    <contour>
      <point x="254" y="-106" type="line"/>
      <point x="267" y="-110"/>
      <point x="283" y="-119"/>
      <point x="301" y="-119" type="curve" smooth="yes"/>
      <point x="341" y="-119"/>
      <point x="362" y="-90"/>
      <point x="362" y="-54" type="curve" smooth="yes"/>
      <point x="362" y="35" type="line"/>
      <point x="254" y="35" type="line"/>
    </contour>
    <contour>
      <point x="291" y="757"/>
      <point x="270" y="728"/>
      <point x="270" y="692" type="curve" smooth="yes"/>
      <point x="270" y="611" type="line"/>
      <point x="378" y="625" type="line"/>
      <point x="378" y="744" type="line"/>
      <point x="366" y="749"/>
      <point x="350" y="757"/>
      <point x="331" y="757" type="curve" smooth="yes"/>
    </contour>
  </outline>
</glyph>
<glyph name="ampersand" format="1">
  <advance width="735"/>
  <unicode hex="0026"/>
  <outline>
    <contour>
      <point x="224" y="678"/>
      <point x="96" y="640"/>
      <point x="96" y="491" type="curve" smooth="yes"/>
      <point x="96" y="360"/>
      <point x="274" y="171"/>
      <point x="403" y="77" type="curve" smooth="yes"/>
      <point x="462" y="41"/>
      <point x="533" y="-20"/>
      <point x="643" y="-20" type="curve" smooth="yes"/>
      <point x="708" y="-20"/>
      <point x="752" y="1"/>
      <point x="752" y="53" type="curve" smooth="yes"/>
      <point x="752" y="78"/>
      <point x="744" y="105"/>
      <point x="730" y="133" type="curve"/>
      <point x="729" y="128"/>
      <point x="699" y="119"/>
      <point x="668" y="119" type="curve" smooth="yes"/>
      <point x="619" y="119"/>
      <point x="576" y="129"/>
      <point x="517" y="161" type="curve" smooth="yes"/>
      <point x="382" y="240"/>
      <point x="299" y="416"/>
      <point x="299" y="556" type="curve" smooth="yes"/>
      <point x="299" y="590"/>
      <point x="313" y="612"/>
      <point x="341" y="612" type="curve" smooth="yes"/>
      <point x="382" y="612"/>
      <point x="386" y="554"/>
      <point x="386" y="527" type="curve" smooth="yes"/>
      <point x="386" y="482"/>
      <point x="376" y="472"/>
      <point x="373" y="452" type="curve"/>
      <point x="389" y="451"/>
      <point x="408" y="450"/>
      <point x="420" y="450" type="curve" smooth="yes"/>
      <point x="485" y="450"/>
      <point x="557" y="481"/>
      <point x="557" y="554" type="curve" smooth="yes"/>
      <point x="557" y="647"/>
      <point x="427" y="680"/>
      <point x="334" y="680" type="curve" smooth="yes"/>
    </contour>
    <contour>
      <point x="490" y="400"/>
      <point x="444" y="375"/>
      <point x="428" y="362" type="curve"/>
      <point x="458" y="335"/>
      <point x="485" y="298"/>
      <point x="485" y="252" type="curve" smooth="yes"/>
      <point x="485" y="216"/>
      <point x="465" y="69"/>
      <point x="360" y="69" type="curve" smooth="yes"/>
      <point x="250" y="69"/>
      <point x="183" y="125"/>
      <point x="183" y="234" type="curve" smooth="yes"/>
      <point x="183" y="259"/>
      <point x="192" y="291"/>
      <point x="201" y="301" type="curve"/>
      <point x="171" y="359" type="line"/>
      <point x="71" y="344"/>
      <point x="9" y="283"/>
      <point x="9" y="196" type="curve" smooth="yes"/>
      <point x="9" y="12"/>
      <point x="151" y="-19"/>
      <point x="284" y="-19" type="curve" smooth="yes"/>
      <point x="504" y="-19"/>
      <point x="676" y="131"/>
      <point x="676" y="272" type="curve" smooth="yes"/>
      <point x="676" y="359"/>
      <point x="601" y="400"/>
      <point x="540" y="400" type="curve" smooth="yes"/>
    </contour>
  </outline>
</glyph>
<glyph name="quotesingle" format="1">
  <advance width="194"/>
  <unicode hex="0027"/>
  <outline>
    <contour>
      <point x="113" y="445" type="line"/>
      <point x="154" y="490"/>
      <point x="180" y="575"/>
      <point x="180" y="628" type="curve" smooth="yes"/>
      <point x="180" y="706"/>
      <point x="137" y="741"/>
      <point x="58" y="741" type="curve" smooth="yes"/>
      <point x="41" y="741"/>
      <point x="15" y="738"/>
      <point x="-5" y="735" type="curve"/>
      <point x="19" y="649"/>
      <point x="25" y="516"/>
      <point x="1" y="445" type="curve"/>
    </contour>
  </outline>
</glyph>
<glyph name="parenleft" format="1">
  <advance width="302"/>
  <unicode hex="0028"/>
  <outline>
    <contour>
      <point x="143" y="800"/>
      <point x="25" y="608"/>
      <point x="25" y="300" type="curve" smooth="yes"/>
      <point x="25" y="-8"/>
      <point x="143" y="-200"/>
      <point x="297" y="-200" type="curve" smooth="yes"/>
      <point x="322" y="-200"/>
      <point x="339" y="-194"/>
      <point x="354" y="-181" type="curve"/>
      <point x="225" y="-90"/>
      <point x="188" y="115"/>
      <point x="188" y="300" type="curve" smooth="yes"/>
      <point x="188" y="485"/>
      <point x="225" y="690"/>
      <point x="354" y="781" type="curve"/>
      <point x="339" y="794"/>
      <point x="322" y="800"/>
      <point x="297" y="800" type="curve" smooth="yes"/>
    </contour>
  </outline>
</glyph>
<glyph name="parenright" format="1">
  <advance width="303"/>
  <unicode hex="0029"/>
  <outline>
    <contour>
      <point x="-22" y="800"/>
      <point x="-39" y="794"/>
      <point x="-52" y="781" type="curve"/>
      <point x="77" y="690"/>
      <point x="114" y="485"/>
      <point x="114" y="300" type="curve" smooth="yes"/>
      <point x="114" y="114"/>
      <point x="77" y="-91"/>
      <point x="-52" y="-181" type="curve"/>
      <point x="-39" y="-195"/>
      <point x="-22" y="-201"/>
      <point x="2" y="-201" type="curve" smooth="yes"/>
      <point x="149" y="-201"/>
      <point x="277" y="-9"/>
      <point x="277" y="300" type="curve" smooth="yes"/>
      <point x="277" y="608"/>
      <point x="149" y="800"/>
      <point x="2" y="800" type="curve" smooth="yes"/>
    </contour>
  </outline>
</glyph>
<glyph name="asterisk" format="1">
  <advance width="470"/>
  <unicode hex="002A"/>
  <outline>
    <contour>
      <point x="286" y="584" type="line"/>
      <point x="289" y="598"/>
      <point x="290" y="611"/>
      <point x="290" y="624" type="curve" smooth="yes"/>
      <point x="290" y="659"/>
      <point x="279" y="697"/>
      <point x="207" y="697" type="curve" smooth="yes"/>
      <point x="186" y="697"/>
      <point x="163" y="692"/>
      <point x="144" y="683" type="curve"/>
      <point x="157" y="588" type="line"/>
      <point x="143" y="596"/>
      <point x="130" y="603"/>
      <point x="117" y="607" type="curve"/>
      <point x="84" y="617"/>
      <point x="44" y="619"/>
      <point x="22" y="550" type="curve" smooth="yes"/>
      <point x="16" y="530"/>
      <point x="13" y="507"/>
      <point x="16" y="486" type="curve"/>
      <point x="100" y="471" type="line"/>
      <point x="90" y="462"/>
      <point x="82" y="452"/>
      <point x="75" y="443" type="curve" smooth="yes"/>
      <point x="54" y="414"/>
      <point x="41" y="377"/>
      <point x="99" y="335" type="curve" smooth="yes"/>
      <point x="116" y="322"/>
      <point x="137" y="313"/>
      <point x="158" y="309" type="curve"/>
      <point x="212" y="408" type="line"/>
      <point x="218" y="388"/>
      <point x="228" y="371"/>
      <point x="238" y="356" type="curve" smooth="yes"/>
      <point x="259" y="327"/>
      <point x="290" y="303"/>
      <point x="348" y="345" type="curve" smooth="yes"/>
      <point x="365" y="358"/>
      <point x="381" y="375"/>
      <point x="391" y="394" type="curve"/>
      <point x="328" y="460" type="line"/>
      <point x="338" y="462"/>
      <point x="349" y="464"/>
      <point x="358" y="467" type="curve" smooth="yes"/>
      <point x="391" y="478"/>
      <point x="424" y="500"/>
      <point x="402" y="569" type="curve"/>
      <point x="395" y="588"/>
      <point x="384" y="609"/>
      <point x="369" y="624" type="curve"/>
    </contour>
  </outline>
</glyph>
<glyph name="plus" format="1">
  <advance width="642"/>
  <unicode hex="002B"/>
  <outline>
    <contour>
      <point x="283" y="462"/>
      <point x="264" y="428"/>
      <point x="264" y="386" type="curve" smooth="yes"/>
      <point x="264" y="18" type="line"/>
      <point x="278" y="12"/>
      <point x="299" y="8"/>
      <point x="317" y="8" type="curve" smooth="yes"/>
      <point x="363" y="8"/>
      <point x="383" y="41"/>
      <point x="383" y="84" type="curve" smooth="yes"/>
      <point x="383" y="452" type="line"/>
      <point x="369" y="458"/>
      <point x="346" y="462"/>
      <point x="328" y="462" type="curve" smooth="yes"/>
    </contour>
    <contour>
      <point x="176" y="294" type="line" smooth="yes"/>
      <point x="135" y="294"/>
      <point x="106" y="276"/>
      <point x="106" y="236" type="curve" smooth="yes"/>
      <point x="106" y="218"/>
      <point x="111" y="200"/>
      <point x="118" y="187" type="curve"/>
      <point x="466" y="187" type="line" smooth="yes"/>
      <point x="507" y="187"/>
      <point x="536" y="205"/>
      <point x="536" y="245" type="curve" smooth="yes"/>
      <point x="536" y="263"/>
      <point x="530" y="281"/>
      <point x="524" y="294" type="curve"/>
    </contour>
  </outline>
</glyph>
<glyph name="comma" format="1">
  <advance width="276"/>
  <unicode hex="002C"/>
  <outline>
    <contour>
      <point x="95" y="161"/>
      <point x="53" y="151"/>
      <point x="40" y="139" type="curve"/>
      <point x="61" y="99"/>
      <point x="70" y="55"/>
      <point x="70" y="11" type="curve" smooth="yes"/>
      <point x="70" y="-45"/>
      <point x="51" y="-91"/>
      <point x="18" y="-137" type="curve"/>
      <point x="33" y="-141"/>
      <point x="51" y="-143"/>
      <point x="67" y="-143" type="curve" smooth="yes"/>
      <point x="168" y="-143"/>
      <point x="258" y="-64"/>
      <point x="258" y="37" type="curve" smooth="yes"/>
      <point x="258" y="122"/>
      <point x="211" y="161"/>
      <point x="125" y="161" type="curve" smooth="yes"/>
    </contour>
  </outline>
</glyph>
<glyph name="period" format="1">
  <advance width="258"/>
  <unicode hex="002E"/>
  <outline>
    <contour>
      <point x="63" y="151"/>
      <point x="9" y="117"/>
      <point x="9" y="63" type="curve" smooth="yes"/>
      <point x="9" y="10"/>
      <point x="59" y="-19"/>
      <point x="128" y="-19" type="curve" smooth="yes"/>
      <point x="198" y="-19"/>
      <point x="249" y="10"/>
      <point x="249" y="65" type="curve" smooth="yes"/>
      <point x="249" y="119"/>
      <point x="201" y="151"/>
      <point x="133" y="151" type="curve" smooth="yes"/>
    </contour>
  </outline>
</glyph>
<glyph name="slash" format="1">
  <advance width="346"/>
  <unicode hex="002F"/>
  <outline>
    <contour>
      <point x="210" y="803"/>
      <point x="198" y="802"/>
      <point x="183" y="800" type="curve"/>
      <point x="27" y="-72" type="line" smooth="yes"/>
      <point x="23" y="-91"/>
      <point x="21" y="-104"/>
      <point x="21" y="-124" type="curve" smooth="yes"/>
      <point x="21" y="-178"/>
      <point x="62" y="-200"/>
      <point x="122" y="-200" type="curve" smooth="yes"/>
      <point x="136" y="-200"/>
      <point x="148" y="-200"/>
      <point x="163" y="-198" type="curve"/>
      <point x="320" y="674" type="line" smooth="yes"/>
      <point x="324" y="694"/>
      <point x="326" y="707"/>
      <point x="326" y="725" type="curve" smooth="yes"/>
      <point x="326" y="780"/>
      <point x="285" y="803"/>
      <point x="225" y="803" type="curve" smooth="yes"/>
    </contour>
  </outline>
</glyph>
<glyph name="zero" format="1">
  <advance width="642"/>
  <unicode hex="0030"/>
  <outline>
    <contour>
      <point x="118" y="680"/>
      <point x="21" y="559"/>
      <point x="21" y="325" type="curve" smooth="yes"/>
      <point x="21" y="103"/>
      <point x="129" y="-22"/>
      <point x="321" y="-22" type="curve" smooth="yes"/>
      <point x="520" y="-22"/>
      <point x="621" y="111"/>
      <point x="621" y="339" type="curve" smooth="yes"/>
      <point x="621" y="572"/>
      <point x="524" y="680"/>
      <point x="321" y="680" type="curve" smooth="yes"/>
    </contour>
    <contour>
      <point x="264" y="54"/>
      <point x="251" y="174"/>
      <point x="251" y="334" type="curve" smooth="yes"/>
      <point x="251" y="501"/>
      <point x="264" y="604"/>
      <point x="321" y="604" type="curve" smooth="yes"/>
      <point x="378" y="604"/>
      <point x="391" y="501"/>
      <point x="391" y="334" type="curve" smooth="yes"/>
      <point x="391" y="174"/>
      <point x="378" y="54"/>
      <point x="321" y="54" type="curve" smooth="yes"/>
    </contour>
  </outline>
</glyph>
<glyph name="one" format="1">
  <advance width="642"/>
  <unicode hex="0031"/>
  <outline>
    <contour>
      <point x="496" y="652" type="line"/>
      <point x="433" y="682" type="line"/>
      <point x="307" y="614"/>
      <point x="174" y="567"/>
      <point x="31" y="527" type="curve"/>
      <point x="31" y="453"/>
      <point x="62" y="419"/>
      <point x="136" y="419" type="curve" smooth="yes"/>
      <point x="193" y="419"/>
      <point x="221" y="442"/>
      <point x="252" y="494" type="curve"/>
      <point x="232" y="528" type="line"/>
      <point x="232" y="99" type="line"/>
      <point x="65" y="99" type="line"/>
      <point x="65" y="0" type="line"/>
      <point x="632" y="0" type="line"/>
      <point x="632" y="99" type="line"/>
      <point x="496" y="99" type="line"/>
    </contour>
  </outline>
</glyph>
<glyph name="two" format="1">
  <advance width="642"/>
  <unicode hex="0032"/>
  <outline>
    <contour>
      <point x="173" y="680"/>
      <point x="26" y="644"/>
      <point x="26" y="529" type="curve" smooth="yes"/>
      <point x="26" y="497"/>
      <point x="41" y="470"/>
      <point x="75" y="450" type="curve"/>
      <point x="106" y="492"/>
      <point x="142" y="520"/>
      <point x="202" y="520" type="curve" smooth="yes"/>
      <point x="283" y="520"/>
      <point x="326" y="486"/>
      <point x="326" y="408" type="curve" smooth="yes"/>
      <point x="326" y="313"/>
      <point x="246" y="254"/>
      <point x="190" y="201" type="curve" smooth="yes"/>
      <point x="169" y="181"/>
      <point x="68" y="96"/>
      <point x="40" y="73" type="curve"/>
      <point x="47" y="0" type="line"/>
      <point x="576" y="0" type="line"/>
      <point x="573" y="171" type="line"/>
      <point x="283" y="156" type="line"/>
      <point x="334" y="171"/>
      <point x="380" y="197"/>
      <point x="433" y="229" type="curve" smooth="yes"/>
      <point x="505" y="273"/>
      <point x="585" y="356"/>
      <point x="585" y="469" type="curve" smooth="yes"/>
      <point x="585" y="619"/>
      <point x="464" y="680"/>
      <point x="299" y="680" type="curve" smooth="yes"/>
    </contour>
  </outline>
</glyph>
<glyph name="three" format="1">
  <advance width="642"/>
  <unicode hex="0033"/>
  <outline>
    <contour>
      <point x="166" y="681"/>
      <point x="42" y="641"/>
      <point x="42" y="524" type="curve" smooth="yes"/>
      <point x="42" y="492"/>
      <point x="57" y="465"/>
      <point x="81" y="445" type="curve"/>
      <point x="110" y="497"/>
      <point x="160" y="530"/>
      <point x="222" y="530" type="curve" smooth="yes"/>
      <point x="283" y="530"/>
      <point x="348" y="506"/>
      <point x="348" y="448" type="curve" smooth="yes"/>
      <point x="348" y="378"/>
      <point x="254" y="377"/>
      <point x="180" y="379" type="curve"/>
      <point x="180" y="296" type="line"/>
      <point x="192" y="296"/>
      <point x="209" y="297"/>
      <point x="222" y="297" type="curve" smooth="yes"/>
      <point x="285" y="299"/>
      <point x="323" y="278"/>
      <point x="323" y="221" type="curve" smooth="yes"/>
      <point x="323" y="163"/>
      <point x="271" y="128"/>
      <point x="210" y="128" type="curve" smooth="yes"/>
      <point x="151" y="128"/>
      <point x="87" y="153"/>
      <point x="67" y="202" type="curve"/>
      <point x="49" y="184"/>
      <point x="40" y="160"/>
      <point x="40" y="135" type="curve" smooth="yes"/>
      <point x="40" y="21"/>
      <point x="167" y="-22"/>
      <point x="271" y="-22" type="curve" smooth="yes"/>
      <point x="476" y="-22"/>
      <point x="602" y="52"/>
      <point x="602" y="199" type="curve" smooth="yes"/>
      <point x="602" y="281"/>
      <point x="548" y="354"/>
      <point x="434" y="369" type="curve"/>
      <point x="514" y="391"/>
      <point x="569" y="444"/>
      <point x="569" y="521" type="curve" smooth="yes"/>
      <point x="569" y="641"/>
      <point x="441" y="681"/>
      <point x="273" y="681" type="curve" smooth="yes"/>
    </contour>
  </outline>
</glyph>
<glyph name="four" format="1">
  <advance width="642"/>
  <unicode hex="0034"/>
  <outline>
    <contour>
      <point x="304" y="660" type="line"/>
      <point x="35" y="264" type="line" smooth="yes"/>
      <point x="16" y="237"/>
      <point x="4" y="207"/>
      <point x="4" y="174" type="curve" smooth="yes"/>
      <point x="4" y="145"/>
      <point x="9" y="127"/>
      <point x="19" y="109" type="curve"/>
      <point x="291" y="109" type="line"/>
      <point x="291" y="0" type="line"/>
      <point x="571" y="0" type="line"/>
      <point x="571" y="109" type="line"/>
      <point x="614" y="109" type="line"/>
      <point x="624" y="267" type="line"/>
      <point x="569" y="267" type="line"/>
      <point x="569" y="660" type="line"/>
    </contour>
    <contour>
      <point x="301" y="267" type="line"/>
      <point x="146" y="267" type="line"/>
      <point x="301" y="509" type="line"/>
    </contour>
  </outline>
</glyph>
<glyph name="five" format="1">
  <advance width="642"/>
  <unicode hex="0035"/>
  <outline>
    <contour>
      <point x="111" y="660" type="line"/>
      <point x="69" y="306" type="line"/>
      <point x="83" y="305"/>
      <point x="128" y="305"/>
      <point x="144" y="305" type="curve" smooth="yes"/>
      <point x="245" y="305"/>
      <point x="333" y="302"/>
      <point x="333" y="215" type="curve" smooth="yes"/>
      <point x="333" y="148"/>
      <point x="262" y="138"/>
      <point x="186" y="138" type="curve" smooth="yes"/>
      <point x="133" y="138"/>
      <point x="88" y="158"/>
      <point x="59" y="202" type="curve"/>
      <point x="42" y="184"/>
      <point x="33" y="160"/>
      <point x="33" y="135" type="curve" smooth="yes"/>
      <point x="33" y="0"/>
      <point x="166" y="-22"/>
      <point x="274" y="-22" type="curve" smooth="yes"/>
      <point x="508" y="-22"/>
      <point x="602" y="62"/>
      <point x="602" y="223" type="curve" smooth="yes"/>
      <point x="602" y="376"/>
      <point x="508" y="432"/>
      <point x="349" y="432" type="curve" smooth="yes"/>
      <point x="307" y="432"/>
      <point x="250" y="430"/>
      <point x="206" y="426" type="curve"/>
      <point x="216" y="492" type="line"/>
      <point x="555" y="492" type="line"/>
      <point x="543" y="660" type="line"/>
    </contour>
  </outline>
</glyph>
<glyph name="six" format="1">
  <advance width="642"/>
  <unicode hex="0036"/>
  <outline>
    <contour>
      <point x="184" y="680"/>
      <point x="24" y="560"/>
      <point x="24" y="299" type="curve" smooth="yes"/>
      <point x="24" y="77"/>
      <point x="152" y="-22"/>
      <point x="345" y="-22" type="curve" smooth="yes"/>
      <point x="514" y="-22"/>
      <point x="634" y="60"/>
      <point x="634" y="230" type="curve" smooth="yes"/>
      <point x="634" y="302"/>
      <point x="618" y="432"/>
      <point x="445" y="432" type="curve" smooth="yes"/>
      <point x="391" y="432"/>
      <point x="341" y="425"/>
      <point x="287" y="394" type="curve"/>
      <point x="284" y="503"/>
      <point x="321" y="530"/>
      <point x="415" y="530" type="curve" smooth="yes"/>
      <point x="464" y="530"/>
      <point x="537" y="515"/>
      <point x="576" y="493" type="curve"/>
      <point x="593" y="510"/>
      <point x="600" y="536"/>
      <point x="600" y="563" type="curve" smooth="yes"/>
      <point x="600" y="651"/>
      <point x="452" y="680"/>
      <point x="364" y="680" type="curve" smooth="yes"/>
    </contour>
    <contour>
      <point x="404" y="343"/>
      <point x="407" y="262"/>
      <point x="407" y="198" type="curve" smooth="yes"/>
      <point x="407" y="137"/>
      <point x="404" y="54"/>
      <point x="344" y="54" type="curve" smooth="yes"/>
      <point x="283" y="54"/>
      <point x="281" y="137"/>
      <point x="281" y="198" type="curve" smooth="yes"/>
      <point x="281" y="257"/>
      <point x="284" y="343"/>
      <point x="344" y="343" type="curve" smooth="yes"/>
    </contour>
  </outline>
</glyph>
<glyph name="seven" format="1">
  <advance width="642"/>
  <unicode hex="0037"/>
  <outline>
    <contour>
      <point x="28" y="660" type="line"/>
      <point x="32" y="478" type="line"/>
      <point x="368" y="504" type="line"/>
      <point x="72" y="2" type="line"/>
      <point x="387" y="-24" type="line"/>
      <point x="631" y="587" type="line"/>
      <point x="624" y="660" type="line"/>
    </contour>
  </outline>
</glyph>
<glyph name="eight" format="1">
  <advance width="642"/>
  <unicode hex="0038"/>
  <outline>
    <contour>
      <point x="585" y="637"/>
      <point x="459" y="680"/>
      <point x="340" y="680" type="curve" smooth="yes"/>
      <point x="197" y="680"/>
      <point x="59" y="642"/>
      <point x="59" y="499" type="curve" smooth="yes"/>
      <point x="59" y="423"/>
      <point x="107" y="361"/>
      <point x="174" y="321" type="curve"/>
      <point x="85" y="310"/>
      <point x="25" y="244"/>
      <point x="25" y="173" type="curve" smooth="yes"/>
      <point x="25" y="28"/>
      <point x="175" y="-22"/>
      <point x="320" y="-22" type="curve" smooth="yes"/>
      <point x="469" y="-22"/>
      <point x="627" y="31"/>
      <point x="627" y="180" type="curve" smooth="yes"/>
      <point x="627" y="280"/>
      <point x="558" y="324"/>
      <point x="465" y="384" type="curve"/>
      <point x="524" y="409"/>
      <point x="585" y="459"/>
      <point x="585" y="523" type="curve" smooth="yes"/>
    </contour>
    <contour>
      <point x="378" y="85"/>
      <point x="362" y="54"/>
      <point x="320" y="54" type="curve" smooth="yes"/>
      <point x="265" y="54"/>
      <point x="240" y="107"/>
      <point x="240" y="162" type="curve" smooth="yes"/>
      <point x="240" y="187"/>
      <point x="243" y="220"/>
      <point x="260" y="252" type="curve"/>
      <point x="328" y="209"/>
      <point x="378" y="178"/>
      <point x="378" y="127" type="curve" smooth="yes"/>
    </contour>
    <contour>
      <point x="281" y="580"/>
      <point x="299" y="604"/>
      <point x="340" y="604" type="curve" smooth="yes"/>
      <point x="385" y="604"/>
      <point x="398" y="567"/>
      <point x="398" y="523" type="curve" smooth="yes"/>
      <point x="398" y="500"/>
      <point x="394" y="471"/>
      <point x="374" y="443" type="curve"/>
      <point x="317" y="479"/>
      <point x="281" y="510"/>
      <point x="281" y="538" type="curve" smooth="yes"/>
    </contour>
  </outline>
</glyph>
<glyph name="nine" format="1">
  <advance width="642"/>
  <unicode hex="0039"/>
  <outline>
    <contour>
      <point x="128" y="680"/>
      <point x="8" y="598"/>
      <point x="8" y="428" type="curve" smooth="yes"/>
      <point x="8" y="356"/>
      <point x="24" y="226"/>
      <point x="196" y="226" type="curve" smooth="yes"/>
      <point x="251" y="226"/>
      <point x="301" y="233"/>
      <point x="355" y="264" type="curve"/>
      <point x="357" y="155"/>
      <point x="335" y="128"/>
      <point x="226" y="128" type="curve" smooth="yes"/>
      <point x="177" y="128"/>
      <point x="104" y="143"/>
      <point x="66" y="165" type="curve"/>
      <point x="49" y="148"/>
      <point x="41" y="122"/>
      <point x="41" y="95" type="curve" smooth="yes"/>
      <point x="41" y="7"/>
      <point x="190" y="-22"/>
      <point x="278" y="-22" type="curve" smooth="yes"/>
      <point x="454" y="-22"/>
      <point x="628" y="98"/>
      <point x="628" y="359" type="curve" smooth="yes"/>
      <point x="628" y="571"/>
      <point x="489" y="680"/>
      <point x="297" y="680" type="curve" smooth="yes"/>
    </contour>
    <contour>
      <point x="359" y="604"/>
      <point x="361" y="521"/>
      <point x="361" y="460" type="curve" smooth="yes"/>
      <point x="361" y="401"/>
      <point x="358" y="315"/>
      <point x="298" y="315" type="curve" smooth="yes"/>
      <point x="237" y="315"/>
      <point x="235" y="396"/>
      <point x="235" y="460" type="curve" smooth="yes"/>
      <point x="235" y="521"/>
      <point x="237" y="604"/>
      <point x="298" y="604" type="curve" smooth="yes"/>
    </contour>
  </outline>
</glyph>
<glyph name="less" format="1">
  <advance width="642"/>
  <unicode hex="003C"/>
  <outline>
    <contour>
      <point x="99" y="219" type="line"/>
      <point x="438" y="-13" type="line"/>
      <point x="490" y="-13"/>
      <point x="525" y="25"/>
      <point x="525" y="82" type="curve" smooth="yes"/>
      <point x="525" y="106"/>
      <point x="512" y="128"/>
      <point x="495" y="140" type="curve" smooth="yes"/>
      <point x="302" y="268" type="line"/>
    </contour>
    <contour>
      <point x="322" y="208" type="line"/>
      <point x="555" y="402" type="line"/>
      <point x="533" y="458"/>
      <point x="504" y="483"/>
      <point x="459" y="483" type="curve" smooth="yes"/>
      <point x="419" y="483"/>
      <point x="390" y="455"/>
      <point x="358" y="429" type="curve" smooth="yes"/>
      <point x="99" y="219" type="line"/>
    </contour>
  </outline>
</glyph>
<glyph name="equal" format="1">
  <advance width="642"/>
  <unicode hex="003D"/>
  <outline>
    <contour>
      <point x="466" y="264" type="line" smooth="yes"/>
      <point x="507" y="264"/>
      <point x="536" y="281"/>
      <point x="536" y="322" type="curve" smooth="yes"/>
      <point x="536" y="339"/>
      <point x="530" y="358"/>
      <point x="524" y="371" type="curve"/>
      <point x="176" y="371" type="line" smooth="yes"/>
      <point x="135" y="371"/>
      <point x="106" y="353"/>
      <point x="106" y="313" type="curve" smooth="yes"/>
      <point x="106" y="295"/>
      <point x="111" y="277"/>
      <point x="118" y="264" type="curve"/>
    </contour>
    <contour>
      <point x="466" y="80" type="line" smooth="yes"/>
      <point x="507" y="80"/>
      <point x="536" y="97"/>
      <point x="536" y="138" type="curve" smooth="yes"/>
      <point x="536" y="155"/>
      <point x="530" y="174"/>
      <point x="524" y="186" type="curve"/>
      <point x="176" y="186" type="line" smooth="yes"/>
      <point x="135" y="186"/>
      <point x="106" y="169"/>
      <point x="106" y="129" type="curve" smooth="yes"/>
      <point x="106" y="111"/>
      <point x="111" y="92"/>
      <point x="118" y="80" type="curve"/>
    </contour>
  </outline>
</glyph>
<glyph name="greater" format="1">
  <advance width="642"/>
  <unicode hex="003E"/>
  <outline>
    <contour>
      <point x="318" y="261" type="line"/>
      <point x="88" y="67" type="line"/>
      <point x="110" y="11"/>
      <point x="139" y="-13"/>
      <point x="184" y="-13" type="curve" smooth="yes"/>
      <point x="224" y="-13"/>
      <point x="260" y="15"/>
      <point x="290" y="40" type="curve" smooth="yes"/>
      <point x="543" y="251" type="line"/>
    </contour>
    <contour>
      <point x="543" y="251" type="line"/>
      <point x="204" y="483" type="line"/>
      <point x="153" y="483"/>
      <point x="118" y="444"/>
      <point x="118" y="387" type="curve" smooth="yes"/>
      <point x="118" y="363"/>
      <point x="129" y="342"/>
      <point x="148" y="329" type="curve" smooth="yes"/>
      <point x="338" y="201" type="line"/>
    </contour>
  </outline>
</glyph>
<glyph name="question" format="1">
  <advance width="556"/>
  <unicode hex="003F"/>
  <outline>
    <contour>
      <point x="125" y="680"/>
      <point x="2" y="649"/>
      <point x="2" y="549" type="curve" smooth="yes"/>
      <point x="2" y="465"/>
      <point x="70" y="431"/>
      <point x="148" y="431" type="curve" smooth="yes"/>
      <point x="164" y="431"/>
      <point x="186" y="432"/>
      <point x="205" y="435" type="curve"/>
      <point x="202" y="460"/>
      <point x="201" y="484"/>
      <point x="201" y="509" type="curve" smooth="yes"/>
      <point x="201" y="557"/>
      <point x="200" y="620"/>
      <point x="252" y="620" type="curve" smooth="yes"/>
      <point x="292" y="620"/>
      <point x="301" y="584"/>
      <point x="301" y="540" type="curve" smooth="yes"/>
      <point x="301" y="432"/>
      <point x="163" y="385"/>
      <point x="163" y="286" type="curve" smooth="yes"/>
      <point x="163" y="237"/>
      <point x="194" y="198"/>
      <point x="243" y="198" type="curve" smooth="yes"/>
      <point x="258" y="198"/>
      <point x="280" y="201"/>
      <point x="289" y="207" type="curve"/>
      <point x="289" y="320"/>
      <point x="535" y="353"/>
      <point x="535" y="509" type="curve" smooth="yes"/>
      <point x="535" y="653"/>
      <point x="399" y="680"/>
      <point x="255" y="680" type="curve" smooth="yes"/>
    </contour>
    <component base="period" xOffset="106"/>
  </outline>
</glyph>
<glyph name="at" format="1">
  <advance width="781"/>
  <unicode hex="0040"/>
  <outline>
    <contour>
      <point x="161" y="601"/>
      <point x="19" y="455"/>
      <point x="19" y="248" type="curve" smooth="yes"/>
      <point x="19" y="28"/>
      <point x="159" y="-98"/>
      <point x="379" y="-98" type="curve" smooth="yes"/>
      <point x="472" y="-98"/>
      <point x="590" y="-67"/>
      <point x="590" y="-9" type="curve" smooth="yes"/>
      <point x="590" y="5"/>
      <point x="584" y="18"/>
      <point x="573" y="25" type="curve"/>
      <point x="522" y="-13"/>
      <point x="456" y="-23"/>
      <point x="393" y="-23" type="curve" smooth="yes"/>
      <point x="212" y="-23"/>
      <point x="129" y="66"/>
      <point x="129" y="248" type="curve" smooth="yes"/>
      <point x="129" y="430"/>
      <point x="209" y="531"/>
      <point x="390" y="531" type="curve" smooth="yes"/>
      <point x="579" y="531"/>
      <point x="653" y="450"/>
      <point x="653" y="261" type="curve" smooth="yes"/>
      <point x="653" y="172"/>
      <point x="656" y="108"/>
      <point x="617" y="108" type="curve" smooth="yes"/>
      <point x="590" y="108"/>
      <point x="590" y="144"/>
      <point x="590" y="176" type="curve" smooth="yes"/>
      <point x="590" y="323" type="line" smooth="yes"/>
      <point x="590" y="437"/>
      <point x="503" y="455"/>
      <point x="390" y="455" type="curve" smooth="yes"/>
      <point x="324" y="455"/>
      <point x="206" y="445"/>
      <point x="206" y="364" type="curve" smooth="yes"/>
      <point x="206" y="316"/>
      <point x="252" y="302"/>
      <point x="299" y="302" type="curve" smooth="yes"/>
      <point x="306" y="302"/>
      <point x="333" y="302"/>
      <point x="339" y="306" type="curve"/>
      <point x="340" y="317"/>
      <point x="340" y="332"/>
      <point x="340" y="345" type="curve" smooth="yes"/>
      <point x="340" y="389"/>
      <point x="347" y="412"/>
      <point x="382" y="412" type="curve" smooth="yes"/>
      <point x="411" y="412"/>
      <point x="416" y="388"/>
      <point x="416" y="357" type="curve" smooth="yes"/>
      <point x="416" y="289" type="line"/>
      <point x="304" y="289"/>
      <point x="180" y="279"/>
      <point x="180" y="176" type="curve" smooth="yes"/>
      <point x="180" y="97"/>
      <point x="260" y="70"/>
      <point x="338" y="70" type="curve" smooth="yes"/>
      <point x="408" y="70"/>
      <point x="447" y="102"/>
      <point x="456" y="138" type="curve"/>
      <point x="477" y="76"/>
      <point x="525" y="61"/>
      <point x="592" y="61" type="curve" smooth="yes"/>
      <point x="734" y="61"/>
      <point x="761" y="144"/>
      <point x="761" y="286" type="curve" smooth="yes"/>
      <point x="761" y="497"/>
      <point x="601" y="601"/>
      <point x="390" y="601" type="curve" smooth="yes"/>
    </contour>
    <contour>
      <point x="416" y="189" type="line" smooth="yes"/>
      <point x="416" y="162"/>
      <point x="409" y="128"/>
      <point x="383" y="128" type="curve" smooth="yes"/>
      <point x="355" y="128"/>
      <point x="348" y="152"/>
      <point x="348" y="180" type="curve" smooth="yes"/>
      <point x="348" y="228"/>
      <point x="368" y="249"/>
      <point x="416" y="249" type="curve"/>
    </contour>
  </outline>
</glyph>
<glyph name="A" format="1">
  <advance width="635"/>
  <unicode hex="0041"/>
  <outline>
    <contour>
      <point x="168" y="660" type="line"/>
      <point x="-11" y="0" type="line"/>
      <point x="130" y="0" type="line"/>
      <point x="164" y="153" type="line"/>
      <point x="327" y="153" type="line"/>
      <point x="362" y="0" type="line"/>
      <point x="633" y="0" type="line"/>
      <point x="468" y="660" type="line"/>
    </contour>
    <contour>
      <point x="244" y="514" type="line"/>
      <point x="306" y="242" type="line"/>
      <point x="184" y="242" type="line"/>
    </contour>
    <contour>
      <point x="633" y="0" type="move" name="ogonek"/>
    </contour>
    <contour>
      <point x="316" y="660" type="move" name="top"/>
    </contour>
    <contour>
      <point x="319" y="731" type="move" name="topcase"/>
    </contour>
  </outline>
</glyph>
<glyph name="B" format="1">
  <advance width="667"/>
  <unicode hex="0042"/>
  <outline>
    <contour>
      <point x="604" y="645"/>
      <point x="472" y="666"/>
      <point x="335" y="666" type="curve" smooth="yes"/>
      <point x="243" y="666"/>
      <point x="136" y="660"/>
      <point x="45" y="651" type="curve"/>
      <point x="45" y="3" type="line"/>
      <point x="148" y="-6"/>
      <point x="236" y="-10"/>
      <point x="331" y="-10" type="curve" smooth="yes"/>
      <point x="488" y="-10"/>
      <point x="660" y="36"/>
      <point x="660" y="193" type="curve" smooth="yes"/>
      <point x="660" y="302"/>
      <point x="590" y="357"/>
      <point x="481" y="375" type="curve"/>
      <point x="552" y="389"/>
      <point x="604" y="438"/>
      <point x="604" y="508" type="curve" smooth="yes"/>
    </contour>
    <contour>
      <point x="309" y="317" type="line"/>
      <point x="316" y="317"/>
      <point x="320" y="318"/>
      <point x="327" y="318" type="curve" smooth="yes"/>
      <point x="395" y="318"/>
      <point x="406" y="257"/>
      <point x="406" y="190" type="curve" smooth="yes"/>
      <point x="406" y="130"/>
      <point x="397" y="66"/>
      <point x="337" y="66" type="curve" smooth="yes"/>
      <point x="330" y="66"/>
      <point x="316" y="68"/>
      <point x="309" y="72" type="curve"/>
    </contour>
    <contour>
      <point x="309" y="583" type="line"/>
      <point x="319" y="587"/>
      <point x="328" y="589"/>
      <point x="339" y="589" type="curve" smooth="yes"/>
      <point x="390" y="589"/>
      <point x="402" y="550"/>
      <point x="402" y="498" type="curve" smooth="yes"/>
      <point x="402" y="438"/>
      <point x="384" y="384"/>
      <point x="324" y="384" type="curve" smooth="yes"/>
      <point x="318" y="384"/>
      <point x="314" y="385"/>
      <point x="309" y="387" type="curve"/>
    </contour>
  </outline>
</glyph>
<glyph name="C" format="1">
  <advance width="628"/>
  <unicode hex="0043"/>
  <outline>
    <contour>
      <point x="418" y="604"/>
      <point x="420" y="537"/>
      <point x="420" y="480" type="curve" smooth="yes"/>
      <point x="420" y="457"/>
      <point x="419" y="446"/>
      <point x="416" y="423" type="curve"/>
      <point x="433" y="422"/>
      <point x="454" y="421"/>
      <point x="468" y="421" type="curve" smooth="yes"/>
      <point x="547" y="421"/>
      <point x="617" y="465"/>
      <point x="617" y="551" type="curve" smooth="yes"/>
      <point x="617" y="657"/>
      <point x="484" y="680"/>
      <point x="378" y="680" type="curve" smooth="yes"/>
      <point x="141" y="680"/>
      <point x="12" y="563"/>
      <point x="12" y="325" type="curve" smooth="yes"/>
      <point x="12" y="132"/>
      <point x="126" y="-22"/>
      <point x="373" y="-22" type="curve" smooth="yes"/>
      <point x="489" y="-22"/>
      <point x="626" y="29"/>
      <point x="626" y="145" type="curve" smooth="yes"/>
      <point x="626" y="176"/>
      <point x="611" y="204"/>
      <point x="587" y="224" type="curve"/>
      <point x="551" y="177"/>
      <point x="511" y="154"/>
      <point x="454" y="154" type="curve" smooth="yes"/>
      <point x="341" y="154"/>
      <point x="296" y="237"/>
      <point x="296" y="381" type="curve" smooth="yes"/>
      <point x="296" y="447"/>
      <point x="295" y="604"/>
      <point x="361" y="604" type="curve" smooth="yes"/>
    </contour>
    <contour>
      <point x="356" y="660" type="move" name="top"/>
    </contour>
    <contour>
      <point x="368" y="0" type="move" name="bottom"/>
    </contour>
    <contour>
      <point x="361" y="700" type="move" name="topcase"/>
    </contour>
  </outline>
</glyph>
<glyph name="D" format="1">
  <advance width="716"/>
  <unicode hex="0044"/>
  <outline>
    <contour>
      <point x="45" y="3" type="line"/>
      <point x="148" y="-6"/>
      <point x="236" y="-10"/>
      <point x="331" y="-10" type="curve" smooth="yes"/>
      <point x="565" y="-10"/>
      <point x="703" y="101"/>
      <point x="703" y="335" type="curve" smooth="yes"/>
      <point x="703" y="574"/>
      <point x="578" y="666"/>
      <point x="339" y="666" type="curve" smooth="yes"/>
      <point x="248" y="666"/>
      <point x="136" y="660"/>
      <point x="45" y="651" type="curve"/>
    </contour>
    <contour>
      <point x="338" y="66"/>
      <point x="323" y="68"/>
      <point x="309" y="74" type="curve"/>
      <point x="309" y="580" type="line"/>
      <point x="326" y="587"/>
      <point x="326" y="589"/>
      <point x="343" y="589" type="curve" smooth="yes"/>
      <point x="411" y="589"/>
      <point x="417" y="452"/>
      <point x="417" y="334" type="curve" smooth="yes"/>
      <point x="417" y="228"/>
      <point x="407" y="66"/>
      <point x="352" y="66" type="curve" smooth="yes"/>
    </contour>
    <contour>
      <point x="327" y="0" type="move" name="bottom"/>
    </contour>
    <contour>
      <point x="339" y="700" type="move" name="topcase"/>
    </contour>
    <contour>
      <point x="341" y="666" type="move" name="top"/>
    </contour>
    <contour>
      <point x="358" y="330" type="move" name="center"/>
    </contour>
  </outline>
</glyph>
<glyph name="E" format="1">
  <advance width="466"/>
  <unicode hex="0045"/>
  <outline>
    <contour>
      <point x="45" y="660" type="line"/>
      <point x="45" y="0" type="line"/>
      <point x="472" y="0" type="line"/>
      <point x="480" y="89" type="line"/>
      <point x="309" y="89" type="line"/>
      <point x="309" y="294" type="line"/>
      <point x="435" y="294" type="line"/>
      <point x="435" y="384" type="line"/>
      <point x="309" y="384" type="line"/>
      <point x="309" y="571" type="line"/>
      <point x="465" y="571" type="line"/>
      <point x="465" y="660" type="line"/>
    </contour>
    <contour>
      <point x="255" y="700" type="move" name="topcase"/>
    </contour>
    <contour>
      <point x="482" y="10" type="move" name="ogonek"/>
    </contour>
    <contour>
      <point x="255" y="660" type="move" name="top"/>
    </contour>
    <contour>
      <point x="240" y="0" type="move" name="bottom"/>
    </contour>
  </outline>
</glyph>
<glyph name="F" format="1">
  <advance width="454"/>
  <unicode hex="0046"/>
  <outline>
    <contour>
      <point x="45" y="660" type="line"/>
      <point x="45" y="0" type="line"/>
      <point x="309" y="0" type="line"/>
      <point x="309" y="280" type="line"/>
      <point x="435" y="280" type="line"/>
      <point x="435" y="370" type="line"/>
      <point x="309" y="370" type="line"/>
      <point x="309" y="571" type="line"/>
      <point x="465" y="571" type="line"/>
      <point x="465" y="660" type="line"/>
    </contour>
  </outline>
</glyph>
<glyph name="G" format="1">
  <advance width="644"/>
  <unicode hex="0047"/>
  <outline>
    <contour>
      <point x="431" y="604"/>
      <point x="442" y="541"/>
      <point x="442" y="480" type="curve" smooth="yes"/>
      <point x="442" y="457"/>
      <point x="441" y="446"/>
      <point x="437" y="423" type="curve"/>
      <point x="455" y="422"/>
      <point x="475" y="421"/>
      <point x="489" y="421" type="curve" smooth="yes"/>
      <point x="569" y="421"/>
      <point x="639" y="465"/>
      <point x="639" y="551" type="curve" smooth="yes"/>
      <point x="639" y="665"/>
      <point x="501" y="680"/>
      <point x="387" y="680" type="curve" smooth="yes"/>
      <point x="146" y="680"/>
      <point x="12" y="567"/>
      <point x="12" y="325" type="curve" smooth="yes"/>
      <point x="12" y="136"/>
      <point x="123" y="-22"/>
      <point x="366" y="-22" type="curve" smooth="yes"/>
      <point x="459" y="-22"/>
      <point x="536" y="-13"/>
      <point x="624" y="19" type="curve"/>
      <point x="624" y="22" type="line"/>
      <point x="624" y="317" type="line"/>
      <point x="443" y="303" type="line"/>
      <point x="452" y="134" type="line"/>
      <point x="444" y="131"/>
      <point x="429" y="129"/>
      <point x="419" y="129" type="curve" smooth="yes"/>
      <point x="307" y="129"/>
      <point x="296" y="254"/>
      <point x="296" y="381" type="curve" smooth="yes"/>
      <point x="296" y="451"/>
      <point x="300" y="604"/>
      <point x="371" y="604" type="curve" smooth="yes"/>
    </contour>
    <contour>
      <point x="365" y="660" type="move" name="top"/>
    </contour>
    <contour>
      <point x="409" y="0" type="move" name="bottom"/>
    </contour>
    <contour>
      <point x="372" y="700" type="move" name="topcase"/>
    </contour>
  </outline>
</glyph>
<glyph name="H" format="1">
  <advance width="723"/>
  <unicode hex="0048"/>
  <outline>
    <contour>
      <point x="415" y="660" type="line"/>
      <point x="415" y="379" type="line"/>
      <point x="309" y="379" type="line"/>
      <point x="309" y="660" type="line"/>
      <point x="45" y="660" type="line"/>
      <point x="45" y="0" type="line"/>
      <point x="309" y="0" type="line"/>
      <point x="309" y="289" type="line"/>
      <point x="415" y="289" type="line"/>
      <point x="415" y="0" type="line"/>
      <point x="679" y="0" type="line"/>
      <point x="679" y="660" type="line"/>
    </contour>
    <contour>
      <point x="361" y="330" type="move" name="center"/>
    </contour>
    <contour>
      <point x="367" y="0" type="move" name="bottom"/>
    </contour>
    <contour>
      <point x="361" y="660" type="move" name="top"/>
    </contour>
  </outline>
</glyph>
<glyph name="I" format="1">
  <advance width="353"/>
  <unicode hex="0049"/>
  <outline>
    <contour>
      <point x="45" y="660" type="line"/>
      <point x="45" y="0" type="line"/>
      <point x="309" y="0" type="line"/>
      <point x="309" y="660" type="line"/>
    </contour>
    <contour>
      <point x="177" y="700" type="move" name="topcase"/>
    </contour>
    <contour>
      <point x="313" y="10" type="move" name="ogonek"/>
    </contour>
    <contour>
      <point x="177" y="660" type="move" name="top"/>
    </contour>
    <contour>
      <point x="175" y="0" type="move" name="bottom"/>
    </contour>
  </outline>
</glyph>
<glyph name="J" format="1">
  <advance width="353"/>
  <unicode hex="004A"/>
  <outline>
    <contour>
      <point x="309" y="660" type="line"/>
      <point x="45" y="660" type="line"/>
      <point x="45" y="48" type="line" smooth="yes"/>
      <point x="45" y="-41"/>
      <point x="49" y="-131"/>
      <point x="-41" y="-147" type="curve"/>
      <point x="-10" y="-195"/>
      <point x="56" y="-206"/>
      <point x="111" y="-206" type="curve" smooth="yes"/>
      <point x="266" y="-206"/>
      <point x="309" y="-86"/>
      <point x="309" y="70" type="curve" smooth="yes"/>
    </contour>
    <contour>
      <point x="177" y="660" type="move" name="top"/>
    </contour>
    <contour>
      <point x="177" y="700" type="move" name="topcase"/>
    </contour>
  </outline>
</glyph>
<glyph name="K" format="1">
  <advance width="721"/>
  <unicode hex="004B"/>
  <outline>
    <contour>
      <point x="309" y="660" type="line"/>
      <point x="45" y="660" type="line"/>
      <point x="45" y="0" type="line"/>
      <point x="309" y="0" type="line"/>
    </contour>
    <contour>
      <point x="328" y="334" type="line"/>
      <point x="466" y="0" type="line"/>
      <point x="731" y="0" type="line"/>
      <point x="578" y="353" type="line"/>
      <point x="717" y="660" type="line"/>
      <point x="459" y="660" type="line"/>
    </contour>
    <contour>
      <point x="364" y="660" type="move" name="top"/>
    </contour>
    <contour>
      <point x="384" y="0" type="move" name="bottom"/>
    </contour>
  </outline>
</glyph>
<glyph name="L" format="1">
  <advance width="475"/>
  <unicode hex="004C"/>
  <outline>
    <contour>
      <point x="45" y="0" type="line"/>
      <point x="458" y="0" type="line"/>
      <point x="470" y="99" type="line"/>
      <point x="309" y="99" type="line"/>
      <point x="309" y="660" type="line"/>
      <point x="45" y="660" type="line"/>
    </contour>
    <contour>
      <point x="176" y="700" type="move" name="topcase"/>
    </contour>
    <contour>
      <point x="178" y="660" type="move" name="top"/>
    </contour>
    <contour>
      <point x="429" y="660" type="move" name="topright"/>
    </contour>
    <contour>
      <point x="259" y="0" type="move" name="bottom"/>
    </contour>
  </outline>
</glyph>
<glyph name="M" format="1">
  <advance width="938"/>
  <unicode hex="004D"/>
  <outline>
    <contour>
      <point x="564" y="660" type="line"/>
      <point x="468" y="347" type="line"/>
      <point x="372" y="660" type="line"/>
      <point x="45" y="660" type="line"/>
      <point x="45" y="0" type="line"/>
      <point x="168" y="0" type="line"/>
      <point x="168" y="490" type="line"/>
      <point x="331" y="0" type="line"/>
      <point x="467" y="0" type="line"/>
      <point x="630" y="491" type="line"/>
      <point x="630" y="0" type="line"/>
      <point x="894" y="0" type="line"/>
      <point x="894" y="660" type="line"/>
    </contour>
  </outline>
</glyph>
<glyph name="N" format="1">
  <advance width="720"/>
  <unicode hex="004E"/>
  <outline>
    <contour>
      <point x="675" y="0" type="line"/>
      <point x="675" y="660" type="line"/>
      <point x="552" y="660" type="line"/>
      <point x="552" y="153" type="line"/>
      <point x="378" y="660" type="line"/>
      <point x="45" y="660" type="line"/>
      <point x="45" y="0" type="line"/>
      <point x="168" y="0" type="line"/>
      <point x="168" y="507" type="line"/>
      <point x="341" y="0" type="line"/>
    </contour>
    <contour>
      <point x="360" y="660" type="move" name="top"/>
    </contour>
    <contour>
      <point x="361" y="0" type="move" name="bottom"/>
    </contour>
    <contour>
      <point x="361" y="700" type="move" name="topcase"/>
    </contour>
  </outline>
</glyph>
<glyph name="O" format="1">
  <advance width="716"/>
  <unicode hex="004F"/>
  <outline>
    <contour>
      <point x="131" y="680"/>
      <point x="12" y="552"/>
      <point x="12" y="325" type="curve" smooth="yes"/>
      <point x="12" y="117"/>
      <point x="148" y="-22"/>
      <point x="358" y="-22" type="curve" smooth="yes"/>
      <point x="577" y="-22"/>
      <point x="703" y="120"/>
      <point x="703" y="339" type="curve" smooth="yes"/>
      <point x="703" y="565"/>
      <point x="584" y="680"/>
      <point x="358" y="680" type="curve" smooth="yes"/>
    </contour>
    <contour>
      <point x="299" y="54"/>
      <point x="296" y="224"/>
      <point x="296" y="334" type="curve" smooth="yes"/>
      <point x="296" y="445"/>
      <point x="297" y="604"/>
      <point x="358" y="604" type="curve" smooth="yes"/>
      <point x="419" y="604"/>
      <point x="419" y="445"/>
      <point x="419" y="334" type="curve" smooth="yes"/>
      <point x="419" y="224"/>
      <point x="417" y="54"/>
      <point x="358" y="54" type="curve" smooth="yes"/>
    </contour>
    <contour>
      <point x="358" y="700" type="move" name="topcase"/>
    </contour>
    <contour>
      <point x="493" y="0" type="move" name="ogonek"/>
    </contour>
    <contour>
      <point x="358" y="660" type="move" name="top"/>
    </contour>
    <contour>
      <point x="358" y="0" type="move" name="bottom"/>
    </contour>
  </outline>
</glyph>
<glyph name="P" format="1">
  <advance width="680"/>
  <unicode hex="0050"/>
  <outline>
    <contour>
      <point x="664" y="631"/>
      <point x="506" y="666"/>
      <point x="335" y="666" type="curve" smooth="yes"/>
      <point x="236" y="666"/>
      <point x="151" y="660"/>
      <point x="45" y="648" type="curve"/>
      <point x="45" y="0" type="line"/>
      <point x="309" y="0" type="line"/>
      <point x="309" y="583" type="line"/>
      <point x="318" y="587"/>
      <point x="329" y="589"/>
      <point x="339" y="589" type="curve" smooth="yes"/>
      <point x="403" y="589"/>
      <point x="408" y="522"/>
      <point x="408" y="458" type="curve" smooth="yes"/>
      <point x="408" y="387"/>
      <point x="401" y="343"/>
      <point x="330" y="343" type="curve"/>
      <point x="330" y="275"/>
      <point x="386" y="254"/>
      <point x="455" y="254" type="curve" smooth="yes"/>
      <point x="579" y="254"/>
      <point x="664" y="336"/>
      <point x="664" y="460" type="curve" smooth="yes"/>
    </contour>
  </outline>
</glyph>
<glyph name="Q" format="1">
  <advance width="716"/>
  <unicode hex="0051"/>
  <outline>
    <contour>
      <point x="131" y="680"/>
      <point x="12" y="552"/>
      <point x="12" y="325" type="curve" smooth="yes"/>
      <point x="12" y="174"/>
      <point x="89" y="61"/>
      <point x="205" y="7" type="curve"/>
      <point x="139" y="5"/>
      <point x="84" y="-3"/>
      <point x="84" y="-69" type="curve" smooth="yes"/>
      <point x="84" y="-91"/>
      <point x="93" y="-112"/>
      <point x="109" y="-129" type="curve"/>
      <point x="135" y="-116"/>
      <point x="173" y="-115"/>
      <point x="202" y="-115" type="curve" smooth="yes"/>
      <point x="336" y="-115"/>
      <point x="457" y="-213"/>
      <point x="581" y="-213" type="curve" smooth="yes"/>
      <point x="641" y="-213"/>
      <point x="686" y="-186"/>
      <point x="686" y="-110" type="curve" smooth="yes"/>
      <point x="686" y="-72"/>
      <point x="673" y="-46"/>
      <point x="657" y="-15" type="curve"/>
      <point x="624" y="-48"/>
      <point x="590" y="-53"/>
      <point x="551" y="-53" type="curve" smooth="yes"/>
      <point x="494" y="-53"/>
      <point x="421" y="-38"/>
      <point x="359" y="-22" type="curve"/>
      <point x="521" y="-19"/>
      <point x="703" y="122"/>
      <point x="703" y="339" type="curve" smooth="yes"/>
      <point x="703" y="565"/>
      <point x="584" y="680"/>
      <point x="358" y="680" type="curve" smooth="yes"/>
    </contour>
    <contour>
      <point x="419" y="604"/>
      <point x="419" y="445"/>
      <point x="419" y="334" type="curve" smooth="yes"/>
      <point x="419" y="224"/>
      <point x="417" y="54"/>
      <point x="358" y="54" type="curve" smooth="yes"/>
      <point x="299" y="54"/>
      <point x="296" y="224"/>
      <point x="296" y="334" type="curve" smooth="yes"/>
      <point x="296" y="445"/>
      <point x="297" y="604"/>
      <point x="358" y="604" type="curve" smooth="yes"/>
    </contour>
  </outline>
</glyph>
<glyph name="R" format="1">
  <advance width="669"/>
  <unicode hex="0052"/>
  <outline>
    <contour>
      <point x="649" y="635"/>
      <point x="510" y="666"/>
      <point x="335" y="666" type="curve" smooth="yes"/>
      <point x="236" y="666"/>
      <point x="151" y="660"/>
      <point x="45" y="648" type="curve"/>
      <point x="45" y="0" type="line"/>
      <point x="309" y="0" type="line"/>
      <point x="309" y="583" type="line"/>
      <point x="318" y="587"/>
      <point x="329" y="589"/>
      <point x="339" y="589" type="curve" smooth="yes"/>
      <point x="395" y="589"/>
      <point x="393" y="515"/>
      <point x="393" y="455" type="curve" smooth="yes"/>
      <point x="393" y="390"/>
      <point x="393" y="338"/>
      <point x="330" y="338" type="curve"/>
      <point x="330" y="320"/>
      <point x="335" y="305"/>
      <point x="340" y="288" type="curve" smooth="yes"/>
      <point x="425" y="0" type="line"/>
      <point x="691" y="0" type="line"/>
      <point x="540" y="269" type="line"/>
      <point x="608" y="302"/>
      <point x="649" y="368"/>
      <point x="649" y="457" type="curve" smooth="yes"/>
    </contour>
    <contour>
      <point x="337" y="660" type="move" name="top"/>
    </contour>
    <contour>
      <point x="363" y="0" type="move" name="bottom"/>
    </contour>
    <contour>
      <point x="335" y="700" type="move" name="topcase"/>
    </contour>
  </outline>
</glyph>
<glyph name="S" format="1">
  <advance width="597"/>
  <unicode hex="0053"/>
  <outline>
    <contour>
      <point x="176" y="680"/>
      <point x="21" y="607"/>
      <point x="21" y="460" type="curve" smooth="yes"/>
      <point x="21" y="227"/>
      <point x="354" y="295"/>
      <point x="354" y="124" type="curve" smooth="yes"/>
      <point x="354" y="80"/>
      <point x="328" y="56"/>
      <point x="283" y="56" type="curve" smooth="yes"/>
      <point x="218" y="56"/>
      <point x="207" y="112"/>
      <point x="207" y="178" type="curve" smooth="yes"/>
      <point x="207" y="201"/>
      <point x="209" y="212"/>
      <point x="212" y="235" type="curve"/>
      <point x="195" y="236"/>
      <point x="174" y="237"/>
      <point x="160" y="237" type="curve" smooth="yes"/>
      <point x="81" y="237"/>
      <point x="11" y="193"/>
      <point x="11" y="107" type="curve" smooth="yes"/>
      <point x="11" y="0"/>
      <point x="159" y="-22"/>
      <point x="266" y="-22" type="curve" smooth="yes"/>
      <point x="437" y="-22"/>
      <point x="583" y="34"/>
      <point x="583" y="205" type="curve" smooth="yes"/>
      <point x="583" y="438"/>
      <point x="250" y="370"/>
      <point x="250" y="541" type="curve" smooth="yes"/>
      <point x="250" y="576"/>
      <point x="271" y="602"/>
      <point x="306" y="602" type="curve" smooth="yes"/>
      <point x="352" y="602"/>
      <point x="367" y="567"/>
      <point x="367" y="523" type="curve" smooth="yes"/>
      <point x="367" y="497"/>
      <point x="365" y="476"/>
      <point x="362" y="450" type="curve"/>
      <point x="380" y="449"/>
      <point x="400" y="448"/>
      <point x="414" y="448" type="curve" smooth="yes"/>
      <point x="493" y="448"/>
      <point x="563" y="477"/>
      <point x="563" y="563" type="curve" smooth="yes"/>
      <point x="563" y="656"/>
      <point x="416" y="680"/>
      <point x="323" y="680" type="curve" smooth="yes"/>
    </contour>
    <contour>
      <point x="304" y="660" type="move" name="top"/>
    </contour>
    <contour>
      <point x="261" y="0" type="move" name="bottom"/>
    </contour>
    <contour>
      <point x="306" y="701" type="move" name="topcase"/>
    </contour>
  </outline>
</glyph>
<glyph name="T" format="1">
  <advance width="560"/>
  <unicode hex="0054"/>
  <outline>
    <contour>
      <point x="19" y="660" type="line"/>
      <point x="19" y="571" type="line"/>
      <point x="148" y="571" type="line"/>
      <point x="148" y="0" type="line"/>
      <point x="412" y="0" type="line"/>
      <point x="412" y="571" type="line"/>
      <point x="534" y="571" type="line"/>
      <point x="542" y="660" type="line"/>
    </contour>
    <contour>
      <point x="280" y="0" type="move" name="bottom"/>
    </contour>
    <contour>
      <point x="280" y="700" type="move" name="topcase"/>
    </contour>
    <contour>
      <point x="279" y="660" type="move" name="top"/>
    </contour>
    <contour>
      <point x="285" y="330" type="move" name="center"/>
    </contour>
  </outline>
</glyph>
<glyph name="U" format="1">
  <advance width="643"/>
  <unicode hex="0055"/>
  <outline>
    <contour>
      <point x="608" y="660" type="line"/>
      <point x="431" y="660" type="line"/>
      <point x="431" y="263" type="line" smooth="yes"/>
      <point x="431" y="114"/>
      <point x="416" y="70"/>
      <point x="364" y="70" type="curve" smooth="yes"/>
      <point x="312" y="70"/>
      <point x="299" y="118"/>
      <point x="299" y="252" type="curve" smooth="yes"/>
      <point x="299" y="660" type="line"/>
      <point x="35" y="660" type="line"/>
      <point x="35" y="241" type="line" smooth="yes"/>
      <point x="35" y="51"/>
      <point x="145" y="-22"/>
      <point x="336" y="-22" type="curve" smooth="yes"/>
      <point x="533" y="-22"/>
      <point x="608" y="79"/>
      <point x="608" y="274" type="curve" smooth="yes"/>
    </contour>
    <contour>
      <point x="324" y="700" type="move" name="topcase"/>
    </contour>
    <contour>
      <point x="489" y="10" type="move" name="ogonek"/>
    </contour>
    <contour>
      <point x="325" y="660" type="move" name="top"/>
    </contour>
    <contour>
      <point x="358" y="0" type="move" name="bottom"/>
    </contour>
  </outline>
</glyph>
<glyph name="V" format="1">
  <advance width="638"/>
  <unicode hex="0056"/>
  <outline>
    <contour>
      <point x="475" y="660" type="line"/>
      <point x="379" y="146" type="line"/>
      <point x="278" y="660" type="line"/>
      <point x="7" y="660" type="line"/>
      <point x="161" y="0" type="line"/>
      <point x="470" y="0" type="line"/>
      <point x="657" y="660" type="line"/>
    </contour>
  </outline>
</glyph>
<glyph name="W" format="1">
  <advance width="1052"/>
  <unicode hex="0057"/>
  <outline>
    <contour>
      <point x="888" y="660" type="line"/>
      <point x="785" y="146" type="line"/>
      <point x="677" y="660" type="line"/>
      <point x="490" y="660" type="line"/>
      <point x="386" y="146" type="line"/>
      <point x="278" y="660" type="line"/>
      <point x="7" y="660" type="line"/>
      <point x="169" y="0" type="line"/>
      <point x="478" y="0" type="line"/>
      <point x="519" y="254" type="line"/>
      <point x="567" y="0" type="line"/>
      <point x="876" y="0" type="line"/>
      <point x="1071" y="660" type="line"/>
    </contour>
    <contour>
      <point x="552" y="660" type="move" name="top"/>
    </contour>
    <contour>
      <point x="553" y="700" type="move" name="topcase"/>
    </contour>
  </outline>
</glyph>
<glyph name="X" format="1">
  <advance width="536"/>
  <unicode hex="0058"/>
  <outline>
    <contour>
      <point x="385" y="660" type="line"/>
      <point x="335" y="459" type="line"/>
      <point x="258" y="660" type="line"/>
      <point x="-8" y="660" type="line"/>
      <point x="134" y="342" type="line"/>
      <point x="-22" y="0" type="line"/>
      <point x="155" y="0" type="line"/>
      <point x="207" y="211" type="line"/>
      <point x="291" y="0" type="line"/>
      <point x="557" y="0" type="line"/>
      <point x="408" y="332" type="line"/>
      <point x="562" y="660" type="line"/>
    </contour>
  </outline>
</glyph>
<glyph name="Y" format="1">
  <advance width="579"/>
  <unicode hex="0059"/>
  <outline>
    <contour>
      <point x="567" y="660" type="line"/>
      <point x="390" y="660" type="line"/>
      <point x="340" y="404" type="line"/>
      <point x="267" y="660" type="line"/>
      <point x="1" y="660" type="line"/>
      <point x="147" y="288" type="line"/>
      <point x="147" y="0" type="line"/>
      <point x="411" y="0" type="line"/>
      <point x="411" y="296" type="line"/>
    </contour>
    <contour>
      <point x="279" y="660" type="move" name="top"/>
    </contour>
    <contour>
      <point x="280" y="700" type="move" name="topcase"/>
    </contour>
  </outline>
</glyph>
<glyph name="Z" format="1">
  <advance width="510"/>
  <unicode hex="005A"/>
  <outline>
    <contour>
      <point x="26" y="660" type="line"/>
      <point x="30" y="561" type="line"/>
      <point x="220" y="561" type="line"/>
      <point x="9" y="78" type="line"/>
      <point x="16" y="0" type="line"/>
      <point x="505" y="0" type="line"/>
      <point x="517" y="99" type="line"/>
      <point x="291" y="99" type="line"/>
      <point x="503" y="582" type="line"/>
      <point x="496" y="660" type="line"/>
    </contour>
    <contour>
      <point x="254" y="660" type="move" name="top"/>
    </contour>
    <contour>
      <point x="256" y="0" type="move" name="bottom"/>
    </contour>
    <contour>
      <point x="254" y="699" type="move" name="topcase"/>
    </contour>
  </outline>
</glyph>
<glyph name="bracketleft" format="1">
  <advance width="360"/>
  <unicode hex="005B"/>
  <outline>
    <contour>
      <point x="75" y="792" type="line"/>
      <point x="75" y="-190" type="line"/>
      <point x="343" y="-190" type="line"/>
      <point x="347" y="-182"/>
      <point x="350" y="-172"/>
      <point x="350" y="-160" type="curve" smooth="yes"/>
      <point x="350" y="-136"/>
      <point x="335" y="-122"/>
      <point x="309" y="-122" type="curve" smooth="yes"/>
      <point x="246" y="-122" type="line"/>
      <point x="246" y="724" type="line"/>
      <point x="309" y="724" type="line" smooth="yes"/>
      <point x="335" y="724"/>
      <point x="350" y="738"/>
      <point x="350" y="762" type="curve" smooth="yes"/>
      <point x="350" y="774"/>
      <point x="347" y="784"/>
      <point x="343" y="792" type="curve"/>
    </contour>
  </outline>
</glyph>
<glyph name="backslash" format="1">
  <advance width="346"/>
  <unicode hex="005C"/>
  <outline>
    <contour>
      <point x="62" y="803"/>
      <point x="21" y="780"/>
      <point x="21" y="725" type="curve" smooth="yes"/>
      <point x="21" y="707"/>
      <point x="23" y="694"/>
      <point x="27" y="674" type="curve" smooth="yes"/>
      <point x="183" y="-198" type="line"/>
      <point x="198" y="-200"/>
      <point x="210" y="-200"/>
      <point x="225" y="-200" type="curve" smooth="yes"/>
      <point x="285" y="-200"/>
      <point x="326" y="-178"/>
      <point x="326" y="-124" type="curve" smooth="yes"/>
      <point x="326" y="-104"/>
      <point x="324" y="-91"/>
      <point x="320" y="-72" type="curve" smooth="yes"/>
      <point x="163" y="800" type="line"/>
      <point x="148" y="802"/>
      <point x="136" y="803"/>
      <point x="122" y="803" type="curve" smooth="yes"/>
    </contour>
  </outline>
</glyph>
<glyph name="bracketright" format="1">
  <advance width="360"/>
  <unicode hex="005D"/>
  <outline>
    <contour>
      <point x="284" y="792" type="line"/>
      <point x="17" y="792" type="line"/>
      <point x="13" y="784"/>
      <point x="9" y="774"/>
      <point x="9" y="762" type="curve" smooth="yes"/>
      <point x="9" y="738"/>
      <point x="25" y="724"/>
      <point x="50" y="724" type="curve" smooth="yes"/>
      <point x="113" y="724" type="line"/>
      <point x="113" y="-122" type="line"/>
      <point x="50" y="-122" type="line" smooth="yes"/>
      <point x="25" y="-122"/>
      <point x="9" y="-136"/>
      <point x="9" y="-160" type="curve" smooth="yes"/>
      <point x="9" y="-172"/>
      <point x="13" y="-182"/>
      <point x="17" y="-190" type="curve"/>
      <point x="284" y="-190" type="line"/>
    </contour>
  </outline>
</glyph>
<glyph name="asciicircum" format="1">
  <advance width="559"/>
  <unicode hex="005E"/>
  <outline>
    <contour>
      <point x="212" y="660" type="line"/>
      <point x="175" y="513"/>
      <point x="107" y="376"/>
      <point x="7" y="319" type="curve"/>
      <point x="17" y="287"/>
      <point x="38" y="267"/>
      <point x="73" y="267" type="curve" smooth="yes"/>
      <point x="130" y="267"/>
      <point x="184" y="340"/>
      <point x="252" y="528" type="curve"/>
      <point x="305" y="340"/>
      <point x="358" y="267"/>
      <point x="455" y="267" type="curve" smooth="yes"/>
      <point x="498" y="267"/>
      <point x="537" y="279"/>
      <point x="552" y="319" type="curve"/>
      <point x="464" y="386"/>
      <point x="405" y="492"/>
      <point x="368" y="660" type="curve"/>
    </contour>
  </outline>
</glyph>
<glyph name="underscore" format="1">
  <advance width="506"/>
  <unicode hex="005F"/>
  <outline>
    <contour>
      <point x="414" y="-145" type="line" smooth="yes"/>
      <point x="467" y="-145"/>
      <point x="499" y="-117"/>
      <point x="499" y="-64" type="curve" smooth="yes"/>
      <point x="499" y="-60"/>
      <point x="499" y="-45"/>
      <point x="496" y="-35" type="curve"/>
      <point x="91" y="-35" type="line" smooth="yes"/>
      <point x="39" y="-35"/>
      <point x="7" y="-63"/>
      <point x="7" y="-116" type="curve" smooth="yes"/>
      <point x="7" y="-121"/>
      <point x="7" y="-135"/>
      <point x="8" y="-145" type="curve"/>
    </contour>
  </outline>
</glyph>
<glyph name="grave" format="1">
  <advance width="323"/>
  <unicode hex="0060"/>
  <outline>
    <contour>
      <point x="313" y="629" type="line"/>
      <point x="68" y="777" type="line"/>
      <point x="39" y="761"/>
      <point x="10" y="726"/>
      <point x="10" y="694" type="curve" smooth="yes"/>
      <point x="10" y="636"/>
      <point x="75" y="625"/>
      <point x="136" y="610" type="curve" smooth="yes"/>
      <point x="292" y="575" type="line"/>
    </contour>
    <contour>
      <point x="198" y="510" type="move" name="_top"/>
    </contour>
  </outline>
</glyph>
<glyph name="a" format="1">
  <advance width="622"/>
  <unicode hex="0061"/>
  <outline>
    <contour>
      <point x="385" y="2"/>
      <point x="435" y="-15"/>
      <point x="506" y="-15" type="curve" smooth="yes"/>
      <point x="535" y="-15"/>
      <point x="589" y="-8"/>
      <point x="615" y="10" type="curve"/>
      <point x="591" y="51"/>
      <point x="584" y="90"/>
      <point x="584" y="134" type="curve" smooth="yes"/>
      <point x="584" y="342" type="line" smooth="yes"/>
      <point x="584" y="497"/>
      <point x="458" y="530"/>
      <point x="303" y="530" type="curve" smooth="yes"/>
      <point x="218" y="530"/>
      <point x="41" y="515"/>
      <point x="41" y="398" type="curve" smooth="yes"/>
      <point x="41" y="334"/>
      <point x="108" y="309"/>
      <point x="172" y="309" type="curve" smooth="yes"/>
      <point x="185" y="309"/>
      <point x="220" y="311"/>
      <point x="232" y="317" type="curve"/>
      <point x="231" y="334"/>
      <point x="230" y="353"/>
      <point x="230" y="370" type="curve" smooth="yes"/>
      <point x="230" y="426"/>
      <point x="240" y="471"/>
      <point x="296" y="471" type="curve" smooth="yes"/>
      <point x="340" y="471"/>
      <point x="344" y="423"/>
      <point x="344" y="378" type="curve" smooth="yes"/>
      <point x="344" y="291" type="line"/>
      <point x="196" y="291"/>
      <point x="5" y="277"/>
      <point x="5" y="129" type="curve" smooth="yes"/>
      <point x="5" y="16"/>
      <point x="116" y="-22"/>
      <point x="228" y="-22" type="curve" smooth="yes"/>
      <point x="283" y="-22"/>
      <point x="338" y="-6"/>
      <point x="359" y="44" type="curve"/>
    </contour>
    <contour>
      <point x="251" y="51"/>
      <point x="239" y="92"/>
      <point x="239" y="133" type="curve" smooth="yes"/>
      <point x="239" y="209"/>
      <point x="268" y="241"/>
      <point x="344" y="241" type="curve"/>
      <point x="344" y="148" type="line" smooth="yes"/>
      <point x="344" y="105"/>
      <point x="335" y="51"/>
      <point x="292" y="51" type="curve" smooth="yes"/>
    </contour>
    <contour>
      <point x="620" y="13" type="move" name="ogonek"/>
    </contour>
    <contour>
      <point x="322" y="0" type="move" name="bottom"/>
    </contour>
    <contour>
      <point x="314" y="499" type="move" name="top"/>
    </contour>
  </outline>
</glyph>
<glyph name="b" format="1">
  <advance width="640"/>
  <unicode hex="0062"/>
  <outline>
    <contour>
      <point x="45" y="700" type="line"/>
      <point x="45" y="36" type="line"/>
      <point x="117" y="1"/>
      <point x="229" y="-22"/>
      <point x="307" y="-22" type="curve" smooth="yes"/>
      <point x="499" y="-22"/>
      <point x="614" y="69"/>
      <point x="614" y="262" type="curve" smooth="yes"/>
      <point x="614" y="414"/>
      <point x="567" y="530"/>
      <point x="415" y="530" type="curve" smooth="yes"/>
      <point x="363" y="530"/>
      <point x="314" y="524"/>
      <point x="277" y="485" type="curve"/>
      <point x="285" y="517"/>
      <point x="285" y="584"/>
      <point x="285" y="601" type="curve" smooth="yes"/>
      <point x="285" y="724" type="line"/>
    </contour>
    <contour>
      <point x="285" y="350" type="line" smooth="yes"/>
      <point x="285" y="393"/>
      <point x="279" y="455"/>
      <point x="323" y="455" type="curve" smooth="yes"/>
      <point x="374" y="455"/>
      <point x="374" y="350"/>
      <point x="374" y="257" type="curve" smooth="yes"/>
      <point x="374" y="160"/>
      <point x="373" y="38"/>
      <point x="315" y="38" type="curve" smooth="yes"/>
      <point x="305" y="38"/>
      <point x="293" y="41"/>
      <point x="285" y="50" type="curve"/>
    </contour>
  </outline>
</glyph>
<glyph name="c" format="1">
  <advance width="536"/>
  <unicode hex="0063"/>
  <outline>
    <contour>
      <point x="356" y="469"/>
      <point x="354" y="411"/>
      <point x="354" y="370" type="curve" smooth="yes"/>
      <point x="354" y="353"/>
      <point x="353" y="333"/>
      <point x="352" y="317" type="curve"/>
      <point x="364" y="310"/>
      <point x="399" y="309"/>
      <point x="412" y="309" type="curve" smooth="yes"/>
      <point x="476" y="309"/>
      <point x="543" y="334"/>
      <point x="543" y="398" type="curve" smooth="yes"/>
      <point x="543" y="504"/>
      <point x="434" y="530"/>
      <point x="328" y="530" type="curve" smooth="yes"/>
      <point x="144" y="530"/>
      <point x="26" y="452"/>
      <point x="26" y="268" type="curve" smooth="yes"/>
      <point x="26" y="82"/>
      <point x="138" y="-22"/>
      <point x="324" y="-22" type="curve" smooth="yes"/>
      <point x="432" y="-22"/>
      <point x="529" y="25"/>
      <point x="529" y="133" type="curve" smooth="yes"/>
      <point x="529" y="159"/>
      <point x="514" y="189"/>
      <point x="488" y="193" type="curve"/>
      <point x="463" y="148"/>
      <point x="429" y="122"/>
      <point x="379" y="122" type="curve" smooth="yes"/>
      <point x="290" y="122"/>
      <point x="269" y="182"/>
      <point x="269" y="270" type="curve" smooth="yes"/>
      <point x="269" y="346"/>
      <point x="272" y="469"/>
      <point x="315" y="469" type="curve" smooth="yes"/>
    </contour>
    <contour>
      <point x="313" y="499" type="move" name="top"/>
    </contour>
    <contour>
      <point x="324" y="0" type="move" name="bottom"/>
    </contour>
  </outline>
</glyph>
<glyph name="d" format="1">
  <advance width="639"/>
  <unicode hex="0064"/>
  <outline>
    <contour>
      <point x="595" y="724" type="line"/>
      <point x="355" y="700" type="line"/>
      <point x="355" y="530" type="line"/>
      <point x="347" y="530"/>
      <point x="329" y="530"/>
      <point x="323" y="530" type="curve" smooth="yes"/>
      <point x="135" y="530"/>
      <point x="26" y="446"/>
      <point x="26" y="258" type="curve" smooth="yes"/>
      <point x="26" y="108"/>
      <point x="74" y="-22"/>
      <point x="223" y="-22" type="curve" smooth="yes"/>
      <point x="285" y="-22"/>
      <point x="333" y="-6"/>
      <point x="369" y="44" type="curve"/>
      <point x="396" y="2"/>
      <point x="446" y="-15"/>
      <point x="516" y="-15" type="curve" smooth="yes"/>
      <point x="546" y="-15"/>
      <point x="600" y="-8"/>
      <point x="626" y="10" type="curve"/>
      <point x="602" y="51"/>
      <point x="595" y="90"/>
      <point x="595" y="134" type="curve" smooth="yes"/>
    </contour>
    <contour>
      <point x="355" y="156" type="line" smooth="yes"/>
      <point x="355" y="117"/>
      <point x="351" y="59"/>
      <point x="312" y="59" type="curve" smooth="yes"/>
      <point x="264" y="59"/>
      <point x="267" y="173"/>
      <point x="267" y="263" type="curve" smooth="yes"/>
      <point x="267" y="355"/>
      <point x="272" y="470"/>
      <point x="326" y="470" type="curve" smooth="yes"/>
      <point x="335" y="470"/>
      <point x="347" y="467"/>
      <point x="355" y="459" type="curve"/>
    </contour>
    <contour>
      <point x="321" y="250" type="move" name="center"/>
    </contour>
    <contour>
      <point x="338" y="0" type="move" name="bottom"/>
    </contour>
  </outline>
</glyph>
<glyph name="e" format="1">
  <advance width="580"/>
  <unicode hex="0065"/>
  <outline>
    <contour>
      <point x="150" y="530"/>
      <point x="26" y="458"/>
      <point x="26" y="268" type="curve" smooth="yes"/>
      <point x="26" y="82"/>
      <point x="138" y="-22"/>
      <point x="324" y="-22" type="curve" smooth="yes"/>
      <point x="429" y="-22"/>
      <point x="549" y="19"/>
      <point x="549" y="124" type="curve" smooth="yes"/>
      <point x="549" y="148"/>
      <point x="540" y="175"/>
      <point x="518" y="186" type="curve"/>
      <point x="491" y="139"/>
      <point x="432" y="122"/>
      <point x="379" y="122" type="curve" smooth="yes"/>
      <point x="303" y="122"/>
      <point x="276" y="163"/>
      <point x="270" y="233" type="curve"/>
      <point x="282" y="230"/>
      <point x="309" y="229"/>
      <point x="319" y="229" type="curve" smooth="yes"/>
      <point x="454" y="229"/>
      <point x="573" y="251"/>
      <point x="573" y="386" type="curve" smooth="yes"/>
      <point x="573" y="496"/>
      <point x="450" y="530"/>
      <point x="340" y="530" type="curve" smooth="yes"/>
    </contour>
    <contour>
      <point x="363" y="468"/>
      <point x="370" y="425"/>
      <point x="370" y="389" type="curve" smooth="yes"/>
      <point x="370" y="300"/>
      <point x="330" y="274"/>
      <point x="240" y="276" type="curve" smooth="yes"/>
      <point x="231" y="276"/>
      <point x="225" y="276"/>
      <point x="214" y="275" type="curve"/>
      <point x="269" y="249" type="line"/>
      <point x="270" y="271"/>
      <point x="258" y="468"/>
      <point x="327" y="468" type="curve" smooth="yes"/>
    </contour>
    <contour>
      <point x="471" y="10" type="move" name="ogonek"/>
    </contour>
    <contour>
      <point x="326" y="0" type="move" name="bottom"/>
    </contour>
    <contour>
      <point x="328" y="499" type="move" name="top"/>
    </contour>
  </outline>
</glyph>
<glyph name="f" format="1">
  <advance width="381"/>
  <unicode hex="0066"/>
  <outline>
    <contour>
      <point x="304" y="465" type="line"/>
      <point x="382" y="465" type="line"/>
      <point x="382" y="510" type="line"/>
      <point x="304" y="510" type="line"/>
      <point x="304" y="570" type="line" smooth="yes"/>
      <point x="304" y="613"/>
      <point x="303" y="671"/>
      <point x="346" y="671" type="curve" smooth="yes"/>
      <point x="373" y="671"/>
      <point x="380" y="641"/>
      <point x="380" y="613" type="curve" smooth="yes"/>
      <point x="380" y="604"/>
      <point x="379" y="569"/>
      <point x="378" y="561" type="curve"/>
      <point x="390" y="554"/>
      <point x="425" y="553"/>
      <point x="438" y="553" type="curve" smooth="yes"/>
      <point x="495" y="553"/>
      <point x="569" y="570"/>
      <point x="569" y="626" type="curve" smooth="yes"/>
      <point x="569" y="709"/>
      <point x="437" y="720"/>
      <point x="353" y="720" type="curve" smooth="yes"/>
      <point x="216" y="720"/>
      <point x="76" y="694"/>
      <point x="67" y="556" type="curve" smooth="yes"/>
      <point x="64" y="510" type="line"/>
      <point x="-1" y="510" type="line"/>
      <point x="-1" y="465" type="line"/>
      <point x="64" y="465" type="line"/>
      <point x="64" y="-17" type="line"/>
      <point x="304" y="0" type="line"/>
    </contour>
  </outline>
</glyph>
<glyph name="g" format="1">
  <advance width="637"/>
  <unicode hex="0067"/>
  <outline>
    <contour>
      <point x="249" y="-144"/>
      <point x="242" y="-92"/>
      <point x="242" y="-43" type="curve" smooth="yes"/>
      <point x="242" y="-26"/>
      <point x="244" y="-7"/>
      <point x="244" y="10" type="curve"/>
      <point x="233" y="16"/>
      <point x="198" y="18"/>
      <point x="184" y="18" type="curve" smooth="yes"/>
      <point x="120" y="18"/>
      <point x="54" y="-7"/>
      <point x="54" y="-71" type="curve" smooth="yes"/>
      <point x="54" y="-164"/>
      <point x="199" y="-200"/>
      <point x="292" y="-200" type="curve" smooth="yes"/>
      <point x="515" y="-200"/>
      <point x="589" y="-122"/>
      <point x="589" y="101" type="curve" smooth="yes"/>
      <point x="589" y="534" type="line"/>
      <point x="434" y="509" type="line"/>
      <point x="393" y="525"/>
      <point x="345" y="530"/>
      <point x="302" y="530" type="curve" smooth="yes"/>
      <point x="132" y="530"/>
      <point x="24" y="456"/>
      <point x="24" y="286" type="curve" smooth="yes"/>
      <point x="24" y="155"/>
      <point x="81" y="65"/>
      <point x="213" y="65" type="curve" smooth="yes"/>
      <point x="272" y="65"/>
      <point x="325" y="77"/>
      <point x="361" y="115" type="curve"/>
      <point x="361" y="77" type="line" smooth="yes"/>
      <point x="361" y="-62"/>
      <point x="360" y="-144"/>
      <point x="298" y="-144" type="curve" smooth="yes"/>
    </contour>
    <contour>
      <point x="349" y="249" type="line" smooth="yes"/>
      <point x="349" y="208"/>
      <point x="348" y="146"/>
      <point x="306" y="146" type="curve" smooth="yes"/>
      <point x="263" y="146"/>
      <point x="266" y="243"/>
      <point x="266" y="293" type="curve" smooth="yes"/>
      <point x="266" y="361"/>
      <point x="258" y="470"/>
      <point x="320" y="470" type="curve" smooth="yes"/>
      <point x="330" y="470"/>
      <point x="341" y="471"/>
      <point x="349" y="466" type="curve"/>
    </contour>
    <contour>
      <point x="317" y="499" type="move" name="top"/>
    </contour>
  </outline>
</glyph>
<glyph name="h" format="1">
  <advance width="636"/>
  <unicode hex="0068"/>
  <outline>
    <contour>
      <point x="45" y="700" type="line"/>
      <point x="45" y="0" type="line"/>
      <point x="285" y="0" type="line"/>
      <point x="285" y="351" type="line" smooth="yes"/>
      <point x="285" y="393"/>
      <point x="279" y="455"/>
      <point x="321" y="455" type="curve" smooth="yes"/>
      <point x="361" y="455"/>
      <point x="358" y="387"/>
      <point x="358" y="346" type="curve" smooth="yes"/>
      <point x="358" y="131" type="line" smooth="yes"/>
      <point x="358" y="29"/>
      <point x="421" y="-15"/>
      <point x="522" y="-15" type="curve" smooth="yes"/>
      <point x="551" y="-15"/>
      <point x="603" y="-8"/>
      <point x="629" y="10" type="curve"/>
      <point x="605" y="51"/>
      <point x="598" y="90"/>
      <point x="598" y="134" type="curve" smooth="yes"/>
      <point x="598" y="342" type="line" smooth="yes"/>
      <point x="598" y="468"/>
      <point x="540" y="530"/>
      <point x="414" y="530" type="curve" smooth="yes"/>
      <point x="366" y="530"/>
      <point x="313" y="522"/>
      <point x="277" y="485" type="curve"/>
      <point x="285" y="517"/>
      <point x="285" y="584"/>
      <point x="285" y="601" type="curve" smooth="yes"/>
      <point x="285" y="724" type="line"/>
    </contour>
    <contour>
      <point x="317" y="250" type="move" name="center"/>
    </contour>
    <contour>
      <point x="315" y="0" type="move" name="bottom"/>
    </contour>
    <contour>
      <point x="178" y="660" type="move" name="top"/>
    </contour>
  </outline>
</glyph>
<glyph name="j" format="1">
  <advance width="332"/>
  <unicode hex="006A"/>
  <outline>
    <contour>
      <point x="285" y="510" type="line"/>
      <point x="45" y="510" type="line"/>
      <point x="45" y="29" type="line" smooth="yes"/>
      <point x="45" y="-50"/>
      <point x="51" y="-131"/>
      <point x="-27" y="-147" type="curve"/>
      <point x="0" y="-190"/>
      <point x="62" y="-200"/>
      <point x="111" y="-200" type="curve" smooth="yes"/>
      <point x="251" y="-200"/>
      <point x="285" y="-88"/>
      <point x="285" y="52" type="curve" smooth="yes"/>
    </contour>
    <component base="dotaccent" xOffset="47"/>
  </outline>
</glyph>
<glyph name="k" format="1">
  <advance width="621"/>
  <unicode hex="006B"/>
  <outline>
    <contour>
      <point x="285" y="0" type="line"/>
      <point x="285" y="724" type="line"/>
      <point x="45" y="700" type="line"/>
      <point x="45" y="0" type="line"/>
    </contour>
    <contour>
      <point x="299" y="282" type="line"/>
      <point x="375" y="0" type="line"/>
      <point x="629" y="0" type="line"/>
      <point x="499" y="316" type="line"/>
      <point x="621" y="510" type="line"/>
      <point x="428" y="510" type="line"/>
    </contour>
    <contour>
      <point x="326" y="0" type="move" name="bottom"/>
    </contour>
  </outline>
</glyph>
<glyph name="l" format="1">
  <advance width="319"/>
  <unicode hex="006C"/>
  <outline>
    <contour>
      <point x="36" y="131" type="line" smooth="yes"/>
      <point x="36" y="29"/>
      <point x="98" y="-15"/>
      <point x="199" y="-15" type="curve" smooth="yes"/>
      <point x="229" y="-15"/>
      <point x="280" y="-8"/>
      <point x="307" y="10" type="curve"/>
      <point x="283" y="51"/>
      <point x="276" y="90"/>
      <point x="276" y="134" type="curve" smooth="yes"/>
      <point x="276" y="724" type="line"/>
      <point x="36" y="700" type="line"/>
    </contour>
    <contour>
      <point x="155" y="660" type="move" name="top"/>
    </contour>
    <contour>
      <point x="178" y="0" type="move" name="bottom"/>
    </contour>
    <contour>
      <point x="378" y="660" type="move" name="topright"/>
    </contour>
  </outline>
</glyph>
<glyph name="m" format="1">
  <advance width="931"/>
  <unicode hex="006D"/>
  <outline>
    <contour>
      <point x="277" y="0" type="line"/>
      <point x="277" y="351" type="line" smooth="yes"/>
      <point x="277" y="393"/>
      <point x="270" y="455"/>
      <point x="312" y="455" type="curve" smooth="yes"/>
      <point x="353" y="455"/>
      <point x="349" y="387"/>
      <point x="349" y="346" type="curve" smooth="yes"/>
      <point x="349" y="0" type="line"/>
      <point x="589" y="0" type="line"/>
      <point x="589" y="351" type="line" smooth="yes"/>
      <point x="589" y="389"/>
      <point x="585" y="455"/>
      <point x="622" y="455" type="curve" smooth="yes"/>
      <point x="657" y="455"/>
      <point x="653" y="387"/>
      <point x="653" y="346" type="curve" smooth="yes"/>
      <point x="653" y="131" type="line" smooth="yes"/>
      <point x="653" y="29"/>
      <point x="716" y="-15"/>
      <point x="817" y="-15" type="curve" smooth="yes"/>
      <point x="847" y="-15"/>
      <point x="898" y="-8"/>
      <point x="924" y="10" type="curve"/>
      <point x="900" y="51"/>
      <point x="893" y="90"/>
      <point x="893" y="134" type="curve" smooth="yes"/>
      <point x="893" y="342" type="line" smooth="yes"/>
      <point x="893" y="463"/>
      <point x="840" y="530"/>
      <point x="719" y="530" type="curve" smooth="yes"/>
      <point x="657" y="530"/>
      <point x="597" y="514"/>
      <point x="565" y="459" type="curve"/>
      <point x="536" y="505"/>
      <point x="483" y="530"/>
      <point x="409" y="530" type="curve" smooth="yes"/>
      <point x="328" y="530"/>
      <point x="268" y="508"/>
      <point x="239" y="432" type="curve"/>
      <point x="229" y="522" type="line"/>
      <point x="37" y="510" type="line"/>
      <point x="37" y="0" type="line"/>
    </contour>
  </outline>
</glyph>
<glyph name="n" format="1">
  <advance width="627"/>
  <unicode hex="006E"/>
  <outline>
    <contour>
      <point x="277" y="0" type="line"/>
      <point x="277" y="351" type="line" smooth="yes"/>
      <point x="277" y="393"/>
      <point x="270" y="455"/>
      <point x="312" y="455" type="curve" smooth="yes"/>
      <point x="353" y="455"/>
      <point x="349" y="387"/>
      <point x="349" y="346" type="curve" smooth="yes"/>
      <point x="349" y="131" type="line" smooth="yes"/>
      <point x="349" y="29"/>
      <point x="412" y="-15"/>
      <point x="513" y="-15" type="curve" smooth="yes"/>
      <point x="543" y="-15"/>
      <point x="594" y="-8"/>
      <point x="620" y="10" type="curve"/>
      <point x="596" y="51"/>
      <point x="589" y="90"/>
      <point x="589" y="134" type="curve" smooth="yes"/>
      <point x="589" y="342" type="line" smooth="yes"/>
      <point x="589" y="466"/>
      <point x="533" y="530"/>
      <point x="409" y="530" type="curve" smooth="yes"/>
      <point x="328" y="530"/>
      <point x="268" y="508"/>
      <point x="239" y="432" type="curve"/>
      <point x="229" y="522" type="line"/>
      <point x="37" y="510" type="line"/>
      <point x="37" y="0" type="line"/>
    </contour>
    <contour>
      <point x="330" y="499" type="move" name="top"/>
    </contour>
    <contour>
      <point x="330" y="0" type="move" name="bottom"/>
    </contour>
  </outline>
</glyph>
<glyph name="o" format="1">
  <advance width="625"/>
  <unicode hex="006F"/>
  <outline>
    <contour>
      <point x="131" y="530"/>
      <point x="26" y="433"/>
      <point x="26" y="252" type="curve" smooth="yes"/>
      <point x="26" y="86"/>
      <point x="146" y="-22"/>
      <point x="313" y="-22" type="curve" smooth="yes"/>
      <point x="485" y="-22"/>
      <point x="599" y="89"/>
      <point x="599" y="262" type="curve" smooth="yes"/>
      <point x="599" y="443"/>
      <point x="494" y="530"/>
      <point x="313" y="530" type="curve" smooth="yes"/>
    </contour>
    <contour>
      <point x="266" y="38"/>
      <point x="267" y="169"/>
      <point x="267" y="257" type="curve" smooth="yes"/>
      <point x="267" y="348"/>
      <point x="263" y="470"/>
      <point x="313" y="470" type="curve" smooth="yes"/>
      <point x="362" y="470"/>
      <point x="359" y="348"/>
      <point x="359" y="257" type="curve" smooth="yes"/>
      <point x="359" y="169"/>
      <point x="359" y="38"/>
      <point x="313" y="38" type="curve" smooth="yes"/>
    </contour>
    <contour>
      <point x="430" y="0" type="move" name="ogonek"/>
    </contour>
    <contour>
      <point x="315" y="0" type="move" name="bottom"/>
    </contour>
    <contour>
      <point x="313" y="499" type="move" name="top"/>
    </contour>
  </outline>
</glyph>
<glyph name="q" format="1">
  <advance width="629"/>
  <unicode hex="0071"/>
  <outline>
    <contour>
      <point x="595" y="-180" type="line"/>
      <point x="595" y="534" type="line"/>
      <point x="440" y="509" type="line"/>
      <point x="399" y="525"/>
      <point x="351" y="530"/>
      <point x="307" y="530" type="curve" smooth="yes"/>
      <point x="127" y="530"/>
      <point x="26" y="421"/>
      <point x="26" y="241" type="curve" smooth="yes"/>
      <point x="26" y="93"/>
      <point x="70" y="-22"/>
      <point x="218" y="-22" type="curve" smooth="yes"/>
      <point x="275" y="-22"/>
      <point x="324" y="-9"/>
      <point x="363" y="35" type="curve"/>
      <point x="354" y="4"/>
      <point x="355" y="-76"/>
      <point x="355" y="-93" type="curve" smooth="yes"/>
      <point x="355" y="-204" type="line"/>
    </contour>
    <contour>
      <point x="355" y="205" type="line" smooth="yes"/>
      <point x="355" y="148"/>
      <point x="369" y="59"/>
      <point x="311" y="59" type="curve" smooth="yes"/>
      <point x="263" y="59"/>
      <point x="267" y="156"/>
      <point x="267" y="246" type="curve" smooth="yes"/>
      <point x="267" y="342"/>
      <point x="267" y="470"/>
      <point x="326" y="470" type="curve" smooth="yes"/>
      <point x="335" y="470"/>
      <point x="347" y="468"/>
      <point x="355" y="460" type="curve"/>
    </contour>
  </outline>
</glyph>
<glyph name="r" format="1">
  <advance width="536"/>
  <unicode hex="0072"/>
  <outline>
    <contour>
      <point x="353" y="439"/>
      <point x="354" y="376"/>
      <point x="354" y="330" type="curve" smooth="yes"/>
      <point x="354" y="312"/>
      <point x="353" y="282"/>
      <point x="349" y="264" type="curve"/>
      <point x="361" y="257"/>
      <point x="399" y="254"/>
      <point x="412" y="254" type="curve" smooth="yes"/>
      <point x="494" y="254"/>
      <point x="543" y="302"/>
      <point x="543" y="383" type="curve" smooth="yes"/>
      <point x="543" y="477"/>
      <point x="482" y="530"/>
      <point x="389" y="530" type="curve" smooth="yes"/>
      <point x="319" y="530"/>
      <point x="264" y="497"/>
      <point x="239" y="432" type="curve"/>
      <point x="229" y="522" type="line"/>
      <point x="37" y="510" type="line"/>
      <point x="37" y="0" type="line"/>
      <point x="277" y="0" type="line"/>
      <point x="277" y="353" type="line" smooth="yes"/>
      <point x="277" y="407"/>
      <point x="276" y="439"/>
      <point x="307" y="439" type="curve" smooth="yes"/>
    </contour>
    <contour>
      <point x="160" y="499" type="move" name="top"/>
    </contour>
    <contour>
      <point x="156" y="0" type="move" name="bottom"/>
    </contour>
  </outline>
</glyph>
<glyph name="s" format="1">
  <advance width="503"/>
  <unicode hex="0073"/>
  <outline>
    <contour>
      <point x="296" y="471"/>
      <point x="304" y="441"/>
      <point x="304" y="413" type="curve" smooth="yes"/>
      <point x="304" y="404"/>
      <point x="302" y="369"/>
      <point x="302" y="360" type="curve"/>
      <point x="313" y="354"/>
      <point x="348" y="353"/>
      <point x="362" y="353" type="curve" smooth="yes"/>
      <point x="418" y="353"/>
      <point x="492" y="382"/>
      <point x="492" y="438" type="curve" smooth="yes"/>
      <point x="492" y="513"/>
      <point x="346" y="530"/>
      <point x="271" y="530" type="curve" smooth="yes"/>
      <point x="142" y="530"/>
      <point x="18" y="492"/>
      <point x="18" y="362" type="curve" smooth="yes"/>
      <point x="18" y="217"/>
      <point x="282" y="211"/>
      <point x="282" y="93" type="curve" smooth="yes"/>
      <point x="282" y="64"/>
      <point x="265" y="37"/>
      <point x="236" y="37" type="curve" smooth="yes"/>
      <point x="195" y="37"/>
      <point x="195" y="76"/>
      <point x="195" y="117" type="curve" smooth="yes"/>
      <point x="195" y="133"/>
      <point x="196" y="153"/>
      <point x="197" y="170" type="curve"/>
      <point x="185" y="176"/>
      <point x="150" y="178"/>
      <point x="136" y="178" type="curve" smooth="yes"/>
      <point x="73" y="178"/>
      <point x="6" y="153"/>
      <point x="6" y="89" type="curve" smooth="yes"/>
      <point x="6" y="-1"/>
      <point x="142" y="-22"/>
      <point x="232" y="-22" type="curve" smooth="yes"/>
      <point x="370" y="-22"/>
      <point x="492" y="18"/>
      <point x="492" y="156" type="curve" smooth="yes"/>
      <point x="492" y="301"/>
      <point x="229" y="308"/>
      <point x="229" y="426" type="curve" smooth="yes"/>
      <point x="229" y="451"/>
      <point x="243" y="471"/>
      <point x="268" y="471" type="curve" smooth="yes"/>
    </contour>
    <contour>
      <point x="268" y="499" type="move" name="top"/>
    </contour>
    <contour>
      <point x="269" y="0" type="move" name="bottom"/>
    </contour>
  </outline>
</glyph>
<glyph name="t" format="1">
  <advance width="366"/>
  <unicode hex="0074"/>
  <outline>
    <contour>
      <point x="64" y="126" type="line" smooth="yes"/>
      <point x="64" y="33"/>
      <point x="122" y="-15"/>
      <point x="216" y="-15" type="curve" smooth="yes"/>
      <point x="269" y="-15"/>
      <point x="328" y="-1"/>
      <point x="358" y="46" type="curve"/>
      <point x="316" y="57"/>
      <point x="303" y="84"/>
      <point x="303" y="124" type="curve" smooth="yes"/>
      <point x="303" y="465" type="line"/>
      <point x="393" y="465" type="line"/>
      <point x="393" y="510" type="line"/>
      <point x="302" y="510" type="line"/>
      <point x="302" y="624" type="line"/>
      <point x="234" y="624" type="line"/>
      <point x="177" y="575"/>
      <point x="74" y="519"/>
      <point x="6" y="497" type="curve"/>
      <point x="5" y="465" type="line"/>
      <point x="64" y="465" type="line"/>
    </contour>
    <contour>
      <point x="187" y="250" type="move" name="center"/>
    </contour>
    <contour>
      <point x="215" y="0" type="move" name="bottom"/>
    </contour>
    <contour>
      <point x="423" y="660" type="move" name="topright"/>
    </contour>
  </outline>
</glyph>
<glyph name="u" format="1">
  <advance width="642"/>
  <unicode hex="0075"/>
  <outline>
    <contour>
      <point x="357" y="510" type="line"/>
      <point x="357" y="162" type="line" smooth="yes"/>
      <point x="357" y="118"/>
      <point x="357" y="59"/>
      <point x="313" y="59" type="curve" smooth="yes"/>
      <point x="283" y="59"/>
      <point x="284" y="129"/>
      <point x="284" y="241" type="curve" smooth="yes"/>
      <point x="284" y="510" type="line"/>
      <point x="38" y="510" type="line"/>
      <point x="38" y="236" type="line" smooth="yes"/>
      <point x="38" y="79"/>
      <point x="67" y="-22"/>
      <point x="224" y="-22" type="curve" smooth="yes"/>
      <point x="286" y="-22"/>
      <point x="334" y="-6"/>
      <point x="371" y="44" type="curve"/>
      <point x="397" y="2"/>
      <point x="447" y="-15"/>
      <point x="518" y="-15" type="curve" smooth="yes"/>
      <point x="547" y="-15"/>
      <point x="601" y="-8"/>
      <point x="628" y="10" type="curve"/>
      <point x="604" y="51"/>
      <point x="597" y="90"/>
      <point x="597" y="134" type="curve" smooth="yes"/>
      <point x="597" y="510" type="line"/>
    </contour>
    <contour>
      <point x="626" y="10" type="move" name="ogonek"/>
    </contour>
    <contour>
      <point x="308" y="0" type="move" name="bottom"/>
    </contour>
    <contour>
      <point x="313" y="499" type="move" name="top"/>
    </contour>
  </outline>
</glyph>
<glyph name="v" format="1">
  <advance width="615"/>
  <unicode hex="0076"/>
  <outline>
    <contour>
      <point x="419" y="510" type="line"/>
      <point x="343" y="84" type="line"/>
      <point x="267" y="510" type="line"/>
      <point x="15" y="510" type="line"/>
      <point x="152" y="0" type="line"/>
      <point x="459" y="0" type="line"/>
      <point x="629" y="510" type="line"/>
    </contour>
  </outline>
</glyph>
<glyph name="w" format="1">
  <advance width="875"/>
  <unicode hex="0077"/>
  <outline>
    <contour>
      <point x="694" y="510" type="line"/>
      <point x="634" y="84" type="line"/>
      <point x="574" y="510" type="line"/>
      <point x="387" y="510" type="line"/>
      <point x="327" y="84" type="line"/>
      <point x="267" y="510" type="line"/>
      <point x="15" y="510" type="line"/>
      <point x="136" y="0" type="line"/>
      <point x="398" y="0" type="line"/>
      <point x="434" y="169" type="line"/>
      <point x="473" y="0" type="line"/>
      <point x="735" y="0" type="line"/>
      <point x="889" y="510" type="line"/>
    </contour>
    <contour>
      <point x="461" y="499" type="move" name="top"/>
    </contour>
  </outline>
</glyph>
<glyph name="x" format="1">
  <advance width="506"/>
  <unicode hex="0078"/>
  <outline>
    <contour>
      <point x="260" y="0" type="line"/>
      <point x="515" y="0" type="line"/>
      <point x="381" y="252" type="line"/>
      <point x="508" y="510" type="line"/>
      <point x="315" y="510" type="line"/>
      <point x="308" y="379" type="line"/>
      <point x="257" y="510" type="line"/>
      <point x="2" y="510" type="line"/>
      <point x="123" y="276" type="line"/>
      <point x="-13" y="0" type="line"/>
      <point x="180" y="0" type="line"/>
      <point x="202" y="156" type="line"/>
    </contour>
  </outline>
</glyph>
<glyph name="y" format="1">
  <advance width="588"/>
  <unicode hex="0079"/>
  <outline>
    <contour>
      <point x="407" y="510" type="line"/>
      <point x="332" y="149" type="line"/>
      <point x="263" y="510" type="line"/>
      <point x="11" y="510" type="line"/>
      <point x="137" y="65" type="line"/>
      <point x="224" y="65" type="line"/>
      <point x="97" y="-180" type="line"/>
      <point x="337" y="-193" type="line"/>
      <point x="596" y="510" type="line"/>
    </contour>
    <contour>
      <point x="309" y="499" type="move" name="top"/>
    </contour>
  </outline>
</glyph>
<glyph name="z" format="1">
  <advance width="459"/>
  <unicode hex="007A"/>
  <outline>
    <contour>
      <point x="32" y="510" type="line"/>
      <point x="21" y="403" type="line"/>
      <point x="168" y="416" type="line"/>
      <point x="-4" y="58" type="line"/>
      <point x="2" y="0" type="line"/>
      <point x="433" y="0" type="line"/>
      <point x="445" y="110" type="line"/>
      <point x="273" y="93" type="line"/>
      <point x="445" y="451" type="line"/>
      <point x="440" y="510" type="line"/>
    </contour>
    <contour>
      <point x="232" y="499" type="move" name="top"/>
    </contour>
    <contour>
      <point x="213" y="0" type="move" name="bottom"/>
    </contour>
  </outline>
</glyph>
<glyph name="braceleft" format="1">
  <advance width="416"/>
  <unicode hex="007B"/>
  <outline>
    <contour>
      <point x="199" y="800"/>
      <point x="137" y="773"/>
      <point x="137" y="689" type="curve" smooth="yes"/>
      <point x="137" y="442" type="line" smooth="yes"/>
      <point x="137" y="377"/>
      <point x="102" y="353"/>
      <point x="28" y="353" type="curve"/>
      <point x="29" y="272" type="line"/>
      <point x="81" y="271"/>
      <point x="133" y="236"/>
      <point x="133" y="170" type="curve" smooth="yes"/>
      <point x="133" y="-93" type="line" smooth="yes"/>
      <point x="133" y="-190"/>
      <point x="226" y="-200"/>
      <point x="311" y="-200" type="curve" smooth="yes"/>
      <point x="339" y="-200"/>
      <point x="378" y="-198"/>
      <point x="429" y="-191" type="curve"/>
      <point x="427" y="-125" type="line"/>
      <point x="394" y="-125" type="line" smooth="yes"/>
      <point x="321" y="-125"/>
      <point x="306" y="-66"/>
      <point x="306" y="-4" type="curve" smooth="yes"/>
      <point x="306" y="204" type="line" smooth="yes"/>
      <point x="306" y="290"/>
      <point x="273" y="303"/>
      <point x="190" y="319" type="curve"/>
      <point x="271" y="328"/>
      <point x="304" y="349"/>
      <point x="304" y="412" type="curve" smooth="yes"/>
      <point x="303" y="650" type="line" smooth="yes"/>
      <point x="303" y="705"/>
      <point x="335" y="726"/>
      <point x="392" y="726" type="curve" smooth="yes"/>
      <point x="426" y="726" type="line"/>
      <point x="426" y="791" type="line"/>
      <point x="385" y="798"/>
      <point x="341" y="800"/>
      <point x="312" y="800" type="curve" smooth="yes"/>
    </contour>
  </outline>
</glyph>
<glyph name="bar" format="1">
  <advance width="341"/>
  <unicode hex="007C"/>
  <outline>
    <contour>
      <point x="255" y="-200" type="line"/>
      <point x="86" y="-200" type="line"/>
      <point x="86" y="800" type="line"/>
      <point x="255" y="800" type="line"/>
    </contour>
  </outline>
</glyph>
<glyph name="braceright" format="1">
  <advance width="388"/>
  <unicode hex="007D"/>
  <outline>
    <contour>
      <point x="114" y="650" type="line" smooth="yes"/>
      <point x="114" y="705"/>
      <point x="81" y="726"/>
      <point x="24" y="726" type="curve" smooth="yes"/>
      <point x="-9" y="726" type="line"/>
      <point x="-9" y="791" type="line"/>
      <point x="31" y="798"/>
      <point x="75" y="800"/>
      <point x="104" y="800" type="curve" smooth="yes"/>
      <point x="218" y="800"/>
      <point x="279" y="773"/>
      <point x="279" y="689" type="curve" smooth="yes"/>
      <point x="279" y="442" type="line" smooth="yes"/>
      <point x="279" y="377"/>
      <point x="314" y="353"/>
      <point x="388" y="353" type="curve"/>
      <point x="387" y="272" type="line"/>
      <point x="335" y="271"/>
      <point x="283" y="236"/>
      <point x="283" y="170" type="curve" smooth="yes"/>
      <point x="283" y="-93" type="line" smooth="yes"/>
      <point x="283" y="-190"/>
      <point x="190" y="-200"/>
      <point x="105" y="-200" type="curve" smooth="yes"/>
      <point x="78" y="-200"/>
      <point x="38" y="-198"/>
      <point x="-13" y="-191" type="curve"/>
      <point x="-11" y="-125" type="line"/>
      <point x="22" y="-125" type="line" smooth="yes"/>
      <point x="95" y="-125"/>
      <point x="110" y="-66"/>
      <point x="110" y="-4" type="curve" smooth="yes"/>
      <point x="110" y="204" type="line" smooth="yes"/>
      <point x="110" y="290"/>
      <point x="143" y="303"/>
      <point x="226" y="319" type="curve"/>
      <point x="145" y="328"/>
      <point x="112" y="349"/>
      <point x="112" y="412" type="curve" smooth="yes"/>
    </contour>
  </outline>
</glyph>
<glyph name="asciitilde" format="1">
  <advance width="642"/>
  <unicode hex="007E"/>
  <outline>
    <contour>
      <point x="459" y="266"/>
      <point x="495" y="268"/>
      <point x="510" y="297" type="curve"/>
      <point x="530" y="282"/>
      <point x="548" y="252"/>
      <point x="548" y="226" type="curve" smooth="yes"/>
      <point x="548" y="168"/>
      <point x="490" y="162"/>
      <point x="440" y="162" type="curve" smooth="yes"/>
      <point x="358" y="162"/>
      <point x="272" y="197"/>
      <point x="207" y="197" type="curve" smooth="yes"/>
      <point x="182" y="197"/>
      <point x="147" y="195"/>
      <point x="132" y="167" type="curve"/>
      <point x="112" y="182"/>
      <point x="94" y="211"/>
      <point x="94" y="237" type="curve" smooth="yes"/>
      <point x="94" y="295"/>
      <point x="152" y="301"/>
      <point x="201" y="301" type="curve" smooth="yes"/>
      <point x="284" y="301"/>
      <point x="370" y="266"/>
      <point x="435" y="266" type="curve" smooth="yes"/>
    </contour>
  </outline>
</glyph>
<glyph name="exclamdown" format="1">
  <advance width="256"/>
  <unicode hex="00A1"/>
  <outline>
    <contour>
      <point x="97" y="339"/>
      <point x="78" y="336"/>
      <point x="64" y="326" type="curve"/>
      <point x="41" y="89" type="line" smooth="yes"/>
      <point x="37" y="44"/>
      <point x="31" y="-19"/>
      <point x="31" y="-51" type="curve" smooth="yes"/>
      <point x="31" y="-125"/>
      <point x="65" y="-173"/>
      <point x="142" y="-173" type="curve" smooth="yes"/>
      <point x="178" y="-173"/>
      <point x="220" y="-160"/>
      <point x="243" y="-135" type="curve"/>
      <point x="203" y="231" type="line"/>
      <point x="197" y="300"/>
      <point x="189" y="339"/>
      <point x="118" y="339" type="curve" smooth="yes"/>
    </contour>
    <component base="period" xOffset="-3" yOffset="378"/>
  </outline>
</glyph>
<glyph name="cent" format="1">
  <advance width="642"/>
  <unicode hex="00A2"/>
  <outline>
    <contour>
      <point x="160" y="593"/>
      <point x="55" y="488"/>
      <point x="55" y="332" type="curve" smooth="yes"/>
      <point x="55" y="174"/>
      <point x="150" y="42"/>
      <point x="378" y="42" type="curve" smooth="yes"/>
      <point x="500" y="42"/>
      <point x="587" y="92"/>
      <point x="587" y="197" type="curve" smooth="yes"/>
      <point x="587" y="222"/>
      <point x="573" y="252"/>
      <point x="546" y="256" type="curve"/>
      <point x="522" y="212"/>
      <point x="487" y="185"/>
      <point x="437" y="185" type="curve" smooth="yes"/>
      <point x="325" y="185"/>
      <point x="297" y="245"/>
      <point x="297" y="333" type="curve" smooth="yes"/>
      <point x="297" y="409"/>
      <point x="303" y="533"/>
      <point x="373" y="533" type="curve" smooth="yes"/>
      <point x="415" y="533"/>
      <point x="413" y="475"/>
      <point x="413" y="433" type="curve" smooth="yes"/>
      <point x="413" y="417"/>
      <point x="411" y="397"/>
      <point x="411" y="380" type="curve"/>
      <point x="423" y="374"/>
      <point x="458" y="372"/>
      <point x="471" y="372" type="curve" smooth="yes"/>
      <point x="535" y="372"/>
      <point x="602" y="397"/>
      <point x="602" y="461" type="curve" smooth="yes"/>
      <point x="602" y="560"/>
      <point x="509" y="593"/>
      <point x="387" y="593" type="curve" smooth="yes"/>
    </contour>
    <contour>
      <point x="284" y="-37" type="line"/>
      <point x="297" y="-41"/>
      <point x="313" y="-49"/>
      <point x="331" y="-49" type="curve" smooth="yes"/>
      <point x="371" y="-49"/>
      <point x="392" y="-21"/>
      <point x="392" y="16" type="curve" smooth="yes"/>
      <point x="392" y="166" type="line"/>
      <point x="284" y="171" type="line"/>
    </contour>
    <contour>
      <point x="303" y="689"/>
      <point x="282" y="660"/>
      <point x="282" y="624" type="curve" smooth="yes"/>
      <point x="282" y="531" type="line"/>
      <point x="390" y="556" type="line"/>
      <point x="390" y="676" type="line"/>
      <point x="377" y="681"/>
      <point x="361" y="689"/>
      <point x="343" y="689" type="curve" smooth="yes"/>
    </contour>
  </outline>
</glyph>
<glyph name="sterling" format="1">
  <advance width="642"/>
  <unicode hex="00A3"/>
  <outline>
    <contour>
      <point x="64" y="401" type="line" smooth="yes"/>
      <point x="27" y="401"/>
      <point x="3" y="381"/>
      <point x="3" y="342" type="curve" smooth="yes"/>
      <point x="3" y="338"/>
      <point x="4" y="327"/>
      <point x="5" y="321" type="curve"/>
      <point x="422" y="321" type="line" smooth="yes"/>
      <point x="461" y="321"/>
      <point x="484" y="340"/>
      <point x="484" y="379" type="curve" smooth="yes"/>
      <point x="484" y="382"/>
      <point x="484" y="394"/>
      <point x="483" y="401" type="curve"/>
    </contour>
    <contour>
      <point x="419" y="596"/>
      <point x="429" y="561"/>
      <point x="429" y="517" type="curve" smooth="yes"/>
      <point x="429" y="491"/>
      <point x="427" y="470"/>
      <point x="424" y="444" type="curve"/>
      <point x="442" y="443"/>
      <point x="462" y="442"/>
      <point x="476" y="442" type="curve" smooth="yes"/>
      <point x="555" y="442"/>
      <point x="625" y="457"/>
      <point x="625" y="543" type="curve" smooth="yes"/>
      <point x="625" y="636"/>
      <point x="478" y="660"/>
      <point x="385" y="660" type="curve" smooth="yes"/>
      <point x="240" y="660"/>
      <point x="93" y="626"/>
      <point x="93" y="481" type="curve" smooth="yes"/>
      <point x="93" y="332" type="line" smooth="yes"/>
      <point x="93" y="224"/>
      <point x="98" y="153"/>
      <point x="28" y="120" type="curve"/>
      <point x="41" y="0" type="line"/>
      <point x="601" y="0" type="line"/>
      <point x="614" y="178" type="line"/>
      <point x="209" y="160" type="line"/>
      <point x="305" y="190"/>
      <point x="338" y="251"/>
      <point x="338" y="351" type="curve" smooth="yes"/>
      <point x="338" y="495" type="line" smooth="yes"/>
      <point x="338" y="546"/>
      <point x="341" y="596"/>
      <point x="383" y="596" type="curve" smooth="yes"/>
    </contour>
  </outline>
</glyph>
<glyph name="currency" format="1">
  <advance width="642"/>
  <unicode hex="00A4"/>
  <outline>
    <contour>
      <point x="196" y="155"/>
      <point x="310" y="155" type="curve" smooth="yes"/>
      <point x="424" y="155"/>
      <point x="525" y="210"/>
      <point x="525" y="341" type="curve" smooth="yes"/>
      <point x="525" y="465"/>
      <point x="419" y="525"/>
      <point x="309" y="525" type="curve" smooth="yes"/>
      <point x="201" y="525"/>
      <point x="94" y="469"/>
      <point x="94" y="341" type="curve" smooth="yes"/>
      <point x="94" y="216"/>
    </contour>
    <contour>
      <point x="344" y="416"/>
      <point x="361" y="387"/>
      <point x="361" y="340" type="curve" smooth="yes"/>
      <point x="361" y="292"/>
      <point x="343" y="264"/>
      <point x="310" y="264" type="curve" smooth="yes"/>
      <point x="276" y="264"/>
      <point x="258" y="292"/>
      <point x="258" y="340" type="curve" smooth="yes"/>
      <point x="258" y="387"/>
      <point x="274" y="416"/>
      <point x="309" y="416" type="curve" smooth="yes"/>
    </contour>
    <contour>
      <point x="223" y="477" type="line"/>
      <point x="120" y="580" type="line"/>
      <point x="68" y="506" type="line"/>
      <point x="166" y="420" type="line"/>
    </contour>
    <contour>
      <point x="442" y="431" type="line"/>
      <point x="533" y="522" type="line"/>
      <point x="459" y="585" type="line"/>
      <point x="378" y="487" type="line"/>
    </contour>
    <contour>
      <point x="408" y="209" type="line"/>
      <point x="528" y="107" type="line"/>
      <point x="575" y="178" type="line"/>
      <point x="455" y="270" type="line"/>
    </contour>
    <contour>
      <point x="169" y="259" type="line"/>
      <point x="67" y="162" type="line"/>
      <point x="132" y="96" type="line"/>
      <point x="231" y="198" type="line"/>
    </contour>
  </outline>
</glyph>
<glyph name="brokenbar" format="1">
  <advance width="343"/>
  <unicode hex="00A6"/>
  <outline>
    <contour>
      <point x="90" y="388" type="line"/>
      <point x="90" y="660" type="line"/>
      <point x="258" y="660" type="line"/>
      <point x="258" y="388" type="line"/>
    </contour>
    <contour>
      <point x="86" y="0" type="line"/>
      <point x="86" y="272" type="line"/>
      <point x="253" y="272" type="line"/>
      <point x="253" y="0" type="line"/>
    </contour>
  </outline>
</glyph>
<glyph name="section" format="1">
  <advance width="399"/>
  <unicode hex="00A7"/>
  <outline>
    <contour>
      <point x="107" y="388"/>
      <point x="5" y="295"/>
      <point x="5" y="203" type="curve" smooth="yes"/>
      <point x="5" y="14"/>
      <point x="232" y="35"/>
      <point x="232" y="-71" type="curve" smooth="yes"/>
      <point x="232" y="-102"/>
      <point x="213" y="-128"/>
      <point x="182" y="-128" type="curve" smooth="yes"/>
      <point x="140" y="-128"/>
      <point x="139" y="-85"/>
      <point x="139" y="-43" type="curve" smooth="yes"/>
      <point x="139" y="-33"/>
      <point x="140" y="-15"/>
      <point x="141" y="-5" type="curve"/>
      <point x="131" y="2"/>
      <point x="117" y="6"/>
      <point x="102" y="6" type="curve" smooth="yes"/>
      <point x="47" y="6"/>
      <point x="15" y="-39"/>
      <point x="15" y="-83" type="curve" smooth="yes"/>
      <point x="15" y="-160"/>
      <point x="94" y="-181"/>
      <point x="173" y="-181" type="curve" smooth="yes"/>
      <point x="280" y="-181"/>
      <point x="385" y="-129"/>
      <point x="385" y="-16" type="curve" smooth="yes"/>
      <point x="385" y="140"/>
      <point x="134" y="172"/>
      <point x="134" y="265" type="curve" smooth="yes"/>
      <point x="134" y="296"/>
      <point x="150" y="336"/>
      <point x="209" y="349" type="curve"/>
      <point x="176" y="389" type="line"/>
    </contour>
    <contour>
      <point x="117" y="680"/>
      <point x="13" y="629"/>
      <point x="13" y="514" type="curve" smooth="yes"/>
      <point x="13" y="360"/>
      <point x="265" y="331"/>
      <point x="265" y="234" type="curve" smooth="yes"/>
      <point x="265" y="216"/>
      <point x="257" y="174"/>
      <point x="213" y="149" type="curve"/>
      <point x="258" y="113" type="line"/>
      <point x="345" y="167"/>
      <point x="394" y="241"/>
      <point x="394" y="303" type="curve" smooth="yes"/>
      <point x="394" y="464"/>
      <point x="167" y="462"/>
      <point x="167" y="571" type="curve" smooth="yes"/>
      <point x="167" y="602"/>
      <point x="184" y="627"/>
      <point x="215" y="627" type="curve" smooth="yes"/>
      <point x="256" y="627"/>
      <point x="260" y="586"/>
      <point x="260" y="542" type="curve" smooth="yes"/>
      <point x="260" y="532"/>
      <point x="259" y="515"/>
      <point x="258" y="505" type="curve"/>
      <point x="268" y="497"/>
      <point x="282" y="494"/>
      <point x="297" y="494" type="curve" smooth="yes"/>
      <point x="352" y="494"/>
      <point x="384" y="538"/>
      <point x="384" y="583" type="curve" smooth="yes"/>
      <point x="384" y="661"/>
      <point x="306" y="680"/>
      <point x="227" y="680" type="curve" smooth="yes"/>
    </contour>
  </outline>
</glyph>
<glyph name="dieresis" format="1">
  <advance width="485"/>
  <unicode hex="00A8"/>
  <outline>
    <component base="dotaccent" xOffset="250"/>
    <component base="dotaccent"/>
    <contour>
      <point x="237" y="499" type="move" name="_top"/>
    </contour>
  </outline>
</glyph>
<glyph name="copyright" format="1">
  <advance width="726"/>
  <unicode hex="00A9"/>
  <outline>
    <contour>
      <point x="158" y="615"/>
      <point x="7" y="468"/>
      <point x="7" y="263" type="curve" smooth="yes"/>
      <point x="7" y="55"/>
      <point x="155" y="-79"/>
      <point x="363" y="-79" type="curve" smooth="yes"/>
      <point x="571" y="-79"/>
      <point x="719" y="55"/>
      <point x="719" y="263" type="curve" smooth="yes"/>
      <point x="719" y="468"/>
      <point x="568" y="615"/>
      <point x="363" y="615" type="curve" smooth="yes"/>
    </contour>
    <contour>
      <point x="255" y="468"/>
      <point x="173" y="411"/>
      <point x="173" y="281" type="curve" smooth="yes"/>
      <point x="173" y="153"/>
      <point x="249" y="76"/>
      <point x="379" y="76" type="curve" smooth="yes"/>
      <point x="455" y="76"/>
      <point x="522" y="111"/>
      <point x="522" y="187" type="curve" smooth="yes"/>
      <point x="522" y="204"/>
      <point x="512" y="226"/>
      <point x="493" y="229" type="curve"/>
      <point x="476" y="196"/>
      <point x="452" y="176"/>
      <point x="415" y="176" type="curve" smooth="yes"/>
      <point x="352" y="176"/>
      <point x="336" y="219"/>
      <point x="336" y="283" type="curve" smooth="yes"/>
      <point x="336" y="341"/>
      <point x="338" y="429"/>
      <point x="374" y="429" type="curve" smooth="yes"/>
      <point x="404" y="429"/>
      <point x="406" y="388"/>
      <point x="406" y="357" type="curve" smooth="yes"/>
      <point x="406" y="346"/>
      <point x="404" y="332"/>
      <point x="405" y="319" type="curve"/>
      <point x="410" y="316"/>
      <point x="435" y="314"/>
      <point x="444" y="314" type="curve" smooth="yes"/>
      <point x="489" y="314"/>
      <point x="532" y="333"/>
      <point x="532" y="376" type="curve" smooth="yes"/>
      <point x="532" y="450"/>
      <point x="457" y="468"/>
      <point x="382" y="468" type="curve" smooth="yes"/>
    </contour>
    <contour>
      <point x="520" y="536"/>
      <point x="610" y="420"/>
      <point x="610" y="263" type="curve" smooth="yes"/>
      <point x="610" y="103"/>
      <point x="523" y="0"/>
      <point x="363" y="0" type="curve" smooth="yes"/>
      <point x="203" y="0"/>
      <point x="116" y="103"/>
      <point x="116" y="263" type="curve" smooth="yes"/>
      <point x="116" y="420"/>
      <point x="206" y="536"/>
      <point x="363" y="536" type="curve" smooth="yes"/>
    </contour>
  </outline>
</glyph>
<glyph name="ordfeminine" format="1">
  <advance width="480"/>
  <unicode hex="00AA"/>
  <outline>
    <contour>
      <point x="165" y="674"/>
      <point x="43" y="664"/>
      <point x="43" y="580" type="curve" smooth="yes"/>
      <point x="43" y="532"/>
      <point x="90" y="516"/>
      <point x="139" y="516" type="curve" smooth="yes"/>
      <point x="147" y="516"/>
      <point x="173" y="516"/>
      <point x="181" y="521" type="curve"/>
      <point x="182" y="533"/>
      <point x="180" y="548"/>
      <point x="180" y="561" type="curve" smooth="yes"/>
      <point x="180" y="607"/>
      <point x="189" y="630"/>
      <point x="224" y="630" type="curve" smooth="yes"/>
      <point x="255" y="630"/>
      <point x="260" y="606"/>
      <point x="260" y="573" type="curve" smooth="yes"/>
      <point x="260" y="503" type="line"/>
      <point x="144" y="503"/>
      <point x="17" y="493"/>
      <point x="17" y="387" type="curve" smooth="yes"/>
      <point x="17" y="307"/>
      <point x="98" y="278"/>
      <point x="180" y="278" type="curve" smooth="yes"/>
      <point x="219" y="278"/>
      <point x="261" y="295"/>
      <point x="271" y="334" type="curve"/>
      <point x="291" y="297"/>
      <point x="323" y="285"/>
      <point x="378" y="285" type="curve" smooth="yes"/>
      <point x="405" y="285"/>
      <point x="439" y="291"/>
      <point x="460" y="304" type="curve"/>
      <point x="443" y="335"/>
      <point x="438" y="363"/>
      <point x="438" y="395" type="curve" smooth="yes"/>
      <point x="438" y="538" type="line" smooth="yes"/>
      <point x="438" y="656"/>
      <point x="348" y="674"/>
      <point x="232" y="674" type="curve" smooth="yes"/>
    </contour>
    <contour>
      <point x="120" y="238" type="line" smooth="yes"/>
      <point x="78" y="238"/>
      <point x="57" y="235"/>
      <point x="57" y="194" type="curve" smooth="yes"/>
      <point x="57" y="184"/>
      <point x="62" y="165"/>
      <point x="64" y="156" type="curve"/>
      <point x="362" y="156" type="line" smooth="yes"/>
      <point x="404" y="156"/>
      <point x="424" y="159"/>
      <point x="424" y="200" type="curve" smooth="yes"/>
      <point x="424" y="210"/>
      <point x="419" y="229"/>
      <point x="417" y="238" type="curve"/>
    </contour>
    <contour>
      <point x="260" y="400" type="line" smooth="yes"/>
      <point x="260" y="373"/>
      <point x="253" y="338"/>
      <point x="225" y="338" type="curve" smooth="yes"/>
      <point x="197" y="338"/>
      <point x="190" y="362"/>
      <point x="190" y="392" type="curve" smooth="yes"/>
      <point x="190" y="441"/>
      <point x="210" y="462"/>
      <point x="260" y="462" type="curve"/>
    </contour>
  </outline>
</glyph>
<glyph name="guillemotleft" format="1">
  <advance width="532"/>
  <unicode hex="00AB"/>
  <outline>
    <contour>
      <point x="-10" y="317" type="line"/>
      <point x="126" y="126" type="line"/>
      <point x="255" y="126" type="line"/>
      <point x="171" y="317" type="line"/>
      <point x="261" y="511" type="line"/>
      <point x="127" y="511" type="line"/>
    </contour>
    <contour>
      <point x="236" y="317" type="line"/>
      <point x="372" y="126" type="line"/>
      <point x="501" y="126" type="line"/>
      <point x="417" y="317" type="line"/>
      <point x="504" y="511" type="line"/>
      <point x="372" y="511" type="line"/>
    </contour>
  </outline>
</glyph>
<glyph name="logicalnot" format="1">
  <advance width="642"/>
  <unicode hex="00AC"/>
  <outline>
    <contour>
      <point x="148" y="293" type="line" smooth="yes"/>
      <point x="107" y="293"/>
      <point x="78" y="276"/>
      <point x="78" y="236" type="curve" smooth="yes"/>
      <point x="78" y="218"/>
      <point x="84" y="199"/>
      <point x="90" y="187" type="curve"/>
      <point x="433" y="187" type="line"/>
      <point x="433" y="71" type="line" smooth="yes"/>
      <point x="433" y="28"/>
      <point x="452" y="-5"/>
      <point x="496" y="-5" type="curve" smooth="yes"/>
      <point x="514" y="-5"/>
      <point x="536" y="2"/>
      <point x="549" y="8" type="curve"/>
      <point x="549" y="293" type="line"/>
    </contour>
  </outline>
</glyph>
<glyph name="uni00AD" format="1">
  <advance width="352"/>
  <unicode hex="00AD"/>
  <outline>
    <contour>
      <point x="254" y="191" type="line" smooth="yes"/>
      <point x="306" y="194"/>
      <point x="334" y="217"/>
      <point x="334" y="271" type="curve" smooth="yes"/>
      <point x="334" y="275"/>
      <point x="333" y="296"/>
      <point x="329" y="306" type="curve"/>
      <point x="97" y="292" type="line" smooth="yes"/>
      <point x="47" y="288"/>
      <point x="19" y="266"/>
      <point x="19" y="212" type="curve" smooth="yes"/>
      <point x="19" y="206"/>
      <point x="20" y="186"/>
      <point x="22" y="177" type="curve"/>
    </contour>
  </outline>
</glyph>
<glyph name="registered" format="1">
  <advance width="726"/>
  <unicode hex="00AE"/>
  <outline>
    <contour>
      <point x="158" y="680"/>
      <point x="7" y="533"/>
      <point x="7" y="328" type="curve" smooth="yes"/>
      <point x="7" y="120"/>
      <point x="155" y="-14"/>
      <point x="363" y="-14" type="curve" smooth="yes"/>
      <point x="571" y="-14"/>
      <point x="719" y="120"/>
      <point x="719" y="328" type="curve" smooth="yes"/>
      <point x="719" y="533"/>
      <point x="568" y="680"/>
      <point x="363" y="680" type="curve" smooth="yes"/>
    </contour>
    <contour>
      <point x="520" y="601"/>
      <point x="610" y="485"/>
      <point x="610" y="328" type="curve" smooth="yes"/>
      <point x="610" y="168"/>
      <point x="523" y="65"/>
      <point x="363" y="65" type="curve" smooth="yes"/>
      <point x="203" y="65"/>
      <point x="116" y="168"/>
      <point x="116" y="328" type="curve" smooth="yes"/>
      <point x="116" y="485"/>
      <point x="206" y="601"/>
      <point x="363" y="601" type="curve" smooth="yes"/>
    </contour>
    <contour>
      <point x="299" y="531"/>
      <point x="261" y="527"/>
      <point x="199" y="521" type="curve"/>
      <point x="199" y="152" type="line"/>
      <point x="336" y="152" type="line"/>
      <point x="336" y="486" type="line"/>
      <point x="343" y="488"/>
      <point x="352" y="491"/>
      <point x="358" y="491" type="curve" smooth="yes"/>
      <point x="391" y="491"/>
      <point x="393" y="448"/>
      <point x="393" y="413" type="curve" smooth="yes"/>
      <point x="393" y="376"/>
      <point x="390" y="346"/>
      <point x="351" y="346" type="curve"/>
      <point x="351" y="335"/>
      <point x="355" y="327"/>
      <point x="359" y="318" type="curve" smooth="yes"/>
      <point x="418" y="152" type="line"/>
      <point x="554" y="152" type="line"/>
      <point x="463" y="305" type="line"/>
      <point x="501" y="324"/>
      <point x="525" y="362"/>
      <point x="525" y="413" type="curve" smooth="yes"/>
      <point x="525" y="511"/>
      <point x="450" y="531"/>
      <point x="352" y="531" type="curve" smooth="yes"/>
    </contour>
  </outline>
</glyph>
<glyph name="macron" format="1">
  <advance width="344"/>
  <unicode hex="00AF"/>
  <outline>
    <contour>
      <point x="70" y="717" type="line" smooth="yes"/>
      <point x="34" y="717"/>
      <point x="10" y="694"/>
      <point x="10" y="661" type="curve" smooth="yes"/>
      <point x="10" y="643"/>
      <point x="13" y="630"/>
      <point x="20" y="620" type="curve"/>
      <point x="278" y="620" type="line" smooth="yes"/>
      <point x="310" y="620"/>
      <point x="334" y="643"/>
      <point x="334" y="678" type="curve" smooth="yes"/>
      <point x="334" y="694"/>
      <point x="332" y="707"/>
      <point x="325" y="717" type="curve"/>
    </contour>
    <contour>
      <point x="170" y="510" type="move" name="_top"/>
    </contour>
  </outline>
</glyph>
<glyph name="degree" format="1">
  <advance width="363"/>
  <unicode hex="00B0"/>
  <outline>
    <contour>
      <point x="277" y="370"/>
      <point x="349" y="434"/>
      <point x="349" y="529" type="curve" smooth="yes"/>
      <point x="349" y="627"/>
      <point x="279" y="684"/>
      <point x="181" y="684" type="curve" smooth="yes"/>
      <point x="84" y="684"/>
      <point x="14" y="627"/>
      <point x="14" y="529" type="curve" smooth="yes"/>
      <point x="14" y="434"/>
      <point x="86" y="370"/>
      <point x="181" y="370" type="curve" smooth="yes"/>
    </contour>
    <contour>
      <point x="133" y="438"/>
      <point x="116" y="481"/>
      <point x="116" y="529" type="curve" smooth="yes"/>
      <point x="116" y="576"/>
      <point x="135" y="616"/>
      <point x="181" y="616" type="curve" smooth="yes"/>
      <point x="228" y="616"/>
      <point x="247" y="576"/>
      <point x="247" y="529" type="curve" smooth="yes"/>
      <point x="247" y="480"/>
      <point x="230" y="438"/>
      <point x="181" y="438" type="curve" smooth="yes"/>
    </contour>
  </outline>
</glyph>
<glyph name="plusminus" format="1">
  <advance width="642"/>
  <unicode hex="00B1"/>
  <outline>
    <contour>
      <point x="281" y="494"/>
      <point x="262" y="460"/>
      <point x="262" y="417" type="curve" smooth="yes"/>
      <point x="262" y="157" type="line"/>
      <point x="276" y="152"/>
      <point x="297" y="147"/>
      <point x="315" y="147" type="curve" smooth="yes"/>
      <point x="361" y="147"/>
      <point x="381" y="181"/>
      <point x="381" y="224" type="curve" smooth="yes"/>
      <point x="381" y="484" type="line"/>
      <point x="367" y="489"/>
      <point x="344" y="494"/>
      <point x="326" y="494" type="curve" smooth="yes"/>
    </contour>
    <contour>
      <point x="184" y="102" type="line" smooth="yes"/>
      <point x="144" y="102"/>
      <point x="113" y="83"/>
      <point x="113" y="43" type="curve" smooth="yes"/>
      <point x="113" y="25"/>
      <point x="119" y="5"/>
      <point x="126" y="-8" type="curve"/>
      <point x="458" y="-8" type="line" smooth="yes"/>
      <point x="498" y="-8"/>
      <point x="529" y="12"/>
      <point x="529" y="52" type="curve" smooth="yes"/>
      <point x="529" y="69"/>
      <point x="523" y="90"/>
      <point x="516" y="102" type="curve"/>
    </contour>
    <contour>
      <point x="192" y="377" type="line" smooth="yes"/>
      <point x="152" y="377"/>
      <point x="122" y="359"/>
      <point x="122" y="319" type="curve" smooth="yes"/>
      <point x="122" y="301"/>
      <point x="128" y="283"/>
      <point x="134" y="270" type="curve"/>
      <point x="448" y="270" type="line" smooth="yes"/>
      <point x="488" y="270"/>
      <point x="518" y="288"/>
      <point x="518" y="328" type="curve" smooth="yes"/>
      <point x="518" y="346"/>
      <point x="512" y="364"/>
      <point x="506" y="377" type="curve"/>
    </contour>
  </outline>
</glyph>
<glyph name="uni00B2" format="1">
  <advance width="357"/>
  <unicode hex="00B2"/>
  <outline>
    <contour>
      <point x="101" y="675"/>
      <point x="9" y="653"/>
      <point x="9" y="591" type="curve" smooth="yes"/>
      <point x="9" y="574"/>
      <point x="18" y="560"/>
      <point x="32" y="549" type="curve"/>
      <point x="50" y="568"/>
      <point x="73" y="573"/>
      <point x="97" y="573" type="curve" smooth="yes"/>
      <point x="132" y="573"/>
      <point x="159" y="554"/>
      <point x="159" y="518" type="curve" smooth="yes"/>
      <point x="159" y="451"/>
      <point x="104" y="391"/>
      <point x="85" y="377" type="curve" smooth="yes"/>
      <point x="66" y="363"/>
      <point x="47" y="350"/>
      <point x="21" y="335" type="curve"/>
      <point x="25" y="285" type="line"/>
      <point x="324" y="285" type="line"/>
      <point x="322" y="393" type="line"/>
      <point x="181" y="384" type="line"/>
      <point x="199" y="396"/>
      <point x="218" y="411"/>
      <point x="238" y="424" type="curve" smooth="yes"/>
      <point x="275" y="449"/>
      <point x="330" y="496"/>
      <point x="330" y="559" type="curve" smooth="yes"/>
      <point x="330" y="642"/>
      <point x="246" y="675"/>
      <point x="162" y="675" type="curve" smooth="yes"/>
    </contour>
  </outline>
</glyph>
<glyph name="uni00B3" format="1">
  <advance width="341"/>
  <unicode hex="00B3"/>
  <outline>
    <contour>
      <point x="90" y="675"/>
      <point x="13" y="652"/>
      <point x="13" y="586" type="curve" smooth="yes"/>
      <point x="13" y="569"/>
      <point x="21" y="557"/>
      <point x="35" y="546" type="curve"/>
      <point x="55" y="572"/>
      <point x="74" y="588"/>
      <point x="107" y="588" type="curve" smooth="yes"/>
      <point x="135" y="588"/>
      <point x="155" y="572"/>
      <point x="155" y="542" type="curve" smooth="yes"/>
      <point x="155" y="507"/>
      <point x="110" y="504"/>
      <point x="75" y="504" type="curve"/>
      <point x="75" y="447" type="line"/>
      <point x="81" y="448"/>
      <point x="94" y="448"/>
      <point x="102" y="448" type="curve" smooth="yes"/>
      <point x="128" y="448"/>
      <point x="142" y="432"/>
      <point x="142" y="407" type="curve" smooth="yes"/>
      <point x="142" y="382"/>
      <point x="126" y="370"/>
      <point x="99" y="370" type="curve" smooth="yes"/>
      <point x="76" y="370"/>
      <point x="49" y="379"/>
      <point x="26" y="392" type="curve"/>
      <point x="18" y="383"/>
      <point x="11" y="372"/>
      <point x="11" y="358" type="curve" smooth="yes"/>
      <point x="11" y="292"/>
      <point x="91" y="269"/>
      <point x="158" y="269" type="curve" smooth="yes"/>
      <point x="249" y="269"/>
      <point x="310" y="316"/>
      <point x="310" y="395" type="curve" smooth="yes"/>
      <point x="310" y="457"/>
      <point x="271" y="488"/>
      <point x="204" y="494" type="curve"/>
      <point x="264" y="508"/>
      <point x="291" y="536"/>
      <point x="291" y="584" type="curve" smooth="yes"/>
      <point x="291" y="649"/>
      <point x="224" y="675"/>
      <point x="156" y="675" type="curve" smooth="yes"/>
    </contour>
  </outline>
</glyph>
<glyph name="acute" format="1">
  <advance width="323"/>
  <unicode hex="00B4"/>
  <outline>
    <contour>
      <point x="30" y="575" type="line"/>
      <point x="187" y="610" type="line" smooth="yes"/>
      <point x="248" y="625"/>
      <point x="313" y="636"/>
      <point x="313" y="694" type="curve" smooth="yes"/>
      <point x="313" y="726"/>
      <point x="284" y="761"/>
      <point x="255" y="777" type="curve"/>
      <point x="10" y="629" type="line"/>
    </contour>
    <contour>
      <point x="132" y="510" type="move" name="_top"/>
    </contour>
  </outline>
</glyph>
<glyph name="cedilla" format="1">
  <advance width="286"/>
  <unicode hex="00B8"/>
  <outline>
    <contour>
      <point x="79" y="11" type="line"/>
      <point x="35" y="-111" type="line"/>
      <point x="48" y="-110"/>
      <point x="61" y="-109"/>
      <point x="74" y="-109" type="curve" smooth="yes"/>
      <point x="99" y="-109"/>
      <point x="130" y="-116"/>
      <point x="130" y="-145" type="curve" smooth="yes"/>
      <point x="130" y="-169"/>
      <point x="114" y="-180"/>
      <point x="97" y="-180" type="curve" smooth="yes"/>
      <point x="55" y="-180"/>
      <point x="36" y="-166"/>
      <point x="23" y="-146" type="curve"/>
      <point x="15" y="-157"/>
      <point x="10" y="-172"/>
      <point x="10" y="-197" type="curve" smooth="yes"/>
      <point x="10" y="-253"/>
      <point x="85" y="-261"/>
      <point x="123" y="-261" type="curve" smooth="yes"/>
      <point x="196" y="-261"/>
      <point x="276" y="-226"/>
      <point x="276" y="-154" type="curve" smooth="yes"/>
      <point x="276" y="-80"/>
      <point x="219" y="-53"/>
      <point x="145" y="-53" type="curve" smooth="yes"/>
      <point x="133" y="-53"/>
      <point x="111" y="-56"/>
      <point x="103" y="-57" type="curve"/>
      <point x="142" y="-72" type="line"/>
      <point x="174" y="11" type="line"/>
    </contour>
    <contour>
      <point x="139" y="0" type="move" name="_bottom"/>
    </contour>
  </outline>
</glyph>
<glyph name="uni00B9" format="1">
  <advance width="353"/>
  <unicode hex="00B9"/>
  <outline>
    <contour>
      <point x="284" y="662" type="line"/>
      <point x="221" y="680" type="line"/>
      <point x="154" y="640"/>
      <point x="91" y="615"/>
      <point x="17" y="590" type="curve"/>
      <point x="17" y="549"/>
      <point x="20" y="511"/>
      <point x="61" y="511" type="curve" smooth="yes"/>
      <point x="80" y="511"/>
      <point x="97" y="517"/>
      <point x="111" y="528" type="curve"/>
      <point x="111" y="351" type="line"/>
      <point x="45" y="351" type="line"/>
      <point x="45" y="285" type="line"/>
      <point x="349" y="285" type="line"/>
      <point x="349" y="351" type="line"/>
      <point x="284" y="351" type="line"/>
    </contour>
  </outline>
</glyph>
<glyph name="ordmasculine" format="1">
  <advance width="433"/>
  <unicode hex="00BA"/>
  <outline>
    <contour>
      <point x="339" y="156" type="line" smooth="yes"/>
      <point x="381" y="156"/>
      <point x="401" y="159"/>
      <point x="401" y="200" type="curve" smooth="yes"/>
      <point x="401" y="210"/>
      <point x="396" y="229"/>
      <point x="394" y="238" type="curve"/>
      <point x="96" y="238" type="line" smooth="yes"/>
      <point x="55" y="238"/>
      <point x="34" y="235"/>
      <point x="34" y="194" type="curve" smooth="yes"/>
      <point x="34" y="184"/>
      <point x="39" y="165"/>
      <point x="41" y="156" type="curve"/>
    </contour>
    <contour>
      <point x="95" y="674"/>
      <point x="16" y="600"/>
      <point x="16" y="475" type="curve" smooth="yes"/>
      <point x="16" y="360"/>
      <point x="105" y="280"/>
      <point x="221" y="280" type="curve" smooth="yes"/>
      <point x="342" y="280"/>
      <point x="428" y="362"/>
      <point x="428" y="483" type="curve" smooth="yes"/>
      <point x="428" y="610"/>
      <point x="348" y="674"/>
      <point x="221" y="674" type="curve" smooth="yes"/>
    </contour>
    <contour>
      <point x="194" y="327"/>
      <point x="193" y="425"/>
      <point x="193" y="479" type="curve" smooth="yes"/>
      <point x="193" y="535"/>
      <point x="192" y="626"/>
      <point x="221" y="626" type="curve" smooth="yes"/>
      <point x="250" y="626"/>
      <point x="249" y="535"/>
      <point x="249" y="479" type="curve" smooth="yes"/>
      <point x="249" y="424"/>
      <point x="248" y="327"/>
      <point x="221" y="327" type="curve" smooth="yes"/>
    </contour>
  </outline>
</glyph>
<glyph name="guillemotright" format="1">
  <advance width="532"/>
  <unicode hex="00BB"/>
  <outline>
    <contour>
      <point x="27" y="511" type="line"/>
      <point x="115" y="317" type="line"/>
      <point x="29" y="126" type="line"/>
      <point x="158" y="126" type="line"/>
      <point x="296" y="317" type="line"/>
      <point x="160" y="511" type="line"/>
    </contour>
    <contour>
      <point x="270" y="511" type="line"/>
      <point x="361" y="317" type="line"/>
      <point x="275" y="126" type="line"/>
      <point x="404" y="126" type="line"/>
      <point x="541" y="317" type="line"/>
      <point x="404" y="511" type="line"/>
    </contour>
  </outline>
</glyph>
<glyph name="onequarter" format="1">
  <advance width="857"/>
  <unicode hex="00BC"/>
  <outline>
    <contour>
      <point x="505" y="720"/>
      <point x="487" y="717"/>
      <point x="478" y="713" type="curve"/>
      <point x="288" y="-29" type="line" smooth="yes"/>
      <point x="286" y="-37"/>
      <point x="285" y="-46"/>
      <point x="285" y="-53" type="curve" smooth="yes"/>
      <point x="285" y="-77"/>
      <point x="303" y="-91"/>
      <point x="327" y="-91" type="curve" smooth="yes"/>
      <point x="344" y="-91"/>
      <point x="362" y="-88"/>
      <point x="371" y="-84" type="curve"/>
      <point x="561" y="658" type="line" smooth="yes"/>
      <point x="562" y="666"/>
      <point x="564" y="675"/>
      <point x="564" y="682" type="curve" smooth="yes"/>
      <point x="564" y="706"/>
      <point x="546" y="720"/>
      <point x="522" y="720" type="curve" smooth="yes"/>
    </contour>
    <contour>
      <point x="164" y="640"/>
      <point x="101" y="615"/>
      <point x="27" y="590" type="curve"/>
      <point x="27" y="549"/>
      <point x="31" y="511"/>
      <point x="71" y="511" type="curve" smooth="yes"/>
      <point x="90" y="511"/>
      <point x="107" y="517"/>
      <point x="121" y="528" type="curve"/>
      <point x="121" y="351" type="line"/>
      <point x="56" y="351" type="line"/>
      <point x="56" y="285" type="line"/>
      <point x="349" y="285" type="line"/>
      <point x="349" y="351" type="line"/>
      <point x="294" y="351" type="line"/>
      <point x="294" y="662" type="line"/>
      <point x="231" y="680" type="line"/>
    </contour>
    <contour>
      <point x="610" y="138" type="line"/>
      <point x="539" y="138" type="line"/>
      <point x="610" y="260" type="line"/>
    </contour>
    <contour>
      <point x="617" y="368" type="line"/>
      <point x="463" y="135" type="line" smooth="yes"/>
      <point x="452" y="118"/>
      <point x="445" y="102"/>
      <point x="445" y="82" type="curve" smooth="yes"/>
      <point x="445" y="66"/>
      <point x="450" y="56"/>
      <point x="456" y="45" type="curve"/>
      <point x="604" y="45" type="line"/>
      <point x="604" y="0" type="line"/>
      <point x="783" y="0" type="line"/>
      <point x="783" y="45" type="line"/>
      <point x="823" y="45" type="line"/>
      <point x="829" y="138" type="line"/>
      <point x="783" y="138" type="line"/>
      <point x="783" y="368" type="line"/>
    </contour>
  </outline>
</glyph>
<glyph name="onehalf" format="1">
  <advance width="857"/>
  <unicode hex="00BD"/>
  <outline>
    <contour>
      <point x="495" y="720"/>
      <point x="477" y="717"/>
      <point x="468" y="713" type="curve"/>
      <point x="278" y="-29" type="line" smooth="yes"/>
      <point x="276" y="-37"/>
      <point x="275" y="-46"/>
      <point x="275" y="-53" type="curve" smooth="yes"/>
      <point x="275" y="-77"/>
      <point x="293" y="-91"/>
      <point x="317" y="-91" type="curve" smooth="yes"/>
      <point x="334" y="-91"/>
      <point x="351" y="-88"/>
      <point x="360" y="-84" type="curve"/>
      <point x="551" y="658" type="line" smooth="yes"/>
      <point x="552" y="666"/>
      <point x="554" y="675"/>
      <point x="554" y="682" type="curve" smooth="yes"/>
      <point x="554" y="706"/>
      <point x="536" y="720"/>
      <point x="511" y="720" type="curve" smooth="yes"/>
    </contour>
    <contour>
      <point x="154" y="640"/>
      <point x="91" y="615"/>
      <point x="17" y="590" type="curve"/>
      <point x="17" y="549"/>
      <point x="20" y="511"/>
      <point x="61" y="511" type="curve" smooth="yes"/>
      <point x="80" y="511"/>
      <point x="97" y="517"/>
      <point x="111" y="528" type="curve"/>
      <point x="111" y="351" type="line"/>
      <point x="45" y="351" type="line"/>
      <point x="45" y="285" type="line"/>
      <point x="329" y="285" type="line"/>
      <point x="329" y="351" type="line"/>
      <point x="284" y="351" type="line"/>
      <point x="284" y="662" type="line"/>
      <point x="221" y="680" type="line"/>
    </contour>
    <contour>
      <point x="583" y="390"/>
      <point x="490" y="368"/>
      <point x="490" y="306" type="curve" smooth="yes"/>
      <point x="490" y="289"/>
      <point x="500" y="275"/>
      <point x="513" y="264" type="curve"/>
      <point x="532" y="283"/>
      <point x="554" y="288"/>
      <point x="579" y="288" type="curve" smooth="yes"/>
      <point x="614" y="288"/>
      <point x="641" y="269"/>
      <point x="641" y="233" type="curve" smooth="yes"/>
      <point x="641" y="165"/>
      <point x="584" y="107"/>
      <point x="566" y="93" type="curve" smooth="yes"/>
      <point x="542" y="74"/>
      <point x="529" y="64"/>
      <point x="502" y="50" type="curve"/>
      <point x="506" y="0" type="line"/>
      <point x="806" y="0" type="line"/>
      <point x="804" y="108" type="line"/>
      <point x="663" y="99" type="line"/>
      <point x="676" y="108"/>
      <point x="689" y="117"/>
      <point x="705" y="127" type="curve" smooth="yes"/>
      <point x="737" y="147"/>
      <point x="811" y="205"/>
      <point x="811" y="274" type="curve" smooth="yes"/>
      <point x="811" y="357"/>
      <point x="728" y="390"/>
      <point x="644" y="390" type="curve" smooth="yes"/>
    </contour>
  </outline>
</glyph>
<glyph name="threequarters" format="1">
  <advance width="857"/>
  <unicode hex="00BE"/>
  <outline>
    <contour>
      <point x="505" y="720"/>
      <point x="487" y="717"/>
      <point x="478" y="713" type="curve"/>
      <point x="288" y="-29" type="line" smooth="yes"/>
      <point x="286" y="-37"/>
      <point x="285" y="-46"/>
      <point x="285" y="-53" type="curve" smooth="yes"/>
      <point x="285" y="-77"/>
      <point x="303" y="-91"/>
      <point x="327" y="-91" type="curve" smooth="yes"/>
      <point x="344" y="-91"/>
      <point x="362" y="-88"/>
      <point x="371" y="-84" type="curve"/>
      <point x="561" y="658" type="line" smooth="yes"/>
      <point x="562" y="666"/>
      <point x="564" y="675"/>
      <point x="564" y="682" type="curve" smooth="yes"/>
      <point x="564" y="706"/>
      <point x="546" y="720"/>
      <point x="522" y="720" type="curve" smooth="yes"/>
    </contour>
    <contour>
      <point x="116" y="675"/>
      <point x="39" y="652"/>
      <point x="39" y="586" type="curve" smooth="yes"/>
      <point x="39" y="569"/>
      <point x="47" y="557"/>
      <point x="61" y="546" type="curve"/>
      <point x="81" y="572"/>
      <point x="99" y="588"/>
      <point x="132" y="588" type="curve" smooth="yes"/>
      <point x="161" y="588"/>
      <point x="181" y="572"/>
      <point x="181" y="542" type="curve" smooth="yes"/>
      <point x="181" y="507"/>
      <point x="136" y="504"/>
      <point x="100" y="504" type="curve"/>
      <point x="100" y="447" type="line"/>
      <point x="107" y="448"/>
      <point x="120" y="448"/>
      <point x="127" y="448" type="curve" smooth="yes"/>
      <point x="154" y="448"/>
      <point x="168" y="432"/>
      <point x="168" y="407" type="curve" smooth="yes"/>
      <point x="168" y="382"/>
      <point x="152" y="370"/>
      <point x="125" y="370" type="curve" smooth="yes"/>
      <point x="102" y="370"/>
      <point x="74" y="379"/>
      <point x="52" y="392" type="curve"/>
      <point x="43" y="383"/>
      <point x="37" y="372"/>
      <point x="37" y="358" type="curve" smooth="yes"/>
      <point x="37" y="292"/>
      <point x="117" y="269"/>
      <point x="183" y="269" type="curve" smooth="yes"/>
      <point x="275" y="269"/>
      <point x="336" y="316"/>
      <point x="336" y="395" type="curve" smooth="yes"/>
      <point x="336" y="457"/>
      <point x="297" y="488"/>
      <point x="230" y="494" type="curve"/>
      <point x="290" y="508"/>
      <point x="317" y="536"/>
      <point x="317" y="584" type="curve" smooth="yes"/>
      <point x="317" y="649"/>
      <point x="249" y="675"/>
      <point x="181" y="675" type="curve" smooth="yes"/>
    </contour>
    <contour>
      <point x="610" y="138" type="line"/>
      <point x="539" y="138" type="line"/>
      <point x="610" y="260" type="line"/>
    </contour>
    <contour>
      <point x="617" y="368" type="line"/>
      <point x="463" y="135" type="line" smooth="yes"/>
      <point x="452" y="118"/>
      <point x="445" y="102"/>
      <point x="445" y="82" type="curve" smooth="yes"/>
      <point x="445" y="66"/>
      <point x="450" y="56"/>
      <point x="456" y="45" type="curve"/>
      <point x="604" y="45" type="line"/>
      <point x="604" y="0" type="line"/>
      <point x="773" y="0" type="line"/>
      <point x="773" y="45" type="line"/>
      <point x="813" y="45" type="line"/>
      <point x="819" y="138" type="line"/>
      <point x="773" y="138" type="line"/>
      <point x="773" y="368" type="line"/>
    </contour>
  </outline>
</glyph>
<glyph name="questiondown" format="1">
  <advance width="556"/>
  <unicode hex="00BF"/>
  <outline>
    <contour>
      <point x="307" y="311"/>
      <point x="285" y="308"/>
      <point x="276" y="302" type="curve"/>
      <point x="276" y="189"/>
      <point x="30" y="156"/>
      <point x="30" y="0" type="curve" smooth="yes"/>
      <point x="30" y="-143"/>
      <point x="166" y="-171"/>
      <point x="310" y="-171" type="curve" smooth="yes"/>
      <point x="440" y="-171"/>
      <point x="563" y="-140"/>
      <point x="563" y="-40" type="curve" smooth="yes"/>
      <point x="563" y="44"/>
      <point x="495" y="79"/>
      <point x="417" y="79" type="curve" smooth="yes"/>
      <point x="401" y="79"/>
      <point x="379" y="77"/>
      <point x="360" y="74" type="curve"/>
      <point x="363" y="49"/>
      <point x="364" y="25"/>
      <point x="364" y="0" type="curve" smooth="yes"/>
      <point x="364" y="-47"/>
      <point x="365" y="-111"/>
      <point x="313" y="-111" type="curve" smooth="yes"/>
      <point x="273" y="-111"/>
      <point x="264" y="-75"/>
      <point x="264" y="-31" type="curve" smooth="yes"/>
      <point x="264" y="77"/>
      <point x="402" y="124"/>
      <point x="402" y="223" type="curve" smooth="yes"/>
      <point x="402" y="272"/>
      <point x="371" y="311"/>
      <point x="322" y="311" type="curve" smooth="yes"/>
    </contour>
    <component base="period" xOffset="184" yOffset="378"/>
  </outline>
</glyph>
<glyph name="AE" format="1">
  <advance width="766"/>
  <unicode hex="00C6"/>
  <outline>
    <contour>
      <point x="287" y="660" type="line"/>
      <point x="3" y="0" type="line"/>
      <point x="160" y="0" type="line"/>
      <point x="220" y="153" type="line"/>
      <point x="369" y="153" type="line"/>
      <point x="369" y="0" type="line"/>
      <point x="773" y="0" type="line"/>
      <point x="781" y="89" type="line"/>
      <point x="633" y="89" type="line"/>
      <point x="633" y="294" type="line"/>
      <point x="736" y="294" type="line"/>
      <point x="736" y="384" type="line"/>
      <point x="633" y="384" type="line"/>
      <point x="633" y="571" type="line"/>
      <point x="766" y="571" type="line"/>
      <point x="766" y="660" type="line"/>
    </contour>
    <contour>
      <point x="369" y="242" type="line"/>
      <point x="256" y="242" type="line"/>
      <point x="369" y="544" type="line"/>
    </contour>
    <contour>
      <point x="452" y="660" type="move" name="top"/>
    </contour>
  </outline>
</glyph>
<glyph name="Eth" format="1">
  <advance width="710"/>
  <unicode hex="00D0"/>
  <outline>
    <contour>
      <point x="298" y="286" type="line" smooth="yes"/>
      <point x="346" y="286"/>
      <point x="374" y="311"/>
      <point x="374" y="358" type="curve" smooth="yes"/>
      <point x="374" y="363"/>
      <point x="374" y="376"/>
      <point x="372" y="385" type="curve"/>
      <point x="73" y="385" type="line" smooth="yes"/>
      <point x="25" y="385"/>
      <point x="-3" y="360"/>
      <point x="-3" y="312" type="curve" smooth="yes"/>
      <point x="-3" y="308"/>
      <point x="-3" y="295"/>
      <point x="-1" y="286" type="curve"/>
    </contour>
    <component base="D" xOffset="-5.412"/>
  </outline>
</glyph>
<glyph name="multiply" format="1">
  <advance width="642"/>
  <unicode hex="00D7"/>
  <outline>
    <contour>
      <point x="445" y="478"/>
      <point x="420" y="453"/>
      <point x="403" y="429" type="curve" smooth="yes"/>
      <point x="90" y="47" type="line"/>
      <point x="104" y="13"/>
      <point x="127" y="1"/>
      <point x="153" y="1" type="curve" smooth="yes"/>
      <point x="188" y="1"/>
      <point x="213" y="21"/>
      <point x="231" y="49" type="curve" smooth="yes"/>
      <point x="334" y="175" type="line"/>
      <point x="543" y="432" type="line"/>
      <point x="529" y="467"/>
      <point x="505" y="478"/>
      <point x="480" y="478" type="curve" smooth="yes"/>
    </contour>
    <contour>
      <point x="165" y="477"/>
      <point x="133" y="447"/>
      <point x="133" y="402" type="curve" smooth="yes"/>
      <point x="133" y="377"/>
      <point x="150" y="363"/>
      <point x="163" y="344" type="curve" smooth="yes"/>
      <point x="285" y="197" type="line"/>
      <point x="434" y="-3" type="line"/>
      <point x="479" y="-3"/>
      <point x="509" y="26"/>
      <point x="509" y="72" type="curve" smooth="yes"/>
      <point x="509" y="94"/>
      <point x="492" y="110"/>
      <point x="481" y="131" type="curve" smooth="yes"/>
      <point x="367" y="266" type="line"/>
      <point x="210" y="477" type="line"/>
    </contour>
  </outline>
</glyph>
<glyph name="Oslash" format="1">
  <advance width="716"/>
  <unicode hex="00D8"/>
  <outline>
    <contour>
      <point x="74" y="29" type="line" smooth="yes"/>
      <point x="64" y="14"/>
      <point x="57" y="-2"/>
      <point x="57" y="-14" type="curve" smooth="yes"/>
      <point x="57" y="-48"/>
      <point x="91" y="-60"/>
      <point x="133" y="-59" type="curve"/>
      <point x="572" y="636" type="line" smooth="yes"/>
      <point x="582" y="651"/>
      <point x="589" y="666"/>
      <point x="589" y="679" type="curve" smooth="yes"/>
      <point x="589" y="712"/>
      <point x="555" y="725"/>
      <point x="513" y="724" type="curve"/>
    </contour>
    <component base="O"/>
    <contour>
      <point x="351" y="660" type="move" name="top"/>
    </contour>
  </outline>
</glyph>
<glyph name="Thorn" format="1">
  <advance width="680"/>
  <unicode hex="00DE"/>
  <outline>
    <contour>
      <point x="45" y="660" type="line"/>
      <point x="45" y="0" type="line"/>
      <point x="309" y="0" type="line"/>
      <point x="309" y="454" type="line"/>
      <point x="318" y="458"/>
      <point x="329" y="460"/>
      <point x="339" y="460" type="curve" smooth="yes"/>
      <point x="403" y="460"/>
      <point x="408" y="393"/>
      <point x="408" y="329" type="curve" smooth="yes"/>
      <point x="408" y="258"/>
      <point x="381" y="214"/>
      <point x="330" y="214" type="curve"/>
      <point x="330" y="170"/>
      <point x="386" y="125"/>
      <point x="455" y="125" type="curve" smooth="yes"/>
      <point x="579" y="125"/>
      <point x="664" y="207"/>
      <point x="664" y="331" type="curve" smooth="yes"/>
      <point x="664" y="502"/>
      <point x="554" y="536"/>
      <point x="383" y="536" type="curve" smooth="yes"/>
      <point x="374" y="536"/>
      <point x="317" y="536"/>
      <point x="309" y="536" type="curve"/>
      <point x="309" y="660" type="line"/>
    </contour>
  </outline>
</glyph>
<glyph name="germandbls" format="1">
  <advance width="845"/>
  <unicode hex="00DF"/>
  <outline>
    <contour>
      <point x="45" y="-4" type="line" smooth="yes"/>
      <point x="45" y="-83"/>
      <point x="51" y="-164"/>
      <point x="-27" y="-180" type="curve"/>
      <point x="0" y="-223"/>
      <point x="62" y="-233"/>
      <point x="111" y="-233" type="curve" smooth="yes"/>
      <point x="251" y="-233"/>
      <point x="285" y="-121"/>
      <point x="285" y="19" type="curve"/>
      <point x="285" y="563" type="line" smooth="yes"/>
      <point x="285" y="633"/>
      <point x="317" y="656"/>
      <point x="388" y="656" type="curve" smooth="yes"/>
      <point x="439" y="656"/>
      <point x="497" y="633"/>
      <point x="497" y="582" type="curve" smooth="yes"/>
      <point x="497" y="515"/>
      <point x="366" y="445"/>
      <point x="366" y="362" type="curve" smooth="yes"/>
      <point x="366" y="217"/>
      <point x="629" y="211"/>
      <point x="629" y="93" type="curve" smooth="yes"/>
      <point x="629" y="64"/>
      <point x="612" y="37"/>
      <point x="584" y="37" type="curve" smooth="yes"/>
      <point x="543" y="37"/>
      <point x="542" y="76"/>
      <point x="542" y="117" type="curve" smooth="yes"/>
      <point x="542" y="133"/>
      <point x="544" y="153"/>
      <point x="544" y="170" type="curve"/>
      <point x="532" y="176"/>
      <point x="497" y="178"/>
      <point x="484" y="178" type="curve" smooth="yes"/>
      <point x="420" y="178"/>
      <point x="353" y="153"/>
      <point x="353" y="89" type="curve" smooth="yes"/>
      <point x="353" y="-1"/>
      <point x="489" y="-22"/>
      <point x="579" y="-22" type="curve" smooth="yes"/>
      <point x="718" y="-22"/>
      <point x="839" y="18"/>
      <point x="839" y="156" type="curve" smooth="yes"/>
      <point x="839" y="301"/>
      <point x="576" y="308"/>
      <point x="576" y="426" type="curve" smooth="yes"/>
      <point x="576" y="493"/>
      <point x="693" y="526"/>
      <point x="693" y="609" type="curve" smooth="yes"/>
      <point x="693" y="697"/>
      <point x="483" y="720"/>
      <point x="395" y="720" type="curve" smooth="yes"/>
      <point x="230" y="720"/>
      <point x="45" y="683"/>
      <point x="45" y="518" type="curve" smooth="yes"/>
    </contour>
  </outline>
</glyph>
<glyph name="ae" format="1">
  <advance width="896"/>
  <unicode hex="00E6"/>
  <outline>
    <contour>
      <point x="745" y="-22"/>
      <point x="864" y="19"/>
      <point x="864" y="124" type="curve" smooth="yes"/>
      <point x="864" y="148"/>
      <point x="855" y="175"/>
      <point x="834" y="186" type="curve"/>
      <point x="807" y="139"/>
      <point x="747" y="122"/>
      <point x="694" y="122" type="curve" smooth="yes"/>
      <point x="619" y="122"/>
      <point x="592" y="169"/>
      <point x="586" y="237" type="curve"/>
      <point x="597" y="234"/>
      <point x="625" y="233"/>
      <point x="635" y="233" type="curve" smooth="yes"/>
      <point x="770" y="233"/>
      <point x="889" y="251"/>
      <point x="889" y="386" type="curve" smooth="yes"/>
      <point x="889" y="496"/>
      <point x="766" y="530"/>
      <point x="656" y="530" type="curve" smooth="yes"/>
      <point x="591" y="530"/>
      <point x="535" y="522"/>
      <point x="486" y="506" type="curve"/>
      <point x="436" y="525"/>
      <point x="371" y="530"/>
      <point x="303" y="530" type="curve" smooth="yes"/>
      <point x="218" y="530"/>
      <point x="41" y="515"/>
      <point x="41" y="398" type="curve" smooth="yes"/>
      <point x="41" y="334"/>
      <point x="108" y="309"/>
      <point x="172" y="309" type="curve" smooth="yes"/>
      <point x="185" y="309"/>
      <point x="220" y="311"/>
      <point x="232" y="317" type="curve"/>
      <point x="231" y="334"/>
      <point x="230" y="353"/>
      <point x="230" y="370" type="curve" smooth="yes"/>
      <point x="230" y="426"/>
      <point x="240" y="471"/>
      <point x="296" y="471" type="curve" smooth="yes"/>
      <point x="340" y="471"/>
      <point x="344" y="423"/>
      <point x="344" y="378" type="curve" smooth="yes"/>
      <point x="344" y="287" type="line"/>
      <point x="196" y="287"/>
      <point x="5" y="277"/>
      <point x="5" y="129" type="curve" smooth="yes"/>
      <point x="5" y="22"/>
      <point x="110" y="-22"/>
      <point x="217" y="-22" type="curve" smooth="yes"/>
      <point x="306" y="-22"/>
      <point x="368" y="-3"/>
      <point x="424" y="49" type="curve"/>
      <point x="475" y="2"/>
      <point x="549" y="-22"/>
      <point x="640" y="-22" type="curve" smooth="yes"/>
    </contour>
    <contour>
      <point x="251" y="51"/>
      <point x="239" y="92"/>
      <point x="239" y="133" type="curve" smooth="yes"/>
      <point x="239" y="209"/>
      <point x="268" y="237"/>
      <point x="344" y="237" type="curve"/>
      <point x="344" y="148" type="line" smooth="yes"/>
      <point x="344" y="105"/>
      <point x="335" y="51"/>
      <point x="292" y="51" type="curve" smooth="yes"/>
    </contour>
    <contour>
      <point x="679" y="468"/>
      <point x="686" y="425"/>
      <point x="686" y="389" type="curve" smooth="yes"/>
      <point x="686" y="299"/>
      <point x="647" y="278"/>
      <point x="554" y="280" type="curve" smooth="yes"/>
      <point x="520" y="280"/>
      <point x="487" y="283"/>
      <point x="443" y="285" type="curve"/>
      <point x="584" y="264" type="line"/>
      <point x="584" y="351"/>
      <point x="592" y="468"/>
      <point x="643" y="468" type="curve" smooth="yes"/>
    </contour>
    <contour>
      <point x="444" y="499" type="move" name="top"/>
    </contour>
  </outline>
</glyph>
<glyph name="eth" format="1">
  <advance width="634"/>
  <unicode hex="00F0"/>
  <outline>
    <contour>
      <point x="260" y="720"/>
      <point x="204" y="709"/>
      <point x="204" y="650" type="curve" smooth="yes"/>
      <point x="204" y="631"/>
      <point x="212" y="602"/>
      <point x="219" y="587" type="curve"/>
      <point x="235" y="597"/>
      <point x="252" y="602"/>
      <point x="273" y="602" type="curve" smooth="yes"/>
      <point x="296" y="602"/>
      <point x="312" y="600"/>
      <point x="325" y="593" type="curve"/>
      <point x="315" y="589" type="line" smooth="yes"/>
      <point x="284" y="578"/>
      <point x="266" y="551"/>
      <point x="284" y="514" type="curve" smooth="yes"/>
      <point x="287" y="513"/>
      <point x="288" y="509"/>
      <point x="292" y="502" type="curve"/>
      <point x="359" y="527" type="line"/>
      <point x="361" y="517"/>
      <point x="362" y="505"/>
      <point x="364" y="492" type="curve"/>
      <point x="354" y="494"/>
      <point x="344" y="493"/>
      <point x="333" y="493" type="curve" smooth="yes"/>
      <point x="242" y="493"/>
      <point x="26" y="471"/>
      <point x="26" y="227" type="curve" smooth="yes"/>
      <point x="26" y="68"/>
      <point x="158" y="-23"/>
      <point x="317" y="-23" type="curve" smooth="yes"/>
      <point x="522" y="-23"/>
      <point x="607" y="110"/>
      <point x="607" y="315" type="curve" smooth="yes"/>
      <point x="607" y="422"/>
      <point x="588" y="521"/>
      <point x="543" y="595" type="curve"/>
      <point x="552" y="598" type="line" smooth="yes"/>
      <point x="582" y="610"/>
      <point x="600" y="636"/>
      <point x="581" y="674" type="curve"/>
      <point x="578" y="672"/>
      <point x="577" y="679"/>
      <point x="574" y="684" type="curve"/>
      <point x="494" y="655" type="line"/>
      <point x="449" y="696"/>
      <point x="389" y="720"/>
      <point x="311" y="720" type="curve" smooth="yes"/>
    </contour>
    <contour>
      <point x="256" y="37"/>
      <point x="263" y="173"/>
      <point x="263" y="234" type="curve" smooth="yes"/>
      <point x="263" y="317"/>
      <point x="264" y="433"/>
      <point x="333" y="433" type="curve" smooth="yes"/>
      <point x="346" y="433"/>
      <point x="354" y="426"/>
      <point x="362" y="415" type="curve"/>
      <point x="366" y="385"/>
      <point x="370" y="312"/>
      <point x="370" y="286" type="curve" smooth="yes"/>
      <point x="370" y="147"/>
      <point x="374" y="37"/>
      <point x="317" y="37" type="curve" smooth="yes"/>
    </contour>
  </outline>
</glyph>
<glyph name="divide" format="1">
  <advance width="642"/>
  <unicode hex="00F7"/>
  <outline>
    <contour>
      <point x="402" y="453"/>
      <point x="369" y="477"/>
      <point x="323" y="477" type="curve" smooth="yes"/>
      <point x="275" y="477"/>
      <point x="238" y="453"/>
      <point x="238" y="408" type="curve" smooth="yes"/>
      <point x="238" y="366"/>
      <point x="271" y="342"/>
      <point x="319" y="342" type="curve" smooth="yes"/>
      <point x="365" y="342"/>
      <point x="402" y="366"/>
      <point x="402" y="410" type="curve" smooth="yes"/>
    </contour>
    <contour>
      <point x="402" y="114"/>
      <point x="369" y="139"/>
      <point x="323" y="139" type="curve" smooth="yes"/>
      <point x="275" y="139"/>
      <point x="238" y="114"/>
      <point x="238" y="70" type="curve" smooth="yes"/>
      <point x="238" y="28"/>
      <point x="271" y="4"/>
      <point x="319" y="4" type="curve" smooth="yes"/>
      <point x="365" y="4"/>
      <point x="402" y="28"/>
      <point x="402" y="72" type="curve" smooth="yes"/>
    </contour>
    <contour>
      <point x="466" y="187" type="line" smooth="yes"/>
      <point x="507" y="187"/>
      <point x="536" y="205"/>
      <point x="536" y="245" type="curve" smooth="yes"/>
      <point x="536" y="263"/>
      <point x="530" y="281"/>
      <point x="524" y="294" type="curve"/>
      <point x="176" y="294" type="line" smooth="yes"/>
      <point x="135" y="294"/>
      <point x="106" y="276"/>
      <point x="106" y="236" type="curve" smooth="yes"/>
      <point x="106" y="218"/>
      <point x="111" y="200"/>
      <point x="118" y="187" type="curve"/>
    </contour>
  </outline>
</glyph>
<glyph name="oslash" format="1">
  <advance width="625"/>
  <unicode hex="00F8"/>
  <outline>
    <contour>
      <point x="87" y="29" type="line" smooth="yes"/>
      <point x="77" y="14"/>
      <point x="70" y="-2"/>
      <point x="70" y="-14" type="curve" smooth="yes"/>
      <point x="70" y="-48"/>
      <point x="104" y="-60"/>
      <point x="146" y="-59" type="curve"/>
      <point x="512" y="519" type="line" smooth="yes"/>
      <point x="522" y="534"/>
      <point x="529" y="549"/>
      <point x="529" y="562" type="curve" smooth="yes"/>
      <point x="529" y="596"/>
      <point x="495" y="608"/>
      <point x="453" y="607" type="curve"/>
    </contour>
    <component base="o"/>
    <contour>
      <point x="306" y="499" type="move" name="top"/>
    </contour>
  </outline>
</glyph>
<glyph name="thorn" format="1">
  <advance width="641"/>
  <unicode hex="00FE"/>
  <outline>
    <contour>
      <point x="45" y="700" type="line"/>
      <point x="45" y="-193" type="line"/>
      <point x="285" y="-179" type="line"/>
      <point x="285" y="-24" type="line"/>
      <point x="294" y="-23"/>
      <point x="301" y="-22"/>
      <point x="307" y="-22" type="curve" smooth="yes"/>
      <point x="500" y="-22"/>
      <point x="615" y="69"/>
      <point x="615" y="262" type="curve" smooth="yes"/>
      <point x="615" y="412"/>
      <point x="568" y="530"/>
      <point x="418" y="530" type="curve" smooth="yes"/>
      <point x="360" y="530"/>
      <point x="310" y="520"/>
      <point x="277" y="485" type="curve"/>
      <point x="285" y="517"/>
      <point x="285" y="584"/>
      <point x="285" y="601" type="curve" smooth="yes"/>
      <point x="285" y="724" type="line"/>
    </contour>
    <contour>
      <point x="372" y="455"/>
      <point x="374" y="348"/>
      <point x="374" y="257" type="curve" smooth="yes"/>
      <point x="374" y="160"/>
      <point x="373" y="38"/>
      <point x="315" y="38" type="curve" smooth="yes"/>
      <point x="305" y="38"/>
      <point x="293" y="41"/>
      <point x="285" y="49" type="curve"/>
      <point x="285" y="325" type="line" smooth="yes"/>
      <point x="285" y="376"/>
      <point x="272" y="455"/>
      <point x="323" y="455" type="curve" smooth="yes"/>
    </contour>
  </outline>
</glyph>
<glyph name="dcroat" format="1">
  <advance width="707"/>
  <unicode hex="0111"/>
  <outline>
    <contour>
      <point x="293" y="664" type="line" smooth="yes"/>
      <point x="247" y="664"/>
      <point x="215" y="641"/>
      <point x="215" y="589" type="curve" smooth="yes"/>
      <point x="215" y="584"/>
      <point x="215" y="571"/>
      <point x="217" y="562" type="curve"/>
      <point x="620" y="562" type="line" smooth="yes"/>
      <point x="663" y="562"/>
      <point x="695" y="585"/>
      <point x="695" y="637" type="curve" smooth="yes"/>
      <point x="695" y="639"/>
      <point x="696" y="655"/>
      <point x="693" y="664" type="curve"/>
    </contour>
    <component base="d"/>
  </outline>
</glyph>
<glyph name="Hbar" format="1">
  <advance width="773"/>
  <unicode hex="0126"/>
  <outline>
    <contour>
      <point x="334" y="0" type="line"/>
      <point x="334" y="289" type="line"/>
      <point x="440" y="289" type="line"/>
      <point x="440" y="0" type="line"/>
      <point x="704" y="0" type="line"/>
      <point x="704" y="531" type="line"/>
      <point x="687" y="502" type="line"/>
      <point x="695" y="502" type="line" smooth="yes"/>
      <point x="737" y="502"/>
      <point x="770" y="526"/>
      <point x="770" y="578" type="curve" smooth="yes"/>
      <point x="770" y="580"/>
      <point x="770" y="596"/>
      <point x="769" y="605" type="curve"/>
      <point x="704" y="605" type="line"/>
      <point x="704" y="660" type="line"/>
      <point x="440" y="660" type="line"/>
      <point x="440" y="605" type="line"/>
      <point x="334" y="605" type="line"/>
      <point x="334" y="660" type="line"/>
      <point x="70" y="660" type="line"/>
      <point x="70" y="579" type="line"/>
      <point x="90" y="605" type="line"/>
      <point x="81" y="605" type="line" smooth="yes"/>
      <point x="35" y="605"/>
      <point x="4" y="582"/>
      <point x="4" y="530" type="curve" smooth="yes"/>
      <point x="4" y="525"/>
      <point x="3" y="511"/>
      <point x="6" y="502" type="curve"/>
      <point x="70" y="502" type="line"/>
      <point x="70" y="0" type="line"/>
    </contour>
    <contour>
      <point x="440" y="379" type="line"/>
      <point x="334" y="379" type="line"/>
      <point x="334" y="502" type="line"/>
      <point x="440" y="502" type="line"/>
    </contour>
  </outline>
</glyph>
<glyph name="hbar" format="1">
  <advance width="636"/>
  <unicode hex="0127"/>
  <outline>
    <contour>
      <point x="22" y="661" type="line" smooth="yes"/>
      <point x="-24" y="661"/>
      <point x="-56" y="637"/>
      <point x="-56" y="586" type="curve" smooth="yes"/>
      <point x="-56" y="580"/>
      <point x="-56" y="567"/>
      <point x="-54" y="558" type="curve"/>
      <point x="341" y="558" type="line" smooth="yes"/>
      <point x="385" y="558"/>
      <point x="417" y="581"/>
      <point x="417" y="633" type="curve" smooth="yes"/>
      <point x="417" y="635"/>
      <point x="418" y="652"/>
      <point x="415" y="661" type="curve"/>
    </contour>
    <component base="h"/>
  </outline>
</glyph>
<glyph name="dotlessi" format="1">
  <advance width="323"/>
  <unicode hex="0131"/>
  <outline>
    <contour>
      <point x="38" y="510" type="line"/>
      <point x="38" y="131" type="line" smooth="yes"/>
      <point x="38" y="29"/>
      <point x="100" y="-15"/>
      <point x="202" y="-15" type="curve" smooth="yes"/>
      <point x="231" y="-15"/>
      <point x="282" y="-8"/>
      <point x="309" y="10" type="curve"/>
      <point x="285" y="51"/>
      <point x="278" y="90"/>
      <point x="278" y="134" type="curve" smooth="yes"/>
      <point x="278" y="510" type="line"/>
    </contour>
    <contour>
      <point x="301" y="10" type="move" name="ogonek"/>
    </contour>
    <contour>
      <point x="186" y="0" type="move" name="bottom"/>
    </contour>
    <contour>
      <point x="158" y="499" type="move" name="top"/>
    </contour>
  </outline>
</glyph>
<glyph name="lacute" format="1">
  <advance width="319"/>
  <unicode hex="013A"/>
  <outline>
    <contour>
      <point x="36" y="131" type="line" smooth="yes"/>
      <point x="36" y="29"/>
      <point x="98" y="-15"/>
      <point x="199" y="-15" type="curve" smooth="yes"/>
      <point x="229" y="-15"/>
      <point x="280" y="-8"/>
      <point x="307" y="10" type="curve"/>
      <point x="283" y="51"/>
      <point x="276" y="90"/>
      <point x="276" y="134" type="curve" smooth="yes"/>
      <point x="276" y="704" type="line"/>
      <point x="36" y="680" type="line"/>
    </contour>
    <component base="acute.case" xOffset="24.212"/>
  </outline>
</glyph>
<glyph name="Ldot" format="1">
  <advance width="532"/>
  <unicode hex="013F"/>
  <outline>
    <contour>
      <point x="384" y="387"/>
      <point x="351" y="353"/>
      <point x="351" y="310" type="curve" smooth="yes"/>
      <point x="351" y="272"/>
      <point x="379" y="240"/>
      <point x="425" y="240" type="curve" smooth="yes"/>
      <point x="471" y="240"/>
      <point x="500" y="272"/>
      <point x="500" y="314" type="curve" smooth="yes"/>
      <point x="500" y="354"/>
      <point x="473" y="387"/>
      <point x="429" y="387" type="curve" smooth="yes"/>
    </contour>
    <component base="L"/>
  </outline>
</glyph>
<glyph name="ldot" format="1">
  <advance width="414"/>
  <unicode hex="0140"/>
  <outline>
    <contour>
      <point x="36" y="131" type="line" smooth="yes"/>
      <point x="36" y="29"/>
      <point x="98" y="-15"/>
      <point x="199" y="-15" type="curve" smooth="yes"/>
      <point x="229" y="-15"/>
      <point x="280" y="-8"/>
      <point x="307" y="10" type="curve"/>
      <point x="283" y="51"/>
      <point x="276" y="90"/>
      <point x="276" y="134" type="curve" smooth="yes"/>
      <point x="276" y="724" type="line"/>
      <point x="36" y="700" type="line"/>
    </contour>
    <contour>
      <point x="323" y="407"/>
      <point x="290" y="373"/>
      <point x="290" y="330" type="curve" smooth="yes"/>
      <point x="290" y="292"/>
      <point x="318" y="260"/>
      <point x="364" y="260" type="curve" smooth="yes"/>
      <point x="410" y="260"/>
      <point x="439" y="292"/>
      <point x="439" y="334" type="curve" smooth="yes"/>
      <point x="439" y="374"/>
      <point x="412" y="407"/>
      <point x="368" y="407" type="curve" smooth="yes"/>
    </contour>
  </outline>
</glyph>
<glyph name="Lslash" format="1">
  <advance width="545"/>
  <unicode hex="0141"/>
  <outline>
    <contour>
      <point x="115" y="0" type="line"/>
      <point x="529" y="0" type="line"/>
      <point x="540" y="99" type="line"/>
      <point x="379" y="99" type="line"/>
      <point x="379" y="305" type="line"/>
      <point x="433" y="322" type="line" smooth="yes"/>
      <point x="467" y="334"/>
      <point x="489" y="351"/>
      <point x="489" y="387" type="curve" smooth="yes"/>
      <point x="489" y="395"/>
      <point x="491" y="417"/>
      <point x="474" y="442" type="curve"/>
      <point x="379" y="410" type="line"/>
      <point x="379" y="660" type="line"/>
      <point x="115" y="660" type="line"/>
      <point x="115" y="315" type="line"/>
      <point x="73" y="301" type="line" smooth="yes"/>
      <point x="38" y="289"/>
      <point x="16" y="274"/>
      <point x="16" y="238" type="curve" smooth="yes"/>
      <point x="16" y="229"/>
      <point x="16" y="205"/>
      <point x="31" y="183" type="curve"/>
      <point x="115" y="212" type="line"/>
    </contour>
  </outline>
</glyph>
<glyph name="lslash" format="1">
  <advance width="481"/>
  <unicode hex="0142"/>
  <outline>
    <contour>
      <point x="403" y="333" type="line" smooth="yes"/>
      <point x="438" y="345"/>
      <point x="460" y="361"/>
      <point x="460" y="397" type="curve" smooth="yes"/>
      <point x="460" y="405"/>
      <point x="462" y="427"/>
      <point x="445" y="452" type="curve"/>
      <point x="73" y="320" type="line" smooth="yes"/>
      <point x="39" y="308"/>
      <point x="17" y="293"/>
      <point x="17" y="258" type="curve" smooth="yes"/>
      <point x="17" y="248"/>
      <point x="17" y="224"/>
      <point x="32" y="202" type="curve"/>
    </contour>
    <component base="l" xOffset="71.612"/>
  </outline>
</glyph>
<glyph name="Eng" format="1">
  <advance width="720"/>
  <unicode hex="014A"/>
  <outline>
    <contour>
      <point x="675" y="660" type="line"/>
      <point x="552" y="660" type="line"/>
      <point x="552" y="147" type="line"/>
      <point x="378" y="660" type="line"/>
      <point x="45" y="660" type="line"/>
      <point x="45" y="0" type="line"/>
      <point x="168" y="0" type="line"/>
      <point x="168" y="513" type="line"/>
      <point x="341" y="0" type="line"/>
      <point x="624" y="0" type="line"/>
      <point x="550" y="83" type="line"/>
      <point x="540" y="-9"/>
      <point x="576" y="-169"/>
      <point x="467" y="-189" type="curve"/>
      <point x="489" y="-209"/>
      <point x="516" y="-222"/>
      <point x="556" y="-222" type="curve" smooth="yes"/>
      <point x="683" y="-222"/>
      <point x="675" y="-64"/>
      <point x="675" y="64" type="curve" smooth="yes"/>
    </contour>
  </outline>
</glyph>
<glyph name="eng" format="1">
  <advance width="629"/>
  <unicode hex="014B"/>
  <outline>
    <contour>
      <point x="349" y="29" type="line" smooth="yes"/>
      <point x="349" y="-50"/>
      <point x="355" y="-131"/>
      <point x="277" y="-147" type="curve"/>
      <point x="304" y="-190"/>
      <point x="366" y="-200"/>
      <point x="415" y="-200" type="curve" smooth="yes"/>
      <point x="555" y="-200"/>
      <point x="589" y="-88"/>
      <point x="589" y="52" type="curve" smooth="yes"/>
      <point x="589" y="342" type="line" smooth="yes"/>
      <point x="589" y="466"/>
      <point x="533" y="530"/>
      <point x="409" y="530" type="curve" smooth="yes"/>
      <point x="328" y="530"/>
      <point x="268" y="508"/>
      <point x="239" y="432" type="curve"/>
      <point x="229" y="522" type="line"/>
      <point x="37" y="510" type="line"/>
      <point x="37" y="0" type="line"/>
      <point x="277" y="0" type="line"/>
      <point x="277" y="351" type="line" smooth="yes"/>
      <point x="277" y="393"/>
      <point x="270" y="455"/>
      <point x="312" y="455" type="curve" smooth="yes"/>
      <point x="353" y="455"/>
      <point x="349" y="387"/>
      <point x="349" y="346" type="curve" smooth="yes"/>
    </contour>
  </outline>
</glyph>
<glyph name="OE" format="1">
  <advance width="834"/>
  <unicode hex="0152"/>
  <outline>
    <contour>
      <point x="131" y="680"/>
      <point x="12" y="552"/>
      <point x="12" y="325" type="curve" smooth="yes"/>
      <point x="12" y="117"/>
      <point x="148" y="-22"/>
      <point x="358" y="-22" type="curve" smooth="yes"/>
      <point x="469" y="-22"/>
      <point x="558" y="16"/>
      <point x="617" y="81" type="curve"/>
      <point x="555" y="649" type="line"/>
      <point x="501" y="671"/>
      <point x="433" y="680"/>
      <point x="358" y="680" type="curve" smooth="yes"/>
    </contour>
    <contour>
      <point x="299" y="54"/>
      <point x="296" y="224"/>
      <point x="296" y="334" type="curve" smooth="yes"/>
      <point x="296" y="445"/>
      <point x="297" y="604"/>
      <point x="358" y="604" type="curve" smooth="yes"/>
      <point x="419" y="604"/>
      <point x="422" y="445"/>
      <point x="422" y="334" type="curve" smooth="yes"/>
      <point x="422" y="224"/>
      <point x="417" y="54"/>
      <point x="358" y="54" type="curve" smooth="yes"/>
    </contour>
    <contour>
      <point x="833" y="660" type="line"/>
      <point x="464" y="660" type="line"/>
      <point x="464" y="0" type="line"/>
      <point x="840" y="0" type="line"/>
      <point x="849" y="89" type="line"/>
      <point x="666" y="89" type="line"/>
      <point x="666" y="294" type="line"/>
      <point x="803" y="294" type="line"/>
      <point x="803" y="384" type="line"/>
      <point x="666" y="384" type="line"/>
      <point x="666" y="571" type="line"/>
      <point x="833" y="571" type="line"/>
    </contour>
    <contour>
      <point x="406" y="660" type="move" name="top"/>
    </contour>
  </outline>
</glyph>
<glyph name="oe" format="1">
  <advance width="913"/>
  <unicode hex="0153"/>
  <outline>
    <contour>
      <point x="616" y="530"/>
      <point x="544" y="520"/>
      <point x="483" y="491" type="curve"/>
      <point x="437" y="514"/>
      <point x="378" y="530"/>
      <point x="313" y="530" type="curve" smooth="yes"/>
      <point x="131" y="530"/>
      <point x="26" y="433"/>
      <point x="26" y="252" type="curve" smooth="yes"/>
      <point x="26" y="86"/>
      <point x="146" y="-22"/>
      <point x="313" y="-22" type="curve" smooth="yes"/>
      <point x="375" y="-22"/>
      <point x="432" y="-1"/>
      <point x="478" y="25" type="curve"/>
      <point x="526" y="-1"/>
      <point x="587" y="-22"/>
      <point x="657" y="-22" type="curve" smooth="yes"/>
      <point x="762" y="-22"/>
      <point x="882" y="19"/>
      <point x="882" y="124" type="curve" smooth="yes"/>
      <point x="882" y="148"/>
      <point x="872" y="175"/>
      <point x="851" y="186" type="curve"/>
      <point x="824" y="139"/>
      <point x="764" y="122"/>
      <point x="712" y="122" type="curve" smooth="yes"/>
      <point x="636" y="122"/>
      <point x="609" y="163"/>
      <point x="603" y="233" type="curve"/>
      <point x="615" y="230"/>
      <point x="642" y="229"/>
      <point x="652" y="229" type="curve" smooth="yes"/>
      <point x="787" y="229"/>
      <point x="906" y="251"/>
      <point x="906" y="386" type="curve" smooth="yes"/>
      <point x="906" y="496"/>
      <point x="783" y="530"/>
      <point x="673" y="530" type="curve" smooth="yes"/>
    </contour>
    <contour>
      <point x="355" y="470"/>
      <point x="357" y="368"/>
      <point x="359" y="280" type="curve" smooth="yes"/>
      <point x="359" y="262" type="line"/>
      <point x="359" y="265" type="line" smooth="yes"/>
      <point x="359" y="176"/>
      <point x="362" y="38"/>
      <point x="313" y="38" type="curve" smooth="yes"/>
      <point x="266" y="38"/>
      <point x="267" y="169"/>
      <point x="267" y="257" type="curve" smooth="yes"/>
      <point x="267" y="348"/>
      <point x="263" y="470"/>
      <point x="313" y="470" type="curve" smooth="yes"/>
    </contour>
    <contour>
      <point x="696" y="468"/>
      <point x="703" y="425"/>
      <point x="703" y="389" type="curve" smooth="yes"/>
      <point x="703" y="300"/>
      <point x="663" y="274"/>
      <point x="573" y="276" type="curve" smooth="yes"/>
      <point x="564" y="276"/>
      <point x="558" y="276"/>
      <point x="547" y="275" type="curve"/>
      <point x="602" y="249" type="line"/>
      <point x="603" y="271"/>
      <point x="591" y="468"/>
      <point x="660" y="468" type="curve" smooth="yes"/>
    </contour>
    <contour>
      <point x="453" y="499" type="move" name="top"/>
    </contour>
  </outline>
</glyph>
<glyph name="Tbar" format="1">
  <advance width="560"/>
  <unicode hex="0166"/>
  <outline>
    <contour>
      <point x="460" y="276" type="line" smooth="yes"/>
      <point x="503" y="276"/>
      <point x="535" y="299"/>
      <point x="535" y="352" type="curve" smooth="yes"/>
      <point x="535" y="353"/>
      <point x="536" y="370"/>
      <point x="534" y="379" type="curve"/>
      <point x="93" y="379" type="line" smooth="yes"/>
      <point x="47" y="379"/>
      <point x="16" y="356"/>
      <point x="16" y="304" type="curve" smooth="yes"/>
      <point x="16" y="299"/>
      <point x="15" y="285"/>
      <point x="18" y="276" type="curve"/>
    </contour>
    <component base="T"/>
  </outline>
</glyph>
<glyph name="tbar" format="1">
  <advance width="467"/>
  <unicode hex="0167"/>
  <outline>
    <contour>
      <point x="77" y="358" type="line" smooth="yes"/>
      <point x="31" y="358"/>
      <point x="0" y="334"/>
      <point x="0" y="283" type="curve" smooth="yes"/>
      <point x="0" y="277"/>
      <point x="-1" y="264"/>
      <point x="2" y="255" type="curve"/>
      <point x="383" y="255" type="line" smooth="yes"/>
      <point x="426" y="255"/>
      <point x="458" y="278"/>
      <point x="458" y="330" type="curve" smooth="yes"/>
      <point x="458" y="332"/>
      <point x="459" y="349"/>
      <point x="456" y="358" type="curve"/>
    </contour>
    <component base="t" xOffset="33.906"/>
  </outline>
</glyph>
<glyph name="longs" format="1">
  <advance width="338"/>
  <unicode hex="017F"/>
  <outline>
    <contour>
      <point x="277" y="570" type="line"/>
      <point x="277" y="613"/>
      <point x="275" y="671"/>
      <point x="318" y="671" type="curve" smooth="yes"/>
      <point x="349" y="671"/>
      <point x="353" y="637"/>
      <point x="353" y="606" type="curve" smooth="yes"/>
      <point x="353" y="589"/>
      <point x="351" y="573"/>
      <point x="351" y="561" type="curve"/>
      <point x="362" y="554"/>
      <point x="397" y="553"/>
      <point x="411" y="553" type="curve" smooth="yes"/>
      <point x="467" y="553"/>
      <point x="541" y="570"/>
      <point x="541" y="626" type="curve" smooth="yes"/>
      <point x="541" y="709"/>
      <point x="409" y="720"/>
      <point x="326" y="720" type="curve" smooth="yes"/>
      <point x="181" y="720"/>
      <point x="36" y="686"/>
      <point x="36" y="541" type="curve" smooth="yes"/>
      <point x="36" y="-17" type="line"/>
      <point x="277" y="0" type="line"/>
    </contour>
  </outline>
</glyph>
<glyph name="uni018F" format="1">
  <advance width="689"/>
  <unicode hex="018F"/>
  <outline>
    <contour>
      <point x="542" y="-22"/>
      <point x="676" y="77"/>
      <point x="676" y="320" type="curve" smooth="yes"/>
      <point x="676" y="554"/>
      <point x="534" y="683"/>
      <point x="297" y="683" type="curve" smooth="yes"/>
      <point x="167" y="683"/>
      <point x="33" y="629"/>
      <point x="33" y="496" type="curve" smooth="yes"/>
      <point x="33" y="467"/>
      <point x="50" y="430"/>
      <point x="75" y="419" type="curve"/>
      <point x="105" y="477"/>
      <point x="179" y="516"/>
      <point x="242" y="516" type="curve" smooth="yes"/>
      <point x="338" y="516"/>
      <point x="385" y="447"/>
      <point x="393" y="358" type="curve"/>
      <point x="377" y="360"/>
      <point x="327" y="362"/>
      <point x="304" y="362" type="curve" smooth="yes"/>
      <point x="138" y="362"/>
      <point x="12" y="334"/>
      <point x="12" y="161" type="curve" smooth="yes"/>
      <point x="12" y="19"/>
      <point x="172" y="-22"/>
      <point x="303" y="-22" type="curve" smooth="yes"/>
    </contour>
    <contour>
      <point x="280" y="56"/>
      <point x="247" y="111"/>
      <point x="247" y="158" type="curve" smooth="yes"/>
      <point x="247" y="271"/>
      <point x="315" y="305"/>
      <point x="431" y="302" type="curve" smooth="yes"/>
      <point x="441" y="302"/>
      <point x="449" y="302"/>
      <point x="464" y="304" type="curve"/>
      <point x="394" y="336" type="line"/>
      <point x="392" y="311"/>
      <point x="407" y="56"/>
      <point x="320" y="56" type="curve" smooth="yes"/>
    </contour>
  </outline>
</glyph>
<glyph name="florin" format="1">
  <advance width="642"/>
  <unicode hex="0192"/>
  <outline>
    <contour>
      <point x="318" y="720"/>
      <point x="171" y="686"/>
      <point x="171" y="541" type="curve" smooth="yes"/>
      <point x="171" y="420" type="line"/>
      <point x="130" y="420" type="line" smooth="yes"/>
      <point x="92" y="420"/>
      <point x="69" y="400"/>
      <point x="69" y="362" type="curve" smooth="yes"/>
      <point x="69" y="357"/>
      <point x="70" y="347"/>
      <point x="71" y="340" type="curve"/>
      <point x="173" y="340" type="line"/>
      <point x="173" y="-15" type="line" smooth="yes"/>
      <point x="173" y="-57"/>
      <point x="174" y="-116"/>
      <point x="132" y="-116" type="curve" smooth="yes"/>
      <point x="104" y="-116"/>
      <point x="97" y="-86"/>
      <point x="97" y="-58" type="curve" smooth="yes"/>
      <point x="97" y="-49"/>
      <point x="98" y="-29"/>
      <point x="99" y="-21" type="curve"/>
      <point x="87" y="-14"/>
      <point x="52" y="-13"/>
      <point x="39" y="-13" type="curve" smooth="yes"/>
      <point x="-17" y="-13"/>
      <point x="-92" y="-30"/>
      <point x="-92" y="-86" type="curve" smooth="yes"/>
      <point x="-92" y="-169"/>
      <point x="41" y="-180"/>
      <point x="124" y="-180" type="curve" smooth="yes"/>
      <point x="269" y="-180"/>
      <point x="416" y="-146"/>
      <point x="416" y="-1" type="curve" smooth="yes"/>
      <point x="416" y="340" type="line"/>
      <point x="512" y="340" type="line" smooth="yes"/>
      <point x="551" y="340"/>
      <point x="574" y="360"/>
      <point x="574" y="399" type="curve" smooth="yes"/>
      <point x="574" y="402"/>
      <point x="574" y="414"/>
      <point x="573" y="420" type="curve"/>
      <point x="414" y="420" type="line"/>
      <point x="414" y="555" type="line" smooth="yes"/>
      <point x="414" y="597"/>
      <point x="413" y="656"/>
      <point x="455" y="656" type="curve" smooth="yes"/>
      <point x="483" y="656"/>
      <point x="490" y="626"/>
      <point x="490" y="598" type="curve" smooth="yes"/>
      <point x="490" y="589"/>
      <point x="488" y="569"/>
      <point x="488" y="561" type="curve"/>
      <point x="500" y="554"/>
      <point x="535" y="553"/>
      <point x="548" y="553" type="curve" smooth="yes"/>
      <point x="604" y="553"/>
      <point x="678" y="570"/>
      <point x="678" y="626" type="curve" smooth="yes"/>
      <point x="678" y="709"/>
      <point x="546" y="720"/>
      <point x="463" y="720" type="curve" smooth="yes"/>
    </contour>
  </outline>
</glyph>
<glyph name="Aringacute" format="1">
  <advance width="635"/>
  <unicode hex="01FA"/>
  <outline>
    <contour>
      <point x="389" y="626"/>
      <point x="440" y="656"/>
      <point x="440" y="707" type="curve" smooth="yes"/>
      <point x="440" y="757"/>
      <point x="390" y="785"/>
      <point x="317" y="785" type="curve" smooth="yes"/>
      <point x="244" y="785"/>
      <point x="194" y="757"/>
      <point x="194" y="707" type="curve" smooth="yes"/>
      <point x="194" y="656"/>
      <point x="245" y="626"/>
      <point x="317" y="626" type="curve" smooth="yes"/>
    </contour>
    <contour>
      <point x="283" y="660"/>
      <point x="270" y="680"/>
      <point x="270" y="707" type="curve" smooth="yes"/>
      <point x="270" y="731"/>
      <point x="284" y="751"/>
      <point x="317" y="751" type="curve" smooth="yes"/>
      <point x="349" y="751"/>
      <point x="363" y="731"/>
      <point x="363" y="707" type="curve" smooth="yes"/>
      <point x="363" y="680"/>
      <point x="349" y="660"/>
      <point x="317" y="660" type="curve" smooth="yes"/>
    </contour>
    <component base="A"/>
    <component base="acute.case" xOffset="188.576" yOffset="83"/>
  </outline>
</glyph>
<glyph name="aringacute" format="1">
  <advance width="622"/>
  <unicode hex="01FB"/>
  <outline>
    <contour>
      <point x="187" y="760" type="line"/>
      <point x="346" y="771" type="line" smooth="yes"/>
      <point x="402" y="775"/>
      <point x="482" y="776"/>
      <point x="482" y="841" type="curve" smooth="yes"/>
      <point x="482" y="872"/>
      <point x="462" y="906"/>
      <point x="439" y="926" type="curve"/>
      <point x="174" y="816" type="line"/>
    </contour>
    <component base="a"/>
    <component base="ring" xOffset="167" yOffset="-16"/>
  </outline>
</glyph>
<glyph name="dotlessj" format="1">
  <advance width="332"/>
  <unicode hex="0237"/>
  <outline>
    <contour>
      <point x="285" y="510" type="line"/>
      <point x="45" y="510" type="line"/>
      <point x="45" y="29" type="line" smooth="yes"/>
      <point x="45" y="-51"/>
      <point x="53" y="-132"/>
      <point x="-27" y="-148" type="curve"/>
      <point x="-8" y="-191"/>
      <point x="54" y="-200"/>
      <point x="102" y="-200" type="curve" smooth="yes"/>
      <point x="247" y="-200"/>
      <point x="285" y="-94"/>
      <point x="285" y="52" type="curve" smooth="yes"/>
    </contour>
    <contour>
      <point x="167" y="499" type="move" name="top"/>
    </contour>
  </outline>
</glyph>
<glyph name="uni0259" format="1">
  <advance width="573"/>
  <unicode hex="0259"/>
  <outline>
    <contour>
      <point x="422" y="-22"/>
      <point x="547" y="50"/>
      <point x="547" y="240" type="curve" smooth="yes"/>
      <point x="547" y="426"/>
      <point x="434" y="530"/>
      <point x="249" y="530" type="curve" smooth="yes"/>
      <point x="143" y="530"/>
      <point x="24" y="489"/>
      <point x="24" y="384" type="curve" smooth="yes"/>
      <point x="24" y="360"/>
      <point x="33" y="333"/>
      <point x="55" y="322" type="curve"/>
      <point x="81" y="369"/>
      <point x="141" y="386"/>
      <point x="194" y="386" type="curve" smooth="yes"/>
      <point x="270" y="386"/>
      <point x="296" y="345"/>
      <point x="302" y="275" type="curve"/>
      <point x="291" y="278"/>
      <point x="263" y="279"/>
      <point x="253" y="279" type="curve" smooth="yes"/>
      <point x="119" y="279"/>
      <point x="-1" y="257"/>
      <point x="-1" y="122" type="curve" smooth="yes"/>
      <point x="-1" y="12"/>
      <point x="123" y="-22"/>
      <point x="233" y="-22" type="curve" smooth="yes"/>
    </contour>
    <contour>
      <point x="209" y="40"/>
      <point x="202" y="83"/>
      <point x="202" y="119" type="curve" smooth="yes"/>
      <point x="202" y="208"/>
      <point x="242" y="234"/>
      <point x="333" y="232" type="curve" smooth="yes"/>
      <point x="342" y="232"/>
      <point x="348" y="232"/>
      <point x="359" y="233" type="curve"/>
      <point x="304" y="259" type="line"/>
      <point x="303" y="237"/>
      <point x="314" y="40"/>
      <point x="245" y="40" type="curve" smooth="yes"/>
    </contour>
  </outline>
</glyph>
<glyph name="uni02BC" format="1">
  <advance width="195"/>
  <unicode hex="02BC"/>
  <outline>
    <contour>
      <point x="74" y="741"/>
      <point x="36" y="732"/>
      <point x="24" y="721" type="curve"/>
      <point x="42" y="687"/>
      <point x="49" y="653"/>
      <point x="49" y="614" type="curve" smooth="yes"/>
      <point x="49" y="567"/>
      <point x="34" y="528"/>
      <point x="7" y="489" type="curve"/>
      <point x="20" y="487"/>
      <point x="34" y="485"/>
      <point x="50" y="485" type="curve" smooth="yes"/>
      <point x="139" y="485"/>
      <point x="208" y="558"/>
      <point x="208" y="644" type="curve" smooth="yes"/>
      <point x="208" y="714"/>
      <point x="175" y="741"/>
      <point x="101" y="741" type="curve" smooth="yes"/>
    </contour>
  </outline>
</glyph>
<glyph name="circumflex" format="1">
  <advance width="396"/>
  <unicode hex="02C6"/>
  <outline>
    <contour>
      <point x="198" y="624" type="line"/>
      <point x="342" y="592" type="line"/>
      <point x="386" y="644" type="line"/>
      <point x="218" y="756" type="line"/>
      <point x="175" y="756" type="line"/>
      <point x="10" y="644" type="line"/>
      <point x="55" y="592" type="line"/>
    </contour>
    <contour>
      <point x="197" y="510" type="move" name="_top"/>
    </contour>
  </outline>
</glyph>
<glyph name="caron" format="1">
  <advance width="396"/>
  <unicode hex="02C7"/>
  <outline>
    <contour>
      <point x="198" y="704" type="line"/>
      <point x="54" y="776" type="line"/>
      <point x="10" y="724" type="line"/>
      <point x="148" y="582" type="line"/>
      <point x="251" y="582" type="line"/>
      <point x="386" y="724" type="line"/>
      <point x="341" y="776" type="line"/>
    </contour>
    <contour>
      <point x="198" y="510" type="move" name="_top"/>
    </contour>
  </outline>
</glyph>
